<?xml version="1.0" encoding="utf-8" standalone="no"?>
<!DOCTYPE svg PUBLIC "-//W3C//DTD SVG 1.1//EN"
  "http://www.w3.org/Graphics/SVG/1.1/DTD/svg11.dtd">
<svg xmlns:xlink="http://www.w3.org/1999/xlink" width="445.143156pt" height="238.86375pt" viewBox="0 0 445.143156 238.86375" xmlns="http://www.w3.org/2000/svg" version="1.1">
 <metadata>
  <rdf:RDF xmlns:dc="http://purl.org/dc/elements/1.1/" xmlns:cc="http://creativecommons.org/ns#" xmlns:rdf="http://www.w3.org/1999/02/22-rdf-syntax-ns#">
   <cc:Work>
    <dc:type rdf:resource="http://purl.org/dc/dcmitype/StillImage"/>
    <dc:date>2022-01-20T23:54:09.294603</dc:date>
    <dc:format>image/svg+xml</dc:format>
    <dc:creator>
     <cc:Agent>
      <dc:title>Matplotlib v3.5.0, https://matplotlib.org/</dc:title>
     </cc:Agent>
    </dc:creator>
   </cc:Work>
  </rdf:RDF>
 </metadata>
 <defs>
  <style type="text/css">*{stroke-linejoin: round; stroke-linecap: butt}</style>
 </defs>
 <g id="figure_1">
  <g id="patch_1">
   <path d="M 0 238.86375 
L 445.143156 238.86375 
L 445.143156 0 
L 0 0 
L 0 238.86375 
z
" style="fill: none"/>
  </g>
  <g id="axes_1">
   <g id="patch_2">
    <path d="M 61.939688 187.677656 
L 285.139687 187.677656 
L 285.139687 24.597656 
L 61.939688 24.597656 
z
" style="fill: #ffffff"/>
   </g>
   <g id="matplotlib.axis_1">
    <g id="xtick_1">
     <g id="line2d_1">
      <path d="M 74.486433 187.677656 
L 74.486433 24.597656 
" clip-path="url(#p9c67e65efc)" style="fill: none; stroke: #b0b0b0; stroke-width: 0.8; stroke-linecap: square"/>
     </g>
     <g id="line2d_2">
      <defs>
       <path id="md8349866f8" d="M 0 0 
L 0 6 
" style="stroke: #000000; stroke-width: 2"/>
      </defs>
      <g>
       <use xlink:href="#md8349866f8" x="74.486433" y="187.677656" style="stroke: #000000; stroke-width: 2"/>
      </g>
     </g>
     <g id="text_1">
      <!-- 0 -->
      <g transform="translate(70.032683 207.815469)scale(0.14 -0.14)">
       <defs>
        <path id="DejaVuSans-30" d="M 2034 4250 
Q 1547 4250 1301 3770 
Q 1056 3291 1056 2328 
Q 1056 1369 1301 889 
Q 1547 409 2034 409 
Q 2525 409 2770 889 
Q 3016 1369 3016 2328 
Q 3016 3291 2770 3770 
Q 2525 4250 2034 4250 
z
M 2034 4750 
Q 2819 4750 3233 4129 
Q 3647 3509 3647 2328 
Q 3647 1150 3233 529 
Q 2819 -91 2034 -91 
Q 1250 -91 836 529 
Q 422 1150 422 2328 
Q 422 3509 836 4129 
Q 1250 4750 2034 4750 
z
" transform="scale(0.015625)"/>
       </defs>
       <use xlink:href="#DejaVuSans-30"/>
      </g>
     </g>
    </g>
    <g id="xtick_2">
     <g id="line2d_3">
      <path d="M 134.518708 187.677656 
L 134.518708 24.597656 
" clip-path="url(#p9c67e65efc)" style="fill: none; stroke: #b0b0b0; stroke-width: 0.8; stroke-linecap: square"/>
     </g>
     <g id="line2d_4">
      <g>
       <use xlink:href="#md8349866f8" x="134.518708" y="187.677656" style="stroke: #000000; stroke-width: 2"/>
      </g>
     </g>
     <g id="text_2">
      <!-- 10 -->
      <g transform="translate(125.611208 207.815469)scale(0.14 -0.14)">
       <defs>
        <path id="DejaVuSans-31" d="M 794 531 
L 1825 531 
L 1825 4091 
L 703 3866 
L 703 4441 
L 1819 4666 
L 2450 4666 
L 2450 531 
L 3481 531 
L 3481 0 
L 794 0 
L 794 531 
z
" transform="scale(0.015625)"/>
       </defs>
       <use xlink:href="#DejaVuSans-31"/>
       <use xlink:href="#DejaVuSans-30" x="63.623047"/>
      </g>
     </g>
    </g>
    <g id="xtick_3">
     <g id="line2d_5">
      <path d="M 194.550984 187.677656 
L 194.550984 24.597656 
" clip-path="url(#p9c67e65efc)" style="fill: none; stroke: #b0b0b0; stroke-width: 0.8; stroke-linecap: square"/>
     </g>
     <g id="line2d_6">
      <g>
       <use xlink:href="#md8349866f8" x="194.550984" y="187.677656" style="stroke: #000000; stroke-width: 2"/>
      </g>
     </g>
     <g id="text_3">
      <!-- 20 -->
      <g transform="translate(185.643484 207.815469)scale(0.14 -0.14)">
       <defs>
        <path id="DejaVuSans-32" d="M 1228 531 
L 3431 531 
L 3431 0 
L 469 0 
L 469 531 
Q 828 903 1448 1529 
Q 2069 2156 2228 2338 
Q 2531 2678 2651 2914 
Q 2772 3150 2772 3378 
Q 2772 3750 2511 3984 
Q 2250 4219 1831 4219 
Q 1534 4219 1204 4116 
Q 875 4013 500 3803 
L 500 4441 
Q 881 4594 1212 4672 
Q 1544 4750 1819 4750 
Q 2544 4750 2975 4387 
Q 3406 4025 3406 3419 
Q 3406 3131 3298 2873 
Q 3191 2616 2906 2266 
Q 2828 2175 2409 1742 
Q 1991 1309 1228 531 
z
" transform="scale(0.015625)"/>
       </defs>
       <use xlink:href="#DejaVuSans-32"/>
       <use xlink:href="#DejaVuSans-30" x="63.623047"/>
      </g>
     </g>
    </g>
    <g id="xtick_4">
     <g id="line2d_7">
      <path d="M 254.583259 187.677656 
L 254.583259 24.597656 
" clip-path="url(#p9c67e65efc)" style="fill: none; stroke: #b0b0b0; stroke-width: 0.8; stroke-linecap: square"/>
     </g>
     <g id="line2d_8">
      <g>
       <use xlink:href="#md8349866f8" x="254.583259" y="187.677656" style="stroke: #000000; stroke-width: 2"/>
      </g>
     </g>
     <g id="text_4">
      <!-- 30 -->
      <g transform="translate(245.675759 207.815469)scale(0.14 -0.14)">
       <defs>
        <path id="DejaVuSans-33" d="M 2597 2516 
Q 3050 2419 3304 2112 
Q 3559 1806 3559 1356 
Q 3559 666 3084 287 
Q 2609 -91 1734 -91 
Q 1441 -91 1130 -33 
Q 819 25 488 141 
L 488 750 
Q 750 597 1062 519 
Q 1375 441 1716 441 
Q 2309 441 2620 675 
Q 2931 909 2931 1356 
Q 2931 1769 2642 2001 
Q 2353 2234 1838 2234 
L 1294 2234 
L 1294 2753 
L 1863 2753 
Q 2328 2753 2575 2939 
Q 2822 3125 2822 3475 
Q 2822 3834 2567 4026 
Q 2313 4219 1838 4219 
Q 1578 4219 1281 4162 
Q 984 4106 628 3988 
L 628 4550 
Q 988 4650 1302 4700 
Q 1616 4750 1894 4750 
Q 2613 4750 3031 4423 
Q 3450 4097 3450 3541 
Q 3450 3153 3228 2886 
Q 3006 2619 2597 2516 
z
" transform="scale(0.015625)"/>
       </defs>
       <use xlink:href="#DejaVuSans-33"/>
       <use xlink:href="#DejaVuSans-30" x="63.623047"/>
      </g>
     </g>
    </g>
    <g id="xtick_5">
     <g id="line2d_9">
      <defs>
       <path id="m7a10da65ac" d="M 0 0 
L 0 3 
" style="stroke: #000000; stroke-width: 2"/>
      </defs>
      <g>
       <use xlink:href="#m7a10da65ac" x="62.479978" y="187.677656" style="stroke: #000000; stroke-width: 2"/>
      </g>
     </g>
    </g>
    <g id="xtick_6">
     <g id="line2d_10">
      <g>
       <use xlink:href="#m7a10da65ac" x="86.492888" y="187.677656" style="stroke: #000000; stroke-width: 2"/>
      </g>
     </g>
    </g>
    <g id="xtick_7">
     <g id="line2d_11">
      <g>
       <use xlink:href="#m7a10da65ac" x="98.499343" y="187.677656" style="stroke: #000000; stroke-width: 2"/>
      </g>
     </g>
    </g>
    <g id="xtick_8">
     <g id="line2d_12">
      <g>
       <use xlink:href="#m7a10da65ac" x="110.505798" y="187.677656" style="stroke: #000000; stroke-width: 2"/>
      </g>
     </g>
    </g>
    <g id="xtick_9">
     <g id="line2d_13">
      <g>
       <use xlink:href="#m7a10da65ac" x="122.512253" y="187.677656" style="stroke: #000000; stroke-width: 2"/>
      </g>
     </g>
    </g>
    <g id="xtick_10">
     <g id="line2d_14">
      <g>
       <use xlink:href="#m7a10da65ac" x="146.525164" y="187.677656" style="stroke: #000000; stroke-width: 2"/>
      </g>
     </g>
    </g>
    <g id="xtick_11">
     <g id="line2d_15">
      <g>
       <use xlink:href="#m7a10da65ac" x="158.531619" y="187.677656" style="stroke: #000000; stroke-width: 2"/>
      </g>
     </g>
    </g>
    <g id="xtick_12">
     <g id="line2d_16">
      <g>
       <use xlink:href="#m7a10da65ac" x="170.538074" y="187.677656" style="stroke: #000000; stroke-width: 2"/>
      </g>
     </g>
    </g>
    <g id="xtick_13">
     <g id="line2d_17">
      <g>
       <use xlink:href="#m7a10da65ac" x="182.544529" y="187.677656" style="stroke: #000000; stroke-width: 2"/>
      </g>
     </g>
    </g>
    <g id="xtick_14">
     <g id="line2d_18">
      <g>
       <use xlink:href="#m7a10da65ac" x="206.557439" y="187.677656" style="stroke: #000000; stroke-width: 2"/>
      </g>
     </g>
    </g>
    <g id="xtick_15">
     <g id="line2d_19">
      <g>
       <use xlink:href="#m7a10da65ac" x="218.563894" y="187.677656" style="stroke: #000000; stroke-width: 2"/>
      </g>
     </g>
    </g>
    <g id="xtick_16">
     <g id="line2d_20">
      <g>
       <use xlink:href="#m7a10da65ac" x="230.570349" y="187.677656" style="stroke: #000000; stroke-width: 2"/>
      </g>
     </g>
    </g>
    <g id="xtick_17">
     <g id="line2d_21">
      <g>
       <use xlink:href="#m7a10da65ac" x="242.576804" y="187.677656" style="stroke: #000000; stroke-width: 2"/>
      </g>
     </g>
    </g>
    <g id="xtick_18">
     <g id="line2d_22">
      <g>
       <use xlink:href="#m7a10da65ac" x="266.589714" y="187.677656" style="stroke: #000000; stroke-width: 2"/>
      </g>
     </g>
    </g>
    <g id="xtick_19">
     <g id="line2d_23">
      <g>
       <use xlink:href="#m7a10da65ac" x="278.596169" y="187.677656" style="stroke: #000000; stroke-width: 2"/>
      </g>
     </g>
    </g>
    <g id="text_5">
     <!-- Sites -->
     <g transform="translate(152.181484 228.024297)scale(0.175 -0.175)">
      <defs>
       <path id="DejaVuSans-53" d="M 3425 4513 
L 3425 3897 
Q 3066 4069 2747 4153 
Q 2428 4238 2131 4238 
Q 1616 4238 1336 4038 
Q 1056 3838 1056 3469 
Q 1056 3159 1242 3001 
Q 1428 2844 1947 2747 
L 2328 2669 
Q 3034 2534 3370 2195 
Q 3706 1856 3706 1288 
Q 3706 609 3251 259 
Q 2797 -91 1919 -91 
Q 1588 -91 1214 -16 
Q 841 59 441 206 
L 441 856 
Q 825 641 1194 531 
Q 1563 422 1919 422 
Q 2459 422 2753 634 
Q 3047 847 3047 1241 
Q 3047 1584 2836 1778 
Q 2625 1972 2144 2069 
L 1759 2144 
Q 1053 2284 737 2584 
Q 422 2884 422 3419 
Q 422 4038 858 4394 
Q 1294 4750 2059 4750 
Q 2388 4750 2728 4690 
Q 3069 4631 3425 4513 
z
" transform="scale(0.015625)"/>
       <path id="DejaVuSans-69" d="M 603 3500 
L 1178 3500 
L 1178 0 
L 603 0 
L 603 3500 
z
M 603 4863 
L 1178 4863 
L 1178 4134 
L 603 4134 
L 603 4863 
z
" transform="scale(0.015625)"/>
       <path id="DejaVuSans-74" d="M 1172 4494 
L 1172 3500 
L 2356 3500 
L 2356 3053 
L 1172 3053 
L 1172 1153 
Q 1172 725 1289 603 
Q 1406 481 1766 481 
L 2356 481 
L 2356 0 
L 1766 0 
Q 1100 0 847 248 
Q 594 497 594 1153 
L 594 3053 
L 172 3053 
L 172 3500 
L 594 3500 
L 594 4494 
L 1172 4494 
z
" transform="scale(0.015625)"/>
       <path id="DejaVuSans-65" d="M 3597 1894 
L 3597 1613 
L 953 1613 
Q 991 1019 1311 708 
Q 1631 397 2203 397 
Q 2534 397 2845 478 
Q 3156 559 3463 722 
L 3463 178 
Q 3153 47 2828 -22 
Q 2503 -91 2169 -91 
Q 1331 -91 842 396 
Q 353 884 353 1716 
Q 353 2575 817 3079 
Q 1281 3584 2069 3584 
Q 2775 3584 3186 3129 
Q 3597 2675 3597 1894 
z
M 3022 2063 
Q 3016 2534 2758 2815 
Q 2500 3097 2075 3097 
Q 1594 3097 1305 2825 
Q 1016 2553 972 2059 
L 3022 2063 
z
" transform="scale(0.015625)"/>
       <path id="DejaVuSans-73" d="M 2834 3397 
L 2834 2853 
Q 2591 2978 2328 3040 
Q 2066 3103 1784 3103 
Q 1356 3103 1142 2972 
Q 928 2841 928 2578 
Q 928 2378 1081 2264 
Q 1234 2150 1697 2047 
L 1894 2003 
Q 2506 1872 2764 1633 
Q 3022 1394 3022 966 
Q 3022 478 2636 193 
Q 2250 -91 1575 -91 
Q 1294 -91 989 -36 
Q 684 19 347 128 
L 347 722 
Q 666 556 975 473 
Q 1284 391 1588 391 
Q 1994 391 2212 530 
Q 2431 669 2431 922 
Q 2431 1156 2273 1281 
Q 2116 1406 1581 1522 
L 1381 1569 
Q 847 1681 609 1914 
Q 372 2147 372 2553 
Q 372 3047 722 3315 
Q 1072 3584 1716 3584 
Q 2034 3584 2315 3537 
Q 2597 3491 2834 3397 
z
" transform="scale(0.015625)"/>
      </defs>
      <use xlink:href="#DejaVuSans-53"/>
      <use xlink:href="#DejaVuSans-69" x="63.476562"/>
      <use xlink:href="#DejaVuSans-74" x="91.259766"/>
      <use xlink:href="#DejaVuSans-65" x="130.46875"/>
      <use xlink:href="#DejaVuSans-73" x="191.992188"/>
     </g>
    </g>
   </g>
   <g id="matplotlib.axis_2">
    <g id="ytick_1">
     <g id="line2d_24">
      <path d="M 61.939688 187.677656 
L 285.139687 187.677656 
" clip-path="url(#p9c67e65efc)" style="fill: none; stroke: #b0b0b0; stroke-width: 0.8; stroke-linecap: square"/>
     </g>
     <g id="line2d_25">
      <defs>
       <path id="m953ff6e13e" d="M 0 0 
L -6 0 
" style="stroke: #000000; stroke-width: 2"/>
      </defs>
      <g>
       <use xlink:href="#m953ff6e13e" x="61.939688" y="187.677656" style="stroke: #000000; stroke-width: 2"/>
      </g>
     </g>
     <g id="text_6">
      <!-- 0 -->
      <g transform="translate(43.532188 192.996563)scale(0.14 -0.14)">
       <use xlink:href="#DejaVuSans-30"/>
      </g>
     </g>
    </g>
    <g id="ytick_2">
     <g id="line2d_26">
      <path d="M 61.939688 143.491804 
L 285.139687 143.491804 
" clip-path="url(#p9c67e65efc)" style="fill: none; stroke: #b0b0b0; stroke-width: 0.8; stroke-linecap: square"/>
     </g>
     <g id="line2d_27">
      <g>
       <use xlink:href="#m953ff6e13e" x="61.939688" y="143.491804" style="stroke: #000000; stroke-width: 2"/>
      </g>
     </g>
     <g id="text_7">
      <!-- 100 -->
      <g transform="translate(25.717188 148.81071)scale(0.14 -0.14)">
       <use xlink:href="#DejaVuSans-31"/>
       <use xlink:href="#DejaVuSans-30" x="63.623047"/>
       <use xlink:href="#DejaVuSans-30" x="127.246094"/>
      </g>
     </g>
    </g>
    <g id="ytick_3">
     <g id="line2d_28">
      <path d="M 61.939688 99.305951 
L 285.139687 99.305951 
" clip-path="url(#p9c67e65efc)" style="fill: none; stroke: #b0b0b0; stroke-width: 0.8; stroke-linecap: square"/>
     </g>
     <g id="line2d_29">
      <g>
       <use xlink:href="#m953ff6e13e" x="61.939688" y="99.305951" style="stroke: #000000; stroke-width: 2"/>
      </g>
     </g>
     <g id="text_8">
      <!-- 200 -->
      <g transform="translate(25.717188 104.624857)scale(0.14 -0.14)">
       <use xlink:href="#DejaVuSans-32"/>
       <use xlink:href="#DejaVuSans-30" x="63.623047"/>
       <use xlink:href="#DejaVuSans-30" x="127.246094"/>
      </g>
     </g>
    </g>
    <g id="ytick_4">
     <g id="line2d_30">
      <path d="M 61.939688 55.120099 
L 285.139687 55.120099 
" clip-path="url(#p9c67e65efc)" style="fill: none; stroke: #b0b0b0; stroke-width: 0.8; stroke-linecap: square"/>
     </g>
     <g id="line2d_31">
      <g>
       <use xlink:href="#m953ff6e13e" x="61.939688" y="55.120099" style="stroke: #000000; stroke-width: 2"/>
      </g>
     </g>
     <g id="text_9">
      <!-- 300 -->
      <g transform="translate(25.717188 60.439005)scale(0.14 -0.14)">
       <use xlink:href="#DejaVuSans-33"/>
       <use xlink:href="#DejaVuSans-30" x="63.623047"/>
       <use xlink:href="#DejaVuSans-30" x="127.246094"/>
      </g>
     </g>
    </g>
    <g id="ytick_5">
     <g id="line2d_32">
      <defs>
       <path id="m54bdeb2153" d="M 0 0 
L -3 0 
" style="stroke: #000000; stroke-width: 2"/>
      </defs>
      <g>
       <use xlink:href="#m54bdeb2153" x="61.939688" y="178.840486" style="stroke: #000000; stroke-width: 2"/>
      </g>
     </g>
    </g>
    <g id="ytick_6">
     <g id="line2d_33">
      <g>
       <use xlink:href="#m54bdeb2153" x="61.939688" y="170.003315" style="stroke: #000000; stroke-width: 2"/>
      </g>
     </g>
    </g>
    <g id="ytick_7">
     <g id="line2d_34">
      <g>
       <use xlink:href="#m54bdeb2153" x="61.939688" y="161.166145" style="stroke: #000000; stroke-width: 2"/>
      </g>
     </g>
    </g>
    <g id="ytick_8">
     <g id="line2d_35">
      <g>
       <use xlink:href="#m54bdeb2153" x="61.939688" y="152.328974" style="stroke: #000000; stroke-width: 2"/>
      </g>
     </g>
    </g>
    <g id="ytick_9">
     <g id="line2d_36">
      <g>
       <use xlink:href="#m54bdeb2153" x="61.939688" y="134.654633" style="stroke: #000000; stroke-width: 2"/>
      </g>
     </g>
    </g>
    <g id="ytick_10">
     <g id="line2d_37">
      <g>
       <use xlink:href="#m54bdeb2153" x="61.939688" y="125.817463" style="stroke: #000000; stroke-width: 2"/>
      </g>
     </g>
    </g>
    <g id="ytick_11">
     <g id="line2d_38">
      <g>
       <use xlink:href="#m54bdeb2153" x="61.939688" y="116.980292" style="stroke: #000000; stroke-width: 2"/>
      </g>
     </g>
    </g>
    <g id="ytick_12">
     <g id="line2d_39">
      <g>
       <use xlink:href="#m54bdeb2153" x="61.939688" y="108.143122" style="stroke: #000000; stroke-width: 2"/>
      </g>
     </g>
    </g>
    <g id="ytick_13">
     <g id="line2d_40">
      <g>
       <use xlink:href="#m54bdeb2153" x="61.939688" y="90.468781" style="stroke: #000000; stroke-width: 2"/>
      </g>
     </g>
    </g>
    <g id="ytick_14">
     <g id="line2d_41">
      <g>
       <use xlink:href="#m54bdeb2153" x="61.939688" y="81.63161" style="stroke: #000000; stroke-width: 2"/>
      </g>
     </g>
    </g>
    <g id="ytick_15">
     <g id="line2d_42">
      <g>
       <use xlink:href="#m54bdeb2153" x="61.939688" y="72.79444" style="stroke: #000000; stroke-width: 2"/>
      </g>
     </g>
    </g>
    <g id="ytick_16">
     <g id="line2d_43">
      <g>
       <use xlink:href="#m54bdeb2153" x="61.939688" y="63.957269" style="stroke: #000000; stroke-width: 2"/>
      </g>
     </g>
    </g>
    <g id="ytick_17">
     <g id="line2d_44">
      <g>
       <use xlink:href="#m54bdeb2153" x="61.939688" y="46.282928" style="stroke: #000000; stroke-width: 2"/>
      </g>
     </g>
    </g>
    <g id="ytick_18">
     <g id="line2d_45">
      <g>
       <use xlink:href="#m54bdeb2153" x="61.939688" y="37.445758" style="stroke: #000000; stroke-width: 2"/>
      </g>
     </g>
    </g>
    <g id="ytick_19">
     <g id="line2d_46">
      <g>
       <use xlink:href="#m54bdeb2153" x="61.939688" y="28.608587" style="stroke: #000000; stroke-width: 2"/>
      </g>
     </g>
    </g>
    <g id="text_10">
     <!-- Reconstruction Error -->
     <g transform="translate(18.597656 182.927109)rotate(-90)scale(0.15 -0.15)">
      <defs>
       <path id="DejaVuSans-52" d="M 2841 2188 
Q 3044 2119 3236 1894 
Q 3428 1669 3622 1275 
L 4263 0 
L 3584 0 
L 2988 1197 
Q 2756 1666 2539 1819 
Q 2322 1972 1947 1972 
L 1259 1972 
L 1259 0 
L 628 0 
L 628 4666 
L 2053 4666 
Q 2853 4666 3247 4331 
Q 3641 3997 3641 3322 
Q 3641 2881 3436 2590 
Q 3231 2300 2841 2188 
z
M 1259 4147 
L 1259 2491 
L 2053 2491 
Q 2509 2491 2742 2702 
Q 2975 2913 2975 3322 
Q 2975 3731 2742 3939 
Q 2509 4147 2053 4147 
L 1259 4147 
z
" transform="scale(0.015625)"/>
       <path id="DejaVuSans-63" d="M 3122 3366 
L 3122 2828 
Q 2878 2963 2633 3030 
Q 2388 3097 2138 3097 
Q 1578 3097 1268 2742 
Q 959 2388 959 1747 
Q 959 1106 1268 751 
Q 1578 397 2138 397 
Q 2388 397 2633 464 
Q 2878 531 3122 666 
L 3122 134 
Q 2881 22 2623 -34 
Q 2366 -91 2075 -91 
Q 1284 -91 818 406 
Q 353 903 353 1747 
Q 353 2603 823 3093 
Q 1294 3584 2113 3584 
Q 2378 3584 2631 3529 
Q 2884 3475 3122 3366 
z
" transform="scale(0.015625)"/>
       <path id="DejaVuSans-6f" d="M 1959 3097 
Q 1497 3097 1228 2736 
Q 959 2375 959 1747 
Q 959 1119 1226 758 
Q 1494 397 1959 397 
Q 2419 397 2687 759 
Q 2956 1122 2956 1747 
Q 2956 2369 2687 2733 
Q 2419 3097 1959 3097 
z
M 1959 3584 
Q 2709 3584 3137 3096 
Q 3566 2609 3566 1747 
Q 3566 888 3137 398 
Q 2709 -91 1959 -91 
Q 1206 -91 779 398 
Q 353 888 353 1747 
Q 353 2609 779 3096 
Q 1206 3584 1959 3584 
z
" transform="scale(0.015625)"/>
       <path id="DejaVuSans-6e" d="M 3513 2113 
L 3513 0 
L 2938 0 
L 2938 2094 
Q 2938 2591 2744 2837 
Q 2550 3084 2163 3084 
Q 1697 3084 1428 2787 
Q 1159 2491 1159 1978 
L 1159 0 
L 581 0 
L 581 3500 
L 1159 3500 
L 1159 2956 
Q 1366 3272 1645 3428 
Q 1925 3584 2291 3584 
Q 2894 3584 3203 3211 
Q 3513 2838 3513 2113 
z
" transform="scale(0.015625)"/>
       <path id="DejaVuSans-72" d="M 2631 2963 
Q 2534 3019 2420 3045 
Q 2306 3072 2169 3072 
Q 1681 3072 1420 2755 
Q 1159 2438 1159 1844 
L 1159 0 
L 581 0 
L 581 3500 
L 1159 3500 
L 1159 2956 
Q 1341 3275 1631 3429 
Q 1922 3584 2338 3584 
Q 2397 3584 2469 3576 
Q 2541 3569 2628 3553 
L 2631 2963 
z
" transform="scale(0.015625)"/>
       <path id="DejaVuSans-75" d="M 544 1381 
L 544 3500 
L 1119 3500 
L 1119 1403 
Q 1119 906 1312 657 
Q 1506 409 1894 409 
Q 2359 409 2629 706 
Q 2900 1003 2900 1516 
L 2900 3500 
L 3475 3500 
L 3475 0 
L 2900 0 
L 2900 538 
Q 2691 219 2414 64 
Q 2138 -91 1772 -91 
Q 1169 -91 856 284 
Q 544 659 544 1381 
z
M 1991 3584 
L 1991 3584 
z
" transform="scale(0.015625)"/>
       <path id="DejaVuSans-20" transform="scale(0.015625)"/>
       <path id="DejaVuSans-45" d="M 628 4666 
L 3578 4666 
L 3578 4134 
L 1259 4134 
L 1259 2753 
L 3481 2753 
L 3481 2222 
L 1259 2222 
L 1259 531 
L 3634 531 
L 3634 0 
L 628 0 
L 628 4666 
z
" transform="scale(0.015625)"/>
      </defs>
      <use xlink:href="#DejaVuSans-52"/>
      <use xlink:href="#DejaVuSans-65" x="64.982422"/>
      <use xlink:href="#DejaVuSans-63" x="126.505859"/>
      <use xlink:href="#DejaVuSans-6f" x="181.486328"/>
      <use xlink:href="#DejaVuSans-6e" x="242.667969"/>
      <use xlink:href="#DejaVuSans-73" x="306.046875"/>
      <use xlink:href="#DejaVuSans-74" x="358.146484"/>
      <use xlink:href="#DejaVuSans-72" x="397.355469"/>
      <use xlink:href="#DejaVuSans-75" x="438.46875"/>
      <use xlink:href="#DejaVuSans-63" x="501.847656"/>
      <use xlink:href="#DejaVuSans-74" x="556.828125"/>
      <use xlink:href="#DejaVuSans-69" x="596.037109"/>
      <use xlink:href="#DejaVuSans-6f" x="623.820312"/>
      <use xlink:href="#DejaVuSans-6e" x="685.001953"/>
      <use xlink:href="#DejaVuSans-20" x="748.380859"/>
      <use xlink:href="#DejaVuSans-45" x="780.167969"/>
      <use xlink:href="#DejaVuSans-72" x="843.351562"/>
      <use xlink:href="#DejaVuSans-72" x="882.714844"/>
      <use xlink:href="#DejaVuSans-6f" x="921.578125"/>
      <use xlink:href="#DejaVuSans-72" x="982.759766"/>
     </g>
    </g>
   </g>
   <g id="patch_3">
    <path d="M 72.085142 187.677656 
L 76.887724 187.677656 
L 76.887724 106.653715 
L 72.085142 106.653715 
z
" clip-path="url(#p9c67e65efc)" style="fill: #1f77b4"/>
   </g>
   <g id="patch_4">
    <path d="M 78.08837 187.677656 
L 82.890952 187.677656 
L 82.890952 80.473977 
L 78.08837 80.473977 
z
" clip-path="url(#p9c67e65efc)" style="fill: #1f77b4"/>
   </g>
   <g id="patch_5">
    <path d="M 84.091597 187.677656 
L 88.894179 187.677656 
L 88.894179 82.691715 
L 84.091597 82.691715 
z
" clip-path="url(#p9c67e65efc)" style="fill: #1f77b4"/>
   </g>
   <g id="patch_6">
    <path d="M 90.094825 187.677656 
L 94.897407 187.677656 
L 94.897407 62.762721 
L 90.094825 62.762721 
z
" clip-path="url(#p9c67e65efc)" style="fill: #1f77b4"/>
   </g>
   <g id="patch_7">
    <path d="M 96.098052 187.677656 
L 100.900634 187.677656 
L 100.900634 53.81591 
L 96.098052 53.81591 
z
" clip-path="url(#p9c67e65efc)" style="fill: #1f77b4"/>
   </g>
   <g id="patch_8">
    <path d="M 102.10128 187.677656 
L 106.903862 187.677656 
L 106.903862 48.766824 
L 102.10128 48.766824 
z
" clip-path="url(#p9c67e65efc)" style="fill: #1f77b4"/>
   </g>
   <g id="patch_9">
    <path d="M 108.104507 187.677656 
L 112.907089 187.677656 
L 112.907089 73.361649 
L 108.104507 73.361649 
z
" clip-path="url(#p9c67e65efc)" style="fill: #1f77b4"/>
   </g>
   <g id="patch_10">
    <path d="M 114.107735 187.677656 
L 118.910317 187.677656 
L 118.910317 57.117523 
L 114.107735 57.117523 
z
" clip-path="url(#p9c67e65efc)" style="fill: #1f77b4"/>
   </g>
   <g id="patch_11">
    <path d="M 120.110962 187.677656 
L 124.913544 187.677656 
L 124.913544 73.01358 
L 120.110962 73.01358 
z
" clip-path="url(#p9c67e65efc)" style="fill: #1f77b4"/>
   </g>
   <g id="patch_12">
    <path d="M 126.11419 187.677656 
L 130.916772 187.677656 
L 130.916772 70.890615 
L 126.11419 70.890615 
z
" clip-path="url(#p9c67e65efc)" style="fill: #1f77b4"/>
   </g>
   <g id="patch_13">
    <path d="M 132.117417 187.677656 
L 136.919999 187.677656 
L 136.919999 32.363371 
L 132.117417 32.363371 
z
" clip-path="url(#p9c67e65efc)" style="fill: #1f77b4"/>
   </g>
   <g id="patch_14">
    <path d="M 138.120645 187.677656 
L 142.923227 187.677656 
L 142.923227 74.600185 
L 138.120645 74.600185 
z
" clip-path="url(#p9c67e65efc)" style="fill: #1f77b4"/>
   </g>
   <g id="patch_15">
    <path d="M 144.123873 187.677656 
L 148.926455 187.677656 
L 148.926455 78.65857 
L 144.123873 78.65857 
z
" clip-path="url(#p9c67e65efc)" style="fill: #1f77b4"/>
   </g>
   <g id="patch_16">
    <path d="M 150.1271 187.677656 
L 154.929682 187.677656 
L 154.929682 77.729224 
L 150.1271 77.729224 
z
" clip-path="url(#p9c67e65efc)" style="fill: #ff7f0e"/>
   </g>
   <g id="patch_17">
    <path d="M 156.130328 187.677656 
L 160.93291 187.677656 
L 160.93291 66.318238 
L 156.130328 66.318238 
z
" clip-path="url(#p9c67e65efc)" style="fill: #ff7f0e"/>
   </g>
   <g id="patch_18">
    <path d="M 162.133555 187.677656 
L 166.936137 187.677656 
L 166.936137 72.867783 
L 162.133555 72.867783 
z
" clip-path="url(#p9c67e65efc)" style="fill: #ff7f0e"/>
   </g>
   <g id="patch_19">
    <path d="M 168.136783 187.677656 
L 172.939365 187.677656 
L 172.939365 65.203363 
L 168.136783 65.203363 
z
" clip-path="url(#p9c67e65efc)" style="fill: #ff7f0e"/>
   </g>
   <g id="patch_20">
    <path d="M 174.14001 187.677656 
L 178.942592 187.677656 
L 178.942592 66.374538 
L 174.14001 66.374538 
z
" clip-path="url(#p9c67e65efc)" style="fill: #ff7f0e"/>
   </g>
   <g id="patch_21">
    <path d="M 180.143238 187.677656 
L 184.94582 187.677656 
L 184.94582 72.064774 
L 180.143238 72.064774 
z
" clip-path="url(#p9c67e65efc)" style="fill: #ff7f0e"/>
   </g>
   <g id="patch_22">
    <path d="M 186.146465 187.677656 
L 190.949047 187.677656 
L 190.949047 69.53048 
L 186.146465 69.53048 
z
" clip-path="url(#p9c67e65efc)" style="fill: #ff7f0e"/>
   </g>
   <g id="patch_23">
    <path d="M 192.149693 187.677656 
L 196.952275 187.677656 
L 196.952275 65.76249 
L 192.149693 65.76249 
z
" clip-path="url(#p9c67e65efc)" style="fill: #ff7f0e"/>
   </g>
   <g id="patch_24">
    <path d="M 198.15292 187.677656 
L 202.955502 187.677656 
L 202.955502 81.066678 
L 198.15292 81.066678 
z
" clip-path="url(#p9c67e65efc)" style="fill: #2ca02c"/>
   </g>
   <g id="patch_25">
    <path d="M 204.156148 187.677656 
L 208.95873 187.677656 
L 208.95873 97.675987 
L 204.156148 97.675987 
z
" clip-path="url(#p9c67e65efc)" style="fill: #2ca02c"/>
   </g>
   <g id="patch_26">
    <path d="M 210.159376 187.677656 
L 214.961958 187.677656 
L 214.961958 79.644973 
L 210.159376 79.644973 
z
" clip-path="url(#p9c67e65efc)" style="fill: #2ca02c"/>
   </g>
   <g id="patch_27">
    <path d="M 216.162603 187.677656 
L 220.965185 187.677656 
L 220.965185 79.699025 
L 216.162603 79.699025 
z
" clip-path="url(#p9c67e65efc)" style="fill: #2ca02c"/>
   </g>
   <g id="patch_28">
    <path d="M 222.165831 187.677656 
L 226.968413 187.677656 
L 226.968413 50.432132 
L 222.165831 50.432132 
z
" clip-path="url(#p9c67e65efc)" style="fill: #d62728"/>
   </g>
   <g id="patch_29">
    <path d="M 228.169058 187.677656 
L 232.97164 187.677656 
L 232.97164 89.238049 
L 228.169058 89.238049 
z
" clip-path="url(#p9c67e65efc)" style="fill: #d62728"/>
   </g>
   <g id="patch_30">
    <path d="M 234.172286 187.677656 
L 238.974868 187.677656 
L 238.974868 36.908512 
L 234.172286 36.908512 
z
" clip-path="url(#p9c67e65efc)" style="fill: #d62728"/>
   </g>
   <g id="patch_31">
    <path d="M 240.175513 187.677656 
L 244.978095 187.677656 
L 244.978095 64.788168 
L 240.175513 64.788168 
z
" clip-path="url(#p9c67e65efc)" style="fill: #d62728"/>
   </g>
   <g id="patch_32">
    <path d="M 246.178741 187.677656 
L 250.981323 187.677656 
L 250.981323 81.639632 
L 246.178741 81.639632 
z
" clip-path="url(#p9c67e65efc)" style="fill: #d62728"/>
   </g>
   <g id="patch_33">
    <path d="M 252.181968 187.677656 
L 256.98455 187.677656 
L 256.98455 80.781193 
L 252.181968 80.781193 
z
" clip-path="url(#p9c67e65efc)" style="fill: #d62728"/>
   </g>
   <g id="patch_34">
    <path d="M 258.185196 187.677656 
L 262.987778 187.677656 
L 262.987778 153.820984 
L 258.185196 153.820984 
z
" clip-path="url(#p9c67e65efc)" style="fill: #9467bd"/>
   </g>
   <g id="patch_35">
    <path d="M 264.188423 187.677656 
L 268.991005 187.677656 
L 268.991005 150.034989 
L 264.188423 150.034989 
z
" clip-path="url(#p9c67e65efc)" style="fill: #8c564b"/>
   </g>
   <g id="patch_36">
    <path d="M 270.191651 187.677656 
L 274.994233 187.677656 
L 274.994233 106.707533 
L 270.191651 106.707533 
z
" clip-path="url(#p9c67e65efc)" style="fill: #8c564b"/>
   </g>
   <g id="patch_37">
    <path d="M 61.939688 187.677656 
L 61.939688 24.597656 
" style="fill: none; stroke: #000000; stroke-width: 1.5; stroke-linejoin: miter; stroke-linecap: square"/>
   </g>
   <g id="patch_38">
    <path d="M 285.139687 187.677656 
L 285.139687 24.597656 
" style="fill: none; stroke: #000000; stroke-width: 1.5; stroke-linejoin: miter; stroke-linecap: square"/>
   </g>
   <g id="patch_39">
    <path d="M 61.939688 187.677656 
L 285.139688 187.677656 
" style="fill: none; stroke: #000000; stroke-width: 1.5; stroke-linejoin: miter; stroke-linecap: square"/>
   </g>
   <g id="patch_40">
    <path d="M 61.939688 24.597656 
L 285.139688 24.597656 
" style="fill: none; stroke: #000000; stroke-width: 1.5; stroke-linejoin: miter; stroke-linecap: square"/>
   </g>
   <g id="text_11">
    <!-- Nov (r = 10) -->
    <g transform="translate(126.985781 18.597656)scale(0.15 -0.15)">
     <defs>
      <path id="DejaVuSans-4e" d="M 628 4666 
L 1478 4666 
L 3547 763 
L 3547 4666 
L 4159 4666 
L 4159 0 
L 3309 0 
L 1241 3903 
L 1241 0 
L 628 0 
L 628 4666 
z
" transform="scale(0.015625)"/>
      <path id="DejaVuSans-76" d="M 191 3500 
L 800 3500 
L 1894 563 
L 2988 3500 
L 3597 3500 
L 2284 0 
L 1503 0 
L 191 3500 
z
" transform="scale(0.015625)"/>
      <path id="DejaVuSans-28" d="M 1984 4856 
Q 1566 4138 1362 3434 
Q 1159 2731 1159 2009 
Q 1159 1288 1364 580 
Q 1569 -128 1984 -844 
L 1484 -844 
Q 1016 -109 783 600 
Q 550 1309 550 2009 
Q 550 2706 781 3412 
Q 1013 4119 1484 4856 
L 1984 4856 
z
" transform="scale(0.015625)"/>
      <path id="DejaVuSans-3d" d="M 678 2906 
L 4684 2906 
L 4684 2381 
L 678 2381 
L 678 2906 
z
M 678 1631 
L 4684 1631 
L 4684 1100 
L 678 1100 
L 678 1631 
z
" transform="scale(0.015625)"/>
      <path id="DejaVuSans-29" d="M 513 4856 
L 1013 4856 
Q 1481 4119 1714 3412 
Q 1947 2706 1947 2009 
Q 1947 1309 1714 600 
Q 1481 -109 1013 -844 
L 513 -844 
Q 928 -128 1133 580 
Q 1338 1288 1338 2009 
Q 1338 2731 1133 3434 
Q 928 4138 513 4856 
z
" transform="scale(0.015625)"/>
     </defs>
     <use xlink:href="#DejaVuSans-4e"/>
     <use xlink:href="#DejaVuSans-6f" x="74.804688"/>
     <use xlink:href="#DejaVuSans-76" x="135.986328"/>
     <use xlink:href="#DejaVuSans-20" x="195.166016"/>
     <use xlink:href="#DejaVuSans-28" x="226.953125"/>
     <use xlink:href="#DejaVuSans-72" x="265.966797"/>
     <use xlink:href="#DejaVuSans-20" x="307.080078"/>
     <use xlink:href="#DejaVuSans-3d" x="338.867188"/>
     <use xlink:href="#DejaVuSans-20" x="422.65625"/>
     <use xlink:href="#DejaVuSans-31" x="454.443359"/>
     <use xlink:href="#DejaVuSans-30" x="518.066406"/>
     <use xlink:href="#DejaVuSans-29" x="581.689453"/>
    </g>
   </g>
   <g id="legend_1">
    <g id="patch_41">
     <path d="M 304.629687 138.919469 
L 435.563156 138.919469 
Q 437.943156 138.919469 437.943156 136.539469 
L 437.943156 32.927656 
Q 437.943156 30.547656 435.563156 30.547656 
L 304.629687 30.547656 
Q 302.249687 30.547656 302.249687 32.927656 
L 302.249687 136.539469 
Q 302.249687 138.919469 304.629687 138.919469 
z
" style="fill: #ffffff; opacity: 0.8; stroke: #cccccc; stroke-linejoin: miter"/>
    </g>
    <g id="patch_42">
     <path d="M 307.009687 44.349797 
L 330.809687 44.349797 
L 330.809687 36.019797 
L 307.009687 36.019797 
z
" style="fill: #1f77b4"/>
    </g>
    <g id="text_12">
     <!-- downtown -->
     <g transform="translate(340.329687 44.349797)scale(0.119 -0.119)">
      <defs>
       <path id="DejaVuSans-64" d="M 2906 2969 
L 2906 4863 
L 3481 4863 
L 3481 0 
L 2906 0 
L 2906 525 
Q 2725 213 2448 61 
Q 2172 -91 1784 -91 
Q 1150 -91 751 415 
Q 353 922 353 1747 
Q 353 2572 751 3078 
Q 1150 3584 1784 3584 
Q 2172 3584 2448 3432 
Q 2725 3281 2906 2969 
z
M 947 1747 
Q 947 1113 1208 752 
Q 1469 391 1925 391 
Q 2381 391 2643 752 
Q 2906 1113 2906 1747 
Q 2906 2381 2643 2742 
Q 2381 3103 1925 3103 
Q 1469 3103 1208 2742 
Q 947 2381 947 1747 
z
" transform="scale(0.015625)"/>
       <path id="DejaVuSans-77" d="M 269 3500 
L 844 3500 
L 1563 769 
L 2278 3500 
L 2956 3500 
L 3675 769 
L 4391 3500 
L 4966 3500 
L 4050 0 
L 3372 0 
L 2619 2869 
L 1863 0 
L 1184 0 
L 269 3500 
z
" transform="scale(0.015625)"/>
      </defs>
      <use xlink:href="#DejaVuSans-64"/>
      <use xlink:href="#DejaVuSans-6f" x="63.476562"/>
      <use xlink:href="#DejaVuSans-77" x="124.658203"/>
      <use xlink:href="#DejaVuSans-6e" x="206.445312"/>
      <use xlink:href="#DejaVuSans-74" x="269.824219"/>
      <use xlink:href="#DejaVuSans-6f" x="309.033203"/>
      <use xlink:href="#DejaVuSans-77" x="370.214844"/>
      <use xlink:href="#DejaVuSans-6e" x="452.001953"/>
     </g>
    </g>
    <g id="patch_43">
     <path d="M 307.009687 61.816766 
L 330.809687 61.816766 
L 330.809687 53.486766 
L 307.009687 53.486766 
z
" style="fill: #ff7f0e"/>
    </g>
    <g id="text_13">
     <!-- suburban -->
     <g transform="translate(340.329687 61.816766)scale(0.119 -0.119)">
      <defs>
       <path id="DejaVuSans-62" d="M 3116 1747 
Q 3116 2381 2855 2742 
Q 2594 3103 2138 3103 
Q 1681 3103 1420 2742 
Q 1159 2381 1159 1747 
Q 1159 1113 1420 752 
Q 1681 391 2138 391 
Q 2594 391 2855 752 
Q 3116 1113 3116 1747 
z
M 1159 2969 
Q 1341 3281 1617 3432 
Q 1894 3584 2278 3584 
Q 2916 3584 3314 3078 
Q 3713 2572 3713 1747 
Q 3713 922 3314 415 
Q 2916 -91 2278 -91 
Q 1894 -91 1617 61 
Q 1341 213 1159 525 
L 1159 0 
L 581 0 
L 581 4863 
L 1159 4863 
L 1159 2969 
z
" transform="scale(0.015625)"/>
       <path id="DejaVuSans-61" d="M 2194 1759 
Q 1497 1759 1228 1600 
Q 959 1441 959 1056 
Q 959 750 1161 570 
Q 1363 391 1709 391 
Q 2188 391 2477 730 
Q 2766 1069 2766 1631 
L 2766 1759 
L 2194 1759 
z
M 3341 1997 
L 3341 0 
L 2766 0 
L 2766 531 
Q 2569 213 2275 61 
Q 1981 -91 1556 -91 
Q 1019 -91 701 211 
Q 384 513 384 1019 
Q 384 1609 779 1909 
Q 1175 2209 1959 2209 
L 2766 2209 
L 2766 2266 
Q 2766 2663 2505 2880 
Q 2244 3097 1772 3097 
Q 1472 3097 1187 3025 
Q 903 2953 641 2809 
L 641 3341 
Q 956 3463 1253 3523 
Q 1550 3584 1831 3584 
Q 2591 3584 2966 3190 
Q 3341 2797 3341 1997 
z
" transform="scale(0.015625)"/>
      </defs>
      <use xlink:href="#DejaVuSans-73"/>
      <use xlink:href="#DejaVuSans-75" x="52.099609"/>
      <use xlink:href="#DejaVuSans-62" x="115.478516"/>
      <use xlink:href="#DejaVuSans-75" x="178.955078"/>
      <use xlink:href="#DejaVuSans-72" x="242.333984"/>
      <use xlink:href="#DejaVuSans-62" x="283.447266"/>
      <use xlink:href="#DejaVuSans-61" x="346.923828"/>
      <use xlink:href="#DejaVuSans-6e" x="408.203125"/>
     </g>
    </g>
    <g id="patch_44">
     <path d="M 307.009687 79.283734 
L 330.809687 79.283734 
L 330.809687 70.953734 
L 307.009687 70.953734 
z
" style="fill: #2ca02c"/>
    </g>
    <g id="text_14">
     <!-- northwest rural -->
     <g transform="translate(340.329687 79.283734)scale(0.119 -0.119)">
      <defs>
       <path id="DejaVuSans-68" d="M 3513 2113 
L 3513 0 
L 2938 0 
L 2938 2094 
Q 2938 2591 2744 2837 
Q 2550 3084 2163 3084 
Q 1697 3084 1428 2787 
Q 1159 2491 1159 1978 
L 1159 0 
L 581 0 
L 581 4863 
L 1159 4863 
L 1159 2956 
Q 1366 3272 1645 3428 
Q 1925 3584 2291 3584 
Q 2894 3584 3203 3211 
Q 3513 2838 3513 2113 
z
" transform="scale(0.015625)"/>
       <path id="DejaVuSans-6c" d="M 603 4863 
L 1178 4863 
L 1178 0 
L 603 0 
L 603 4863 
z
" transform="scale(0.015625)"/>
      </defs>
      <use xlink:href="#DejaVuSans-6e"/>
      <use xlink:href="#DejaVuSans-6f" x="63.378906"/>
      <use xlink:href="#DejaVuSans-72" x="124.560547"/>
      <use xlink:href="#DejaVuSans-74" x="165.673828"/>
      <use xlink:href="#DejaVuSans-68" x="204.882812"/>
      <use xlink:href="#DejaVuSans-77" x="268.261719"/>
      <use xlink:href="#DejaVuSans-65" x="350.048828"/>
      <use xlink:href="#DejaVuSans-73" x="411.572266"/>
      <use xlink:href="#DejaVuSans-74" x="463.671875"/>
      <use xlink:href="#DejaVuSans-20" x="502.880859"/>
      <use xlink:href="#DejaVuSans-72" x="534.667969"/>
      <use xlink:href="#DejaVuSans-75" x="575.78125"/>
      <use xlink:href="#DejaVuSans-72" x="639.160156"/>
      <use xlink:href="#DejaVuSans-61" x="680.273438"/>
      <use xlink:href="#DejaVuSans-6c" x="741.552734"/>
     </g>
    </g>
    <g id="patch_45">
     <path d="M 307.009687 96.750703 
L 330.809687 96.750703 
L 330.809687 88.420703 
L 307.009687 88.420703 
z
" style="fill: #d62728"/>
    </g>
    <g id="text_15">
     <!-- northeast rural -->
     <g transform="translate(340.329687 96.750703)scale(0.119 -0.119)">
      <use xlink:href="#DejaVuSans-6e"/>
      <use xlink:href="#DejaVuSans-6f" x="63.378906"/>
      <use xlink:href="#DejaVuSans-72" x="124.560547"/>
      <use xlink:href="#DejaVuSans-74" x="165.673828"/>
      <use xlink:href="#DejaVuSans-68" x="204.882812"/>
      <use xlink:href="#DejaVuSans-65" x="268.261719"/>
      <use xlink:href="#DejaVuSans-61" x="329.785156"/>
      <use xlink:href="#DejaVuSans-73" x="391.064453"/>
      <use xlink:href="#DejaVuSans-74" x="443.164062"/>
      <use xlink:href="#DejaVuSans-20" x="482.373047"/>
      <use xlink:href="#DejaVuSans-72" x="514.160156"/>
      <use xlink:href="#DejaVuSans-75" x="555.273438"/>
      <use xlink:href="#DejaVuSans-72" x="618.652344"/>
      <use xlink:href="#DejaVuSans-61" x="659.765625"/>
      <use xlink:href="#DejaVuSans-6c" x="721.044922"/>
     </g>
    </g>
    <g id="patch_46">
     <path d="M 307.009687 114.217672 
L 330.809687 114.217672 
L 330.809687 105.887672 
L 307.009687 105.887672 
z
" style="fill: #9467bd"/>
    </g>
    <g id="text_16">
     <!-- southwest rural -->
     <g transform="translate(340.329687 114.217672)scale(0.119 -0.119)">
      <use xlink:href="#DejaVuSans-73"/>
      <use xlink:href="#DejaVuSans-6f" x="52.099609"/>
      <use xlink:href="#DejaVuSans-75" x="113.28125"/>
      <use xlink:href="#DejaVuSans-74" x="176.660156"/>
      <use xlink:href="#DejaVuSans-68" x="215.869141"/>
      <use xlink:href="#DejaVuSans-77" x="279.248047"/>
      <use xlink:href="#DejaVuSans-65" x="361.035156"/>
      <use xlink:href="#DejaVuSans-73" x="422.558594"/>
      <use xlink:href="#DejaVuSans-74" x="474.658203"/>
      <use xlink:href="#DejaVuSans-20" x="513.867188"/>
      <use xlink:href="#DejaVuSans-72" x="545.654297"/>
      <use xlink:href="#DejaVuSans-75" x="586.767578"/>
      <use xlink:href="#DejaVuSans-72" x="650.146484"/>
      <use xlink:href="#DejaVuSans-61" x="691.259766"/>
      <use xlink:href="#DejaVuSans-6c" x="752.539062"/>
     </g>
    </g>
    <g id="patch_47">
     <path d="M 307.009687 131.684641 
L 330.809687 131.684641 
L 330.809687 123.354641 
L 307.009687 123.354641 
z
" style="fill: #8c564b"/>
    </g>
    <g id="text_17">
     <!-- southeast rural -->
     <g transform="translate(340.329687 131.684641)scale(0.119 -0.119)">
      <use xlink:href="#DejaVuSans-73"/>
      <use xlink:href="#DejaVuSans-6f" x="52.099609"/>
      <use xlink:href="#DejaVuSans-75" x="113.28125"/>
      <use xlink:href="#DejaVuSans-74" x="176.660156"/>
      <use xlink:href="#DejaVuSans-68" x="215.869141"/>
      <use xlink:href="#DejaVuSans-65" x="279.248047"/>
      <use xlink:href="#DejaVuSans-61" x="340.771484"/>
      <use xlink:href="#DejaVuSans-73" x="402.050781"/>
      <use xlink:href="#DejaVuSans-74" x="454.150391"/>
      <use xlink:href="#DejaVuSans-20" x="493.359375"/>
      <use xlink:href="#DejaVuSans-72" x="525.146484"/>
      <use xlink:href="#DejaVuSans-75" x="566.259766"/>
      <use xlink:href="#DejaVuSans-72" x="629.638672"/>
      <use xlink:href="#DejaVuSans-61" x="670.751953"/>
      <use xlink:href="#DejaVuSans-6c" x="732.03125"/>
     </g>
    </g>
   </g>
  </g>
 </g>
 <defs>
  <clipPath id="p9c67e65efc">
   <rect x="61.939688" y="24.597656" width="223.2" height="163.08"/>
  </clipPath>
 </defs>
</svg>
