<?xml version="1.0" encoding="utf-8" standalone="no"?>
<!DOCTYPE svg PUBLIC "-//W3C//DTD SVG 1.1//EN"
  "http://www.w3.org/Graphics/SVG/1.1/DTD/svg11.dtd">
<svg xmlns:xlink="http://www.w3.org/1999/xlink" width="449.592531pt" height="238.86375pt" viewBox="0 0 449.592531 238.86375" xmlns="http://www.w3.org/2000/svg" version="1.1">
 <metadata>
  <rdf:RDF xmlns:dc="http://purl.org/dc/elements/1.1/" xmlns:cc="http://creativecommons.org/ns#" xmlns:rdf="http://www.w3.org/1999/02/22-rdf-syntax-ns#">
   <cc:Work>
    <dc:type rdf:resource="http://purl.org/dc/dcmitype/StillImage"/>
    <dc:date>2022-01-20T11:38:52.209787</dc:date>
    <dc:format>image/svg+xml</dc:format>
    <dc:creator>
     <cc:Agent>
      <dc:title>Matplotlib v3.4.3, https://matplotlib.org/</dc:title>
     </cc:Agent>
    </dc:creator>
   </cc:Work>
  </rdf:RDF>
 </metadata>
 <defs>
  <style type="text/css">*{stroke-linejoin: round; stroke-linecap: butt}</style>
 </defs>
 <g id="figure_1">
  <g id="patch_1">
   <path d="M 0 238.86375 
L 449.592531 238.86375 
L 449.592531 0 
L 0 0 
z
" style="fill: none"/>
  </g>
  <g id="axes_1">
   <g id="patch_2">
    <path d="M 66.389062 187.677656 
L 289.589063 187.677656 
L 289.589063 24.597656 
L 66.389062 24.597656 
z
" style="fill: #ffffff"/>
   </g>
   <g id="matplotlib.axis_1">
    <g id="xtick_1">
     <g id="line2d_1">
      <path d="M 78.935808 187.677656 
L 78.935808 24.597656 
" clip-path="url(#p58cccce536)" style="fill: none; stroke: #b0b0b0; stroke-width: 0.8; stroke-linecap: square"/>
     </g>
     <g id="line2d_2">
      <defs>
       <path id="m850cd75603" d="M 0 0 
L 0 6 
" style="stroke: #000000; stroke-width: 2"/>
      </defs>
      <g>
       <use xlink:href="#m850cd75603" x="78.935808" y="187.677656" style="stroke: #000000; stroke-width: 2"/>
      </g>
     </g>
     <g id="text_1">
      <!-- 0 -->
      <g transform="translate(74.482058 207.815469)scale(0.14 -0.14)">
       <defs>
        <path id="DejaVuSans-30" d="M 2034 4250 
Q 1547 4250 1301 3770 
Q 1056 3291 1056 2328 
Q 1056 1369 1301 889 
Q 1547 409 2034 409 
Q 2525 409 2770 889 
Q 3016 1369 3016 2328 
Q 3016 3291 2770 3770 
Q 2525 4250 2034 4250 
z
M 2034 4750 
Q 2819 4750 3233 4129 
Q 3647 3509 3647 2328 
Q 3647 1150 3233 529 
Q 2819 -91 2034 -91 
Q 1250 -91 836 529 
Q 422 1150 422 2328 
Q 422 3509 836 4129 
Q 1250 4750 2034 4750 
z
" transform="scale(0.015625)"/>
       </defs>
       <use xlink:href="#DejaVuSans-30"/>
      </g>
     </g>
    </g>
    <g id="xtick_2">
     <g id="line2d_3">
      <path d="M 138.968083 187.677656 
L 138.968083 24.597656 
" clip-path="url(#p58cccce536)" style="fill: none; stroke: #b0b0b0; stroke-width: 0.8; stroke-linecap: square"/>
     </g>
     <g id="line2d_4">
      <g>
       <use xlink:href="#m850cd75603" x="138.968083" y="187.677656" style="stroke: #000000; stroke-width: 2"/>
      </g>
     </g>
     <g id="text_2">
      <!-- 10 -->
      <g transform="translate(130.060583 207.815469)scale(0.14 -0.14)">
       <defs>
        <path id="DejaVuSans-31" d="M 794 531 
L 1825 531 
L 1825 4091 
L 703 3866 
L 703 4441 
L 1819 4666 
L 2450 4666 
L 2450 531 
L 3481 531 
L 3481 0 
L 794 0 
L 794 531 
z
" transform="scale(0.015625)"/>
       </defs>
       <use xlink:href="#DejaVuSans-31"/>
       <use xlink:href="#DejaVuSans-30" x="63.623047"/>
      </g>
     </g>
    </g>
    <g id="xtick_3">
     <g id="line2d_5">
      <path d="M 199.000359 187.677656 
L 199.000359 24.597656 
" clip-path="url(#p58cccce536)" style="fill: none; stroke: #b0b0b0; stroke-width: 0.8; stroke-linecap: square"/>
     </g>
     <g id="line2d_6">
      <g>
       <use xlink:href="#m850cd75603" x="199.000359" y="187.677656" style="stroke: #000000; stroke-width: 2"/>
      </g>
     </g>
     <g id="text_3">
      <!-- 20 -->
      <g transform="translate(190.092859 207.815469)scale(0.14 -0.14)">
       <defs>
        <path id="DejaVuSans-32" d="M 1228 531 
L 3431 531 
L 3431 0 
L 469 0 
L 469 531 
Q 828 903 1448 1529 
Q 2069 2156 2228 2338 
Q 2531 2678 2651 2914 
Q 2772 3150 2772 3378 
Q 2772 3750 2511 3984 
Q 2250 4219 1831 4219 
Q 1534 4219 1204 4116 
Q 875 4013 500 3803 
L 500 4441 
Q 881 4594 1212 4672 
Q 1544 4750 1819 4750 
Q 2544 4750 2975 4387 
Q 3406 4025 3406 3419 
Q 3406 3131 3298 2873 
Q 3191 2616 2906 2266 
Q 2828 2175 2409 1742 
Q 1991 1309 1228 531 
z
" transform="scale(0.015625)"/>
       </defs>
       <use xlink:href="#DejaVuSans-32"/>
       <use xlink:href="#DejaVuSans-30" x="63.623047"/>
      </g>
     </g>
    </g>
    <g id="xtick_4">
     <g id="line2d_7">
      <path d="M 259.032634 187.677656 
L 259.032634 24.597656 
" clip-path="url(#p58cccce536)" style="fill: none; stroke: #b0b0b0; stroke-width: 0.8; stroke-linecap: square"/>
     </g>
     <g id="line2d_8">
      <g>
       <use xlink:href="#m850cd75603" x="259.032634" y="187.677656" style="stroke: #000000; stroke-width: 2"/>
      </g>
     </g>
     <g id="text_4">
      <!-- 30 -->
      <g transform="translate(250.125134 207.815469)scale(0.14 -0.14)">
       <defs>
        <path id="DejaVuSans-33" d="M 2597 2516 
Q 3050 2419 3304 2112 
Q 3559 1806 3559 1356 
Q 3559 666 3084 287 
Q 2609 -91 1734 -91 
Q 1441 -91 1130 -33 
Q 819 25 488 141 
L 488 750 
Q 750 597 1062 519 
Q 1375 441 1716 441 
Q 2309 441 2620 675 
Q 2931 909 2931 1356 
Q 2931 1769 2642 2001 
Q 2353 2234 1838 2234 
L 1294 2234 
L 1294 2753 
L 1863 2753 
Q 2328 2753 2575 2939 
Q 2822 3125 2822 3475 
Q 2822 3834 2567 4026 
Q 2313 4219 1838 4219 
Q 1578 4219 1281 4162 
Q 984 4106 628 3988 
L 628 4550 
Q 988 4650 1302 4700 
Q 1616 4750 1894 4750 
Q 2613 4750 3031 4423 
Q 3450 4097 3450 3541 
Q 3450 3153 3228 2886 
Q 3006 2619 2597 2516 
z
" transform="scale(0.015625)"/>
       </defs>
       <use xlink:href="#DejaVuSans-33"/>
       <use xlink:href="#DejaVuSans-30" x="63.623047"/>
      </g>
     </g>
    </g>
    <g id="xtick_5">
     <g id="line2d_9">
      <defs>
       <path id="m85daa316e4" d="M 0 0 
L 0 3 
" style="stroke: #000000; stroke-width: 2"/>
      </defs>
      <g>
       <use xlink:href="#m85daa316e4" x="66.929353" y="187.677656" style="stroke: #000000; stroke-width: 2"/>
      </g>
     </g>
    </g>
    <g id="xtick_6">
     <g id="line2d_10">
      <g>
       <use xlink:href="#m85daa316e4" x="90.942263" y="187.677656" style="stroke: #000000; stroke-width: 2"/>
      </g>
     </g>
    </g>
    <g id="xtick_7">
     <g id="line2d_11">
      <g>
       <use xlink:href="#m85daa316e4" x="102.948718" y="187.677656" style="stroke: #000000; stroke-width: 2"/>
      </g>
     </g>
    </g>
    <g id="xtick_8">
     <g id="line2d_12">
      <g>
       <use xlink:href="#m85daa316e4" x="114.955173" y="187.677656" style="stroke: #000000; stroke-width: 2"/>
      </g>
     </g>
    </g>
    <g id="xtick_9">
     <g id="line2d_13">
      <g>
       <use xlink:href="#m85daa316e4" x="126.961628" y="187.677656" style="stroke: #000000; stroke-width: 2"/>
      </g>
     </g>
    </g>
    <g id="xtick_10">
     <g id="line2d_14">
      <g>
       <use xlink:href="#m85daa316e4" x="150.974539" y="187.677656" style="stroke: #000000; stroke-width: 2"/>
      </g>
     </g>
    </g>
    <g id="xtick_11">
     <g id="line2d_15">
      <g>
       <use xlink:href="#m85daa316e4" x="162.980994" y="187.677656" style="stroke: #000000; stroke-width: 2"/>
      </g>
     </g>
    </g>
    <g id="xtick_12">
     <g id="line2d_16">
      <g>
       <use xlink:href="#m85daa316e4" x="174.987449" y="187.677656" style="stroke: #000000; stroke-width: 2"/>
      </g>
     </g>
    </g>
    <g id="xtick_13">
     <g id="line2d_17">
      <g>
       <use xlink:href="#m85daa316e4" x="186.993904" y="187.677656" style="stroke: #000000; stroke-width: 2"/>
      </g>
     </g>
    </g>
    <g id="xtick_14">
     <g id="line2d_18">
      <g>
       <use xlink:href="#m85daa316e4" x="211.006814" y="187.677656" style="stroke: #000000; stroke-width: 2"/>
      </g>
     </g>
    </g>
    <g id="xtick_15">
     <g id="line2d_19">
      <g>
       <use xlink:href="#m85daa316e4" x="223.013269" y="187.677656" style="stroke: #000000; stroke-width: 2"/>
      </g>
     </g>
    </g>
    <g id="xtick_16">
     <g id="line2d_20">
      <g>
       <use xlink:href="#m85daa316e4" x="235.019724" y="187.677656" style="stroke: #000000; stroke-width: 2"/>
      </g>
     </g>
    </g>
    <g id="xtick_17">
     <g id="line2d_21">
      <g>
       <use xlink:href="#m85daa316e4" x="247.026179" y="187.677656" style="stroke: #000000; stroke-width: 2"/>
      </g>
     </g>
    </g>
    <g id="xtick_18">
     <g id="line2d_22">
      <g>
       <use xlink:href="#m85daa316e4" x="271.039089" y="187.677656" style="stroke: #000000; stroke-width: 2"/>
      </g>
     </g>
    </g>
    <g id="xtick_19">
     <g id="line2d_23">
      <g>
       <use xlink:href="#m85daa316e4" x="283.045544" y="187.677656" style="stroke: #000000; stroke-width: 2"/>
      </g>
     </g>
    </g>
    <g id="text_5">
     <!-- Sites -->
     <g transform="translate(156.630859 228.024297)scale(0.175 -0.175)">
      <defs>
       <path id="DejaVuSans-53" d="M 3425 4513 
L 3425 3897 
Q 3066 4069 2747 4153 
Q 2428 4238 2131 4238 
Q 1616 4238 1336 4038 
Q 1056 3838 1056 3469 
Q 1056 3159 1242 3001 
Q 1428 2844 1947 2747 
L 2328 2669 
Q 3034 2534 3370 2195 
Q 3706 1856 3706 1288 
Q 3706 609 3251 259 
Q 2797 -91 1919 -91 
Q 1588 -91 1214 -16 
Q 841 59 441 206 
L 441 856 
Q 825 641 1194 531 
Q 1563 422 1919 422 
Q 2459 422 2753 634 
Q 3047 847 3047 1241 
Q 3047 1584 2836 1778 
Q 2625 1972 2144 2069 
L 1759 2144 
Q 1053 2284 737 2584 
Q 422 2884 422 3419 
Q 422 4038 858 4394 
Q 1294 4750 2059 4750 
Q 2388 4750 2728 4690 
Q 3069 4631 3425 4513 
z
" transform="scale(0.015625)"/>
       <path id="DejaVuSans-69" d="M 603 3500 
L 1178 3500 
L 1178 0 
L 603 0 
L 603 3500 
z
M 603 4863 
L 1178 4863 
L 1178 4134 
L 603 4134 
L 603 4863 
z
" transform="scale(0.015625)"/>
       <path id="DejaVuSans-74" d="M 1172 4494 
L 1172 3500 
L 2356 3500 
L 2356 3053 
L 1172 3053 
L 1172 1153 
Q 1172 725 1289 603 
Q 1406 481 1766 481 
L 2356 481 
L 2356 0 
L 1766 0 
Q 1100 0 847 248 
Q 594 497 594 1153 
L 594 3053 
L 172 3053 
L 172 3500 
L 594 3500 
L 594 4494 
L 1172 4494 
z
" transform="scale(0.015625)"/>
       <path id="DejaVuSans-65" d="M 3597 1894 
L 3597 1613 
L 953 1613 
Q 991 1019 1311 708 
Q 1631 397 2203 397 
Q 2534 397 2845 478 
Q 3156 559 3463 722 
L 3463 178 
Q 3153 47 2828 -22 
Q 2503 -91 2169 -91 
Q 1331 -91 842 396 
Q 353 884 353 1716 
Q 353 2575 817 3079 
Q 1281 3584 2069 3584 
Q 2775 3584 3186 3129 
Q 3597 2675 3597 1894 
z
M 3022 2063 
Q 3016 2534 2758 2815 
Q 2500 3097 2075 3097 
Q 1594 3097 1305 2825 
Q 1016 2553 972 2059 
L 3022 2063 
z
" transform="scale(0.015625)"/>
       <path id="DejaVuSans-73" d="M 2834 3397 
L 2834 2853 
Q 2591 2978 2328 3040 
Q 2066 3103 1784 3103 
Q 1356 3103 1142 2972 
Q 928 2841 928 2578 
Q 928 2378 1081 2264 
Q 1234 2150 1697 2047 
L 1894 2003 
Q 2506 1872 2764 1633 
Q 3022 1394 3022 966 
Q 3022 478 2636 193 
Q 2250 -91 1575 -91 
Q 1294 -91 989 -36 
Q 684 19 347 128 
L 347 722 
Q 666 556 975 473 
Q 1284 391 1588 391 
Q 1994 391 2212 530 
Q 2431 669 2431 922 
Q 2431 1156 2273 1281 
Q 2116 1406 1581 1522 
L 1381 1569 
Q 847 1681 609 1914 
Q 372 2147 372 2553 
Q 372 3047 722 3315 
Q 1072 3584 1716 3584 
Q 2034 3584 2315 3537 
Q 2597 3491 2834 3397 
z
" transform="scale(0.015625)"/>
      </defs>
      <use xlink:href="#DejaVuSans-53"/>
      <use xlink:href="#DejaVuSans-69" x="63.476562"/>
      <use xlink:href="#DejaVuSans-74" x="91.259766"/>
      <use xlink:href="#DejaVuSans-65" x="130.46875"/>
      <use xlink:href="#DejaVuSans-73" x="191.992188"/>
     </g>
    </g>
   </g>
   <g id="matplotlib.axis_2">
    <g id="ytick_1">
     <g id="line2d_24">
      <path d="M 66.389062 187.677656 
L 289.589063 187.677656 
" clip-path="url(#p58cccce536)" style="fill: none; stroke: #b0b0b0; stroke-width: 0.8; stroke-linecap: square"/>
     </g>
     <g id="line2d_25">
      <defs>
       <path id="m2f36975a96" d="M 0 0 
L -6 0 
" style="stroke: #000000; stroke-width: 2"/>
      </defs>
      <g>
       <use xlink:href="#m2f36975a96" x="66.389062" y="187.677656" style="stroke: #000000; stroke-width: 2"/>
      </g>
     </g>
     <g id="text_6">
      <!-- 0.00 -->
      <g transform="translate(25.717187 192.996563)scale(0.14 -0.14)">
       <defs>
        <path id="DejaVuSans-2e" d="M 684 794 
L 1344 794 
L 1344 0 
L 684 0 
L 684 794 
z
" transform="scale(0.015625)"/>
       </defs>
       <use xlink:href="#DejaVuSans-30"/>
       <use xlink:href="#DejaVuSans-2e" x="63.623047"/>
       <use xlink:href="#DejaVuSans-30" x="95.410156"/>
       <use xlink:href="#DejaVuSans-30" x="159.033203"/>
      </g>
     </g>
    </g>
    <g id="ytick_2">
     <g id="line2d_26">
      <path d="M 66.389062 142.280034 
L 289.589063 142.280034 
" clip-path="url(#p58cccce536)" style="fill: none; stroke: #b0b0b0; stroke-width: 0.8; stroke-linecap: square"/>
     </g>
     <g id="line2d_27">
      <g>
       <use xlink:href="#m2f36975a96" x="66.389062" y="142.280034" style="stroke: #000000; stroke-width: 2"/>
      </g>
     </g>
     <g id="text_7">
      <!-- 0.01 -->
      <g transform="translate(25.717187 147.59894)scale(0.14 -0.14)">
       <use xlink:href="#DejaVuSans-30"/>
       <use xlink:href="#DejaVuSans-2e" x="63.623047"/>
       <use xlink:href="#DejaVuSans-30" x="95.410156"/>
       <use xlink:href="#DejaVuSans-31" x="159.033203"/>
      </g>
     </g>
    </g>
    <g id="ytick_3">
     <g id="line2d_28">
      <path d="M 66.389062 96.882412 
L 289.589063 96.882412 
" clip-path="url(#p58cccce536)" style="fill: none; stroke: #b0b0b0; stroke-width: 0.8; stroke-linecap: square"/>
     </g>
     <g id="line2d_29">
      <g>
       <use xlink:href="#m2f36975a96" x="66.389062" y="96.882412" style="stroke: #000000; stroke-width: 2"/>
      </g>
     </g>
     <g id="text_8">
      <!-- 0.02 -->
      <g transform="translate(25.717187 102.201318)scale(0.14 -0.14)">
       <use xlink:href="#DejaVuSans-30"/>
       <use xlink:href="#DejaVuSans-2e" x="63.623047"/>
       <use xlink:href="#DejaVuSans-30" x="95.410156"/>
       <use xlink:href="#DejaVuSans-32" x="159.033203"/>
      </g>
     </g>
    </g>
    <g id="ytick_4">
     <g id="line2d_30">
      <path d="M 66.389062 51.48479 
L 289.589063 51.48479 
" clip-path="url(#p58cccce536)" style="fill: none; stroke: #b0b0b0; stroke-width: 0.8; stroke-linecap: square"/>
     </g>
     <g id="line2d_31">
      <g>
       <use xlink:href="#m2f36975a96" x="66.389062" y="51.48479" style="stroke: #000000; stroke-width: 2"/>
      </g>
     </g>
     <g id="text_9">
      <!-- 0.03 -->
      <g transform="translate(25.717187 56.803696)scale(0.14 -0.14)">
       <use xlink:href="#DejaVuSans-30"/>
       <use xlink:href="#DejaVuSans-2e" x="63.623047"/>
       <use xlink:href="#DejaVuSans-30" x="95.410156"/>
       <use xlink:href="#DejaVuSans-33" x="159.033203"/>
      </g>
     </g>
    </g>
    <g id="ytick_5">
     <g id="line2d_32">
      <defs>
       <path id="m374bea7249" d="M 0 0 
L -3 0 
" style="stroke: #000000; stroke-width: 2"/>
      </defs>
      <g>
       <use xlink:href="#m374bea7249" x="66.389062" y="178.598132" style="stroke: #000000; stroke-width: 2"/>
      </g>
     </g>
    </g>
    <g id="ytick_6">
     <g id="line2d_33">
      <g>
       <use xlink:href="#m374bea7249" x="66.389062" y="169.518607" style="stroke: #000000; stroke-width: 2"/>
      </g>
     </g>
    </g>
    <g id="ytick_7">
     <g id="line2d_34">
      <g>
       <use xlink:href="#m374bea7249" x="66.389062" y="160.439083" style="stroke: #000000; stroke-width: 2"/>
      </g>
     </g>
    </g>
    <g id="ytick_8">
     <g id="line2d_35">
      <g>
       <use xlink:href="#m374bea7249" x="66.389062" y="151.359559" style="stroke: #000000; stroke-width: 2"/>
      </g>
     </g>
    </g>
    <g id="ytick_9">
     <g id="line2d_36">
      <g>
       <use xlink:href="#m374bea7249" x="66.389062" y="133.20051" style="stroke: #000000; stroke-width: 2"/>
      </g>
     </g>
    </g>
    <g id="ytick_10">
     <g id="line2d_37">
      <g>
       <use xlink:href="#m374bea7249" x="66.389062" y="124.120985" style="stroke: #000000; stroke-width: 2"/>
      </g>
     </g>
    </g>
    <g id="ytick_11">
     <g id="line2d_38">
      <g>
       <use xlink:href="#m374bea7249" x="66.389062" y="115.041461" style="stroke: #000000; stroke-width: 2"/>
      </g>
     </g>
    </g>
    <g id="ytick_12">
     <g id="line2d_39">
      <g>
       <use xlink:href="#m374bea7249" x="66.389062" y="105.961937" style="stroke: #000000; stroke-width: 2"/>
      </g>
     </g>
    </g>
    <g id="ytick_13">
     <g id="line2d_40">
      <g>
       <use xlink:href="#m374bea7249" x="66.389062" y="87.802888" style="stroke: #000000; stroke-width: 2"/>
      </g>
     </g>
    </g>
    <g id="ytick_14">
     <g id="line2d_41">
      <g>
       <use xlink:href="#m374bea7249" x="66.389062" y="78.723363" style="stroke: #000000; stroke-width: 2"/>
      </g>
     </g>
    </g>
    <g id="ytick_15">
     <g id="line2d_42">
      <g>
       <use xlink:href="#m374bea7249" x="66.389062" y="69.643839" style="stroke: #000000; stroke-width: 2"/>
      </g>
     </g>
    </g>
    <g id="ytick_16">
     <g id="line2d_43">
      <g>
       <use xlink:href="#m374bea7249" x="66.389062" y="60.564314" style="stroke: #000000; stroke-width: 2"/>
      </g>
     </g>
    </g>
    <g id="ytick_17">
     <g id="line2d_44">
      <g>
       <use xlink:href="#m374bea7249" x="66.389062" y="42.405266" style="stroke: #000000; stroke-width: 2"/>
      </g>
     </g>
    </g>
    <g id="ytick_18">
     <g id="line2d_45">
      <g>
       <use xlink:href="#m374bea7249" x="66.389062" y="33.325741" style="stroke: #000000; stroke-width: 2"/>
      </g>
     </g>
    </g>
    <g id="text_10">
     <!-- Reconstruction Error -->
     <g transform="translate(18.597656 182.927109)rotate(-90)scale(0.15 -0.15)">
      <defs>
       <path id="DejaVuSans-52" d="M 2841 2188 
Q 3044 2119 3236 1894 
Q 3428 1669 3622 1275 
L 4263 0 
L 3584 0 
L 2988 1197 
Q 2756 1666 2539 1819 
Q 2322 1972 1947 1972 
L 1259 1972 
L 1259 0 
L 628 0 
L 628 4666 
L 2053 4666 
Q 2853 4666 3247 4331 
Q 3641 3997 3641 3322 
Q 3641 2881 3436 2590 
Q 3231 2300 2841 2188 
z
M 1259 4147 
L 1259 2491 
L 2053 2491 
Q 2509 2491 2742 2702 
Q 2975 2913 2975 3322 
Q 2975 3731 2742 3939 
Q 2509 4147 2053 4147 
L 1259 4147 
z
" transform="scale(0.015625)"/>
       <path id="DejaVuSans-63" d="M 3122 3366 
L 3122 2828 
Q 2878 2963 2633 3030 
Q 2388 3097 2138 3097 
Q 1578 3097 1268 2742 
Q 959 2388 959 1747 
Q 959 1106 1268 751 
Q 1578 397 2138 397 
Q 2388 397 2633 464 
Q 2878 531 3122 666 
L 3122 134 
Q 2881 22 2623 -34 
Q 2366 -91 2075 -91 
Q 1284 -91 818 406 
Q 353 903 353 1747 
Q 353 2603 823 3093 
Q 1294 3584 2113 3584 
Q 2378 3584 2631 3529 
Q 2884 3475 3122 3366 
z
" transform="scale(0.015625)"/>
       <path id="DejaVuSans-6f" d="M 1959 3097 
Q 1497 3097 1228 2736 
Q 959 2375 959 1747 
Q 959 1119 1226 758 
Q 1494 397 1959 397 
Q 2419 397 2687 759 
Q 2956 1122 2956 1747 
Q 2956 2369 2687 2733 
Q 2419 3097 1959 3097 
z
M 1959 3584 
Q 2709 3584 3137 3096 
Q 3566 2609 3566 1747 
Q 3566 888 3137 398 
Q 2709 -91 1959 -91 
Q 1206 -91 779 398 
Q 353 888 353 1747 
Q 353 2609 779 3096 
Q 1206 3584 1959 3584 
z
" transform="scale(0.015625)"/>
       <path id="DejaVuSans-6e" d="M 3513 2113 
L 3513 0 
L 2938 0 
L 2938 2094 
Q 2938 2591 2744 2837 
Q 2550 3084 2163 3084 
Q 1697 3084 1428 2787 
Q 1159 2491 1159 1978 
L 1159 0 
L 581 0 
L 581 3500 
L 1159 3500 
L 1159 2956 
Q 1366 3272 1645 3428 
Q 1925 3584 2291 3584 
Q 2894 3584 3203 3211 
Q 3513 2838 3513 2113 
z
" transform="scale(0.015625)"/>
       <path id="DejaVuSans-72" d="M 2631 2963 
Q 2534 3019 2420 3045 
Q 2306 3072 2169 3072 
Q 1681 3072 1420 2755 
Q 1159 2438 1159 1844 
L 1159 0 
L 581 0 
L 581 3500 
L 1159 3500 
L 1159 2956 
Q 1341 3275 1631 3429 
Q 1922 3584 2338 3584 
Q 2397 3584 2469 3576 
Q 2541 3569 2628 3553 
L 2631 2963 
z
" transform="scale(0.015625)"/>
       <path id="DejaVuSans-75" d="M 544 1381 
L 544 3500 
L 1119 3500 
L 1119 1403 
Q 1119 906 1312 657 
Q 1506 409 1894 409 
Q 2359 409 2629 706 
Q 2900 1003 2900 1516 
L 2900 3500 
L 3475 3500 
L 3475 0 
L 2900 0 
L 2900 538 
Q 2691 219 2414 64 
Q 2138 -91 1772 -91 
Q 1169 -91 856 284 
Q 544 659 544 1381 
z
M 1991 3584 
L 1991 3584 
z
" transform="scale(0.015625)"/>
       <path id="DejaVuSans-20" transform="scale(0.015625)"/>
       <path id="DejaVuSans-45" d="M 628 4666 
L 3578 4666 
L 3578 4134 
L 1259 4134 
L 1259 2753 
L 3481 2753 
L 3481 2222 
L 1259 2222 
L 1259 531 
L 3634 531 
L 3634 0 
L 628 0 
L 628 4666 
z
" transform="scale(0.015625)"/>
      </defs>
      <use xlink:href="#DejaVuSans-52"/>
      <use xlink:href="#DejaVuSans-65" x="64.982422"/>
      <use xlink:href="#DejaVuSans-63" x="126.505859"/>
      <use xlink:href="#DejaVuSans-6f" x="181.486328"/>
      <use xlink:href="#DejaVuSans-6e" x="242.667969"/>
      <use xlink:href="#DejaVuSans-73" x="306.046875"/>
      <use xlink:href="#DejaVuSans-74" x="358.146484"/>
      <use xlink:href="#DejaVuSans-72" x="397.355469"/>
      <use xlink:href="#DejaVuSans-75" x="438.46875"/>
      <use xlink:href="#DejaVuSans-63" x="501.847656"/>
      <use xlink:href="#DejaVuSans-74" x="556.828125"/>
      <use xlink:href="#DejaVuSans-69" x="596.037109"/>
      <use xlink:href="#DejaVuSans-6f" x="623.820312"/>
      <use xlink:href="#DejaVuSans-6e" x="685.001953"/>
      <use xlink:href="#DejaVuSans-20" x="748.380859"/>
      <use xlink:href="#DejaVuSans-45" x="780.167969"/>
      <use xlink:href="#DejaVuSans-72" x="843.351562"/>
      <use xlink:href="#DejaVuSans-72" x="882.714844"/>
      <use xlink:href="#DejaVuSans-6f" x="921.578125"/>
      <use xlink:href="#DejaVuSans-72" x="982.759766"/>
     </g>
    </g>
   </g>
   <g id="patch_3">
    <path d="M 76.534517 187.677656 
L 81.337099 187.677656 
L 81.337099 104.256106 
L 76.534517 104.256106 
z
" clip-path="url(#p58cccce536)" style="fill: #1f77b4"/>
   </g>
   <g id="patch_4">
    <path d="M 82.537745 187.677656 
L 87.340327 187.677656 
L 87.340327 72.862306 
L 82.537745 72.862306 
z
" clip-path="url(#p58cccce536)" style="fill: #1f77b4"/>
   </g>
   <g id="patch_5">
    <path d="M 88.540972 187.677656 
L 93.343554 187.677656 
L 93.343554 68.351798 
L 88.540972 68.351798 
z
" clip-path="url(#p58cccce536)" style="fill: #1f77b4"/>
   </g>
   <g id="patch_6">
    <path d="M 94.5442 187.677656 
L 99.346782 187.677656 
L 99.346782 63.305484 
L 94.5442 63.305484 
z
" clip-path="url(#p58cccce536)" style="fill: #1f77b4"/>
   </g>
   <g id="patch_7">
    <path d="M 100.547427 187.677656 
L 105.350009 187.677656 
L 105.350009 43.585512 
L 100.547427 43.585512 
z
" clip-path="url(#p58cccce536)" style="fill: #1f77b4"/>
   </g>
   <g id="patch_8">
    <path d="M 106.550655 187.677656 
L 111.353237 187.677656 
L 111.353237 47.012226 
L 106.550655 47.012226 
z
" clip-path="url(#p58cccce536)" style="fill: #1f77b4"/>
   </g>
   <g id="patch_9">
    <path d="M 112.553882 187.677656 
L 117.356464 187.677656 
L 117.356464 48.111859 
L 112.553882 48.111859 
z
" clip-path="url(#p58cccce536)" style="fill: #1f77b4"/>
   </g>
   <g id="patch_10">
    <path d="M 118.55711 187.677656 
L 123.359692 187.677656 
L 123.359692 58.686825 
L 118.55711 58.686825 
z
" clip-path="url(#p58cccce536)" style="fill: #1f77b4"/>
   </g>
   <g id="patch_11">
    <path d="M 124.560337 187.677656 
L 129.362919 187.677656 
L 129.362919 50.027339 
L 124.560337 50.027339 
z
" clip-path="url(#p58cccce536)" style="fill: #1f77b4"/>
   </g>
   <g id="patch_12">
    <path d="M 130.563565 187.677656 
L 135.366147 187.677656 
L 135.366147 70.622683 
L 130.563565 70.622683 
z
" clip-path="url(#p58cccce536)" style="fill: #1f77b4"/>
   </g>
   <g id="patch_13">
    <path d="M 136.566792 187.677656 
L 141.369374 187.677656 
L 141.369374 75.581531 
L 136.566792 75.581531 
z
" clip-path="url(#p58cccce536)" style="fill: #1f77b4"/>
   </g>
   <g id="patch_14">
    <path d="M 142.57002 187.677656 
L 147.372602 187.677656 
L 147.372602 69.092828 
L 142.57002 69.092828 
z
" clip-path="url(#p58cccce536)" style="fill: #1f77b4"/>
   </g>
   <g id="patch_15">
    <path d="M 148.573248 187.677656 
L 153.37583 187.677656 
L 153.37583 80.859164 
L 148.573248 80.859164 
z
" clip-path="url(#p58cccce536)" style="fill: #1f77b4"/>
   </g>
   <g id="patch_16">
    <path d="M 154.576475 187.677656 
L 159.379057 187.677656 
L 159.379057 72.554015 
L 154.576475 72.554015 
z
" clip-path="url(#p58cccce536)" style="fill: #ff7f0e"/>
   </g>
   <g id="patch_17">
    <path d="M 160.579703 187.677656 
L 165.382285 187.677656 
L 165.382285 59.243813 
L 160.579703 59.243813 
z
" clip-path="url(#p58cccce536)" style="fill: #ff7f0e"/>
   </g>
   <g id="patch_18">
    <path d="M 166.58293 187.677656 
L 171.385512 187.677656 
L 171.385512 69.556603 
L 166.58293 69.556603 
z
" clip-path="url(#p58cccce536)" style="fill: #ff7f0e"/>
   </g>
   <g id="patch_19">
    <path d="M 172.586158 187.677656 
L 177.38874 187.677656 
L 177.38874 79.139193 
L 172.586158 79.139193 
z
" clip-path="url(#p58cccce536)" style="fill: #ff7f0e"/>
   </g>
   <g id="patch_20">
    <path d="M 178.589385 187.677656 
L 183.391967 187.677656 
L 183.391967 51.178334 
L 178.589385 51.178334 
z
" clip-path="url(#p58cccce536)" style="fill: #ff7f0e"/>
   </g>
   <g id="patch_21">
    <path d="M 184.592613 187.677656 
L 189.395195 187.677656 
L 189.395195 32.363371 
L 184.592613 32.363371 
z
" clip-path="url(#p58cccce536)" style="fill: #ff7f0e"/>
   </g>
   <g id="patch_22">
    <path d="M 190.59584 187.677656 
L 195.398422 187.677656 
L 195.398422 61.245723 
L 190.59584 61.245723 
z
" clip-path="url(#p58cccce536)" style="fill: #ff7f0e"/>
   </g>
   <g id="patch_23">
    <path d="M 196.599068 187.677656 
L 201.40165 187.677656 
L 201.40165 44.44108 
L 196.599068 44.44108 
z
" clip-path="url(#p58cccce536)" style="fill: #ff7f0e"/>
   </g>
   <g id="patch_24">
    <path d="M 202.602295 187.677656 
L 207.404877 187.677656 
L 207.404877 93.131023 
L 202.602295 93.131023 
z
" clip-path="url(#p58cccce536)" style="fill: #2ca02c"/>
   </g>
   <g id="patch_25">
    <path d="M 208.605523 187.677656 
L 213.408105 187.677656 
L 213.408105 82.480562 
L 208.605523 82.480562 
z
" clip-path="url(#p58cccce536)" style="fill: #2ca02c"/>
   </g>
   <g id="patch_26">
    <path d="M 214.608751 187.677656 
L 219.411333 187.677656 
L 219.411333 79.465793 
L 214.608751 79.465793 
z
" clip-path="url(#p58cccce536)" style="fill: #2ca02c"/>
   </g>
   <g id="patch_27">
    <path d="M 220.611978 187.677656 
L 225.41456 187.677656 
L 225.41456 74.609997 
L 220.611978 74.609997 
z
" clip-path="url(#p58cccce536)" style="fill: #2ca02c"/>
   </g>
   <g id="patch_28">
    <path d="M 226.615206 187.677656 
L 231.417788 187.677656 
L 231.417788 52.506175 
L 226.615206 52.506175 
z
" clip-path="url(#p58cccce536)" style="fill: #d62728"/>
   </g>
   <g id="patch_29">
    <path d="M 232.618433 187.677656 
L 237.421015 187.677656 
L 237.421015 88.439138 
L 232.618433 88.439138 
z
" clip-path="url(#p58cccce536)" style="fill: #d62728"/>
   </g>
   <g id="patch_30">
    <path d="M 238.621661 187.677656 
L 243.424243 187.677656 
L 243.424243 74.707495 
L 238.621661 74.707495 
z
" clip-path="url(#p58cccce536)" style="fill: #d62728"/>
   </g>
   <g id="patch_31">
    <path d="M 244.624888 187.677656 
L 249.42747 187.677656 
L 249.42747 102.013719 
L 244.624888 102.013719 
z
" clip-path="url(#p58cccce536)" style="fill: #d62728"/>
   </g>
   <g id="patch_32">
    <path d="M 250.628116 187.677656 
L 255.430698 187.677656 
L 255.430698 84.501226 
L 250.628116 84.501226 
z
" clip-path="url(#p58cccce536)" style="fill: #d62728"/>
   </g>
   <g id="patch_33">
    <path d="M 256.631343 187.677656 
L 261.433925 187.677656 
L 261.433925 53.438588 
L 256.631343 53.438588 
z
" clip-path="url(#p58cccce536)" style="fill: #d62728"/>
   </g>
   <g id="patch_34">
    <path d="M 262.634571 187.677656 
L 267.437153 187.677656 
L 267.437153 93.411714 
L 262.634571 93.411714 
z
" clip-path="url(#p58cccce536)" style="fill: #9467bd"/>
   </g>
   <g id="patch_35">
    <path d="M 268.637798 187.677656 
L 273.44038 187.677656 
L 273.44038 103.773695 
L 268.637798 103.773695 
z
" clip-path="url(#p58cccce536)" style="fill: #8c564b"/>
   </g>
   <g id="patch_36">
    <path d="M 274.641026 187.677656 
L 279.443608 187.677656 
L 279.443608 85.330275 
L 274.641026 85.330275 
z
" clip-path="url(#p58cccce536)" style="fill: #8c564b"/>
   </g>
   <g id="patch_37">
    <path d="M 66.389062 187.677656 
L 66.389062 24.597656 
" style="fill: none; stroke: #000000; stroke-width: 1.5; stroke-linejoin: miter; stroke-linecap: square"/>
   </g>
   <g id="patch_38">
    <path d="M 289.589063 187.677656 
L 289.589063 24.597656 
" style="fill: none; stroke: #000000; stroke-width: 1.5; stroke-linejoin: miter; stroke-linecap: square"/>
   </g>
   <g id="patch_39">
    <path d="M 66.389062 187.677656 
L 289.589063 187.677656 
" style="fill: none; stroke: #000000; stroke-width: 1.5; stroke-linejoin: miter; stroke-linecap: square"/>
   </g>
   <g id="patch_40">
    <path d="M 66.389062 24.597656 
L 289.589063 24.597656 
" style="fill: none; stroke: #000000; stroke-width: 1.5; stroke-linejoin: miter; stroke-linecap: square"/>
   </g>
   <g id="text_11">
    <!-- March (r = 30) -->
    <g transform="translate(123.215625 18.597656)scale(0.15 -0.15)">
     <defs>
      <path id="DejaVuSans-4d" d="M 628 4666 
L 1569 4666 
L 2759 1491 
L 3956 4666 
L 4897 4666 
L 4897 0 
L 4281 0 
L 4281 4097 
L 3078 897 
L 2444 897 
L 1241 4097 
L 1241 0 
L 628 0 
L 628 4666 
z
" transform="scale(0.015625)"/>
      <path id="DejaVuSans-61" d="M 2194 1759 
Q 1497 1759 1228 1600 
Q 959 1441 959 1056 
Q 959 750 1161 570 
Q 1363 391 1709 391 
Q 2188 391 2477 730 
Q 2766 1069 2766 1631 
L 2766 1759 
L 2194 1759 
z
M 3341 1997 
L 3341 0 
L 2766 0 
L 2766 531 
Q 2569 213 2275 61 
Q 1981 -91 1556 -91 
Q 1019 -91 701 211 
Q 384 513 384 1019 
Q 384 1609 779 1909 
Q 1175 2209 1959 2209 
L 2766 2209 
L 2766 2266 
Q 2766 2663 2505 2880 
Q 2244 3097 1772 3097 
Q 1472 3097 1187 3025 
Q 903 2953 641 2809 
L 641 3341 
Q 956 3463 1253 3523 
Q 1550 3584 1831 3584 
Q 2591 3584 2966 3190 
Q 3341 2797 3341 1997 
z
" transform="scale(0.015625)"/>
      <path id="DejaVuSans-68" d="M 3513 2113 
L 3513 0 
L 2938 0 
L 2938 2094 
Q 2938 2591 2744 2837 
Q 2550 3084 2163 3084 
Q 1697 3084 1428 2787 
Q 1159 2491 1159 1978 
L 1159 0 
L 581 0 
L 581 4863 
L 1159 4863 
L 1159 2956 
Q 1366 3272 1645 3428 
Q 1925 3584 2291 3584 
Q 2894 3584 3203 3211 
Q 3513 2838 3513 2113 
z
" transform="scale(0.015625)"/>
      <path id="DejaVuSans-28" d="M 1984 4856 
Q 1566 4138 1362 3434 
Q 1159 2731 1159 2009 
Q 1159 1288 1364 580 
Q 1569 -128 1984 -844 
L 1484 -844 
Q 1016 -109 783 600 
Q 550 1309 550 2009 
Q 550 2706 781 3412 
Q 1013 4119 1484 4856 
L 1984 4856 
z
" transform="scale(0.015625)"/>
      <path id="DejaVuSans-3d" d="M 678 2906 
L 4684 2906 
L 4684 2381 
L 678 2381 
L 678 2906 
z
M 678 1631 
L 4684 1631 
L 4684 1100 
L 678 1100 
L 678 1631 
z
" transform="scale(0.015625)"/>
      <path id="DejaVuSans-29" d="M 513 4856 
L 1013 4856 
Q 1481 4119 1714 3412 
Q 1947 2706 1947 2009 
Q 1947 1309 1714 600 
Q 1481 -109 1013 -844 
L 513 -844 
Q 928 -128 1133 580 
Q 1338 1288 1338 2009 
Q 1338 2731 1133 3434 
Q 928 4138 513 4856 
z
" transform="scale(0.015625)"/>
     </defs>
     <use xlink:href="#DejaVuSans-4d"/>
     <use xlink:href="#DejaVuSans-61" x="86.279297"/>
     <use xlink:href="#DejaVuSans-72" x="147.558594"/>
     <use xlink:href="#DejaVuSans-63" x="186.421875"/>
     <use xlink:href="#DejaVuSans-68" x="241.402344"/>
     <use xlink:href="#DejaVuSans-20" x="304.78125"/>
     <use xlink:href="#DejaVuSans-28" x="336.568359"/>
     <use xlink:href="#DejaVuSans-72" x="375.582031"/>
     <use xlink:href="#DejaVuSans-20" x="416.695312"/>
     <use xlink:href="#DejaVuSans-3d" x="448.482422"/>
     <use xlink:href="#DejaVuSans-20" x="532.271484"/>
     <use xlink:href="#DejaVuSans-33" x="564.058594"/>
     <use xlink:href="#DejaVuSans-30" x="627.681641"/>
     <use xlink:href="#DejaVuSans-29" x="691.304688"/>
    </g>
   </g>
   <g id="legend_1">
    <g id="patch_41">
     <path d="M 309.079063 138.919469 
L 440.012531 138.919469 
Q 442.392531 138.919469 442.392531 136.539469 
L 442.392531 32.927656 
Q 442.392531 30.547656 440.012531 30.547656 
L 309.079063 30.547656 
Q 306.699063 30.547656 306.699063 32.927656 
L 306.699063 136.539469 
Q 306.699063 138.919469 309.079063 138.919469 
z
" style="fill: #ffffff; opacity: 0.8; stroke: #cccccc; stroke-linejoin: miter"/>
    </g>
    <g id="patch_42">
     <path d="M 311.459063 44.349797 
L 335.259063 44.349797 
L 335.259063 36.019797 
L 311.459063 36.019797 
z
" style="fill: #1f77b4"/>
    </g>
    <g id="text_12">
     <!-- downtown -->
     <g transform="translate(344.779063 44.349797)scale(0.119 -0.119)">
      <defs>
       <path id="DejaVuSans-64" d="M 2906 2969 
L 2906 4863 
L 3481 4863 
L 3481 0 
L 2906 0 
L 2906 525 
Q 2725 213 2448 61 
Q 2172 -91 1784 -91 
Q 1150 -91 751 415 
Q 353 922 353 1747 
Q 353 2572 751 3078 
Q 1150 3584 1784 3584 
Q 2172 3584 2448 3432 
Q 2725 3281 2906 2969 
z
M 947 1747 
Q 947 1113 1208 752 
Q 1469 391 1925 391 
Q 2381 391 2643 752 
Q 2906 1113 2906 1747 
Q 2906 2381 2643 2742 
Q 2381 3103 1925 3103 
Q 1469 3103 1208 2742 
Q 947 2381 947 1747 
z
" transform="scale(0.015625)"/>
       <path id="DejaVuSans-77" d="M 269 3500 
L 844 3500 
L 1563 769 
L 2278 3500 
L 2956 3500 
L 3675 769 
L 4391 3500 
L 4966 3500 
L 4050 0 
L 3372 0 
L 2619 2869 
L 1863 0 
L 1184 0 
L 269 3500 
z
" transform="scale(0.015625)"/>
      </defs>
      <use xlink:href="#DejaVuSans-64"/>
      <use xlink:href="#DejaVuSans-6f" x="63.476562"/>
      <use xlink:href="#DejaVuSans-77" x="124.658203"/>
      <use xlink:href="#DejaVuSans-6e" x="206.445312"/>
      <use xlink:href="#DejaVuSans-74" x="269.824219"/>
      <use xlink:href="#DejaVuSans-6f" x="309.033203"/>
      <use xlink:href="#DejaVuSans-77" x="370.214844"/>
      <use xlink:href="#DejaVuSans-6e" x="452.001953"/>
     </g>
    </g>
    <g id="patch_43">
     <path d="M 311.459063 61.816766 
L 335.259063 61.816766 
L 335.259063 53.486766 
L 311.459063 53.486766 
z
" style="fill: #ff7f0e"/>
    </g>
    <g id="text_13">
     <!-- suburban -->
     <g transform="translate(344.779063 61.816766)scale(0.119 -0.119)">
      <defs>
       <path id="DejaVuSans-62" d="M 3116 1747 
Q 3116 2381 2855 2742 
Q 2594 3103 2138 3103 
Q 1681 3103 1420 2742 
Q 1159 2381 1159 1747 
Q 1159 1113 1420 752 
Q 1681 391 2138 391 
Q 2594 391 2855 752 
Q 3116 1113 3116 1747 
z
M 1159 2969 
Q 1341 3281 1617 3432 
Q 1894 3584 2278 3584 
Q 2916 3584 3314 3078 
Q 3713 2572 3713 1747 
Q 3713 922 3314 415 
Q 2916 -91 2278 -91 
Q 1894 -91 1617 61 
Q 1341 213 1159 525 
L 1159 0 
L 581 0 
L 581 4863 
L 1159 4863 
L 1159 2969 
z
" transform="scale(0.015625)"/>
      </defs>
      <use xlink:href="#DejaVuSans-73"/>
      <use xlink:href="#DejaVuSans-75" x="52.099609"/>
      <use xlink:href="#DejaVuSans-62" x="115.478516"/>
      <use xlink:href="#DejaVuSans-75" x="178.955078"/>
      <use xlink:href="#DejaVuSans-72" x="242.333984"/>
      <use xlink:href="#DejaVuSans-62" x="283.447266"/>
      <use xlink:href="#DejaVuSans-61" x="346.923828"/>
      <use xlink:href="#DejaVuSans-6e" x="408.203125"/>
     </g>
    </g>
    <g id="patch_44">
     <path d="M 311.459063 79.283734 
L 335.259063 79.283734 
L 335.259063 70.953734 
L 311.459063 70.953734 
z
" style="fill: #2ca02c"/>
    </g>
    <g id="text_14">
     <!-- northwest rural -->
     <g transform="translate(344.779063 79.283734)scale(0.119 -0.119)">
      <defs>
       <path id="DejaVuSans-6c" d="M 603 4863 
L 1178 4863 
L 1178 0 
L 603 0 
L 603 4863 
z
" transform="scale(0.015625)"/>
      </defs>
      <use xlink:href="#DejaVuSans-6e"/>
      <use xlink:href="#DejaVuSans-6f" x="63.378906"/>
      <use xlink:href="#DejaVuSans-72" x="124.560547"/>
      <use xlink:href="#DejaVuSans-74" x="165.673828"/>
      <use xlink:href="#DejaVuSans-68" x="204.882812"/>
      <use xlink:href="#DejaVuSans-77" x="268.261719"/>
      <use xlink:href="#DejaVuSans-65" x="350.048828"/>
      <use xlink:href="#DejaVuSans-73" x="411.572266"/>
      <use xlink:href="#DejaVuSans-74" x="463.671875"/>
      <use xlink:href="#DejaVuSans-20" x="502.880859"/>
      <use xlink:href="#DejaVuSans-72" x="534.667969"/>
      <use xlink:href="#DejaVuSans-75" x="575.78125"/>
      <use xlink:href="#DejaVuSans-72" x="639.160156"/>
      <use xlink:href="#DejaVuSans-61" x="680.273438"/>
      <use xlink:href="#DejaVuSans-6c" x="741.552734"/>
     </g>
    </g>
    <g id="patch_45">
     <path d="M 311.459063 96.750703 
L 335.259063 96.750703 
L 335.259063 88.420703 
L 311.459063 88.420703 
z
" style="fill: #d62728"/>
    </g>
    <g id="text_15">
     <!-- northeast rural -->
     <g transform="translate(344.779063 96.750703)scale(0.119 -0.119)">
      <use xlink:href="#DejaVuSans-6e"/>
      <use xlink:href="#DejaVuSans-6f" x="63.378906"/>
      <use xlink:href="#DejaVuSans-72" x="124.560547"/>
      <use xlink:href="#DejaVuSans-74" x="165.673828"/>
      <use xlink:href="#DejaVuSans-68" x="204.882812"/>
      <use xlink:href="#DejaVuSans-65" x="268.261719"/>
      <use xlink:href="#DejaVuSans-61" x="329.785156"/>
      <use xlink:href="#DejaVuSans-73" x="391.064453"/>
      <use xlink:href="#DejaVuSans-74" x="443.164062"/>
      <use xlink:href="#DejaVuSans-20" x="482.373047"/>
      <use xlink:href="#DejaVuSans-72" x="514.160156"/>
      <use xlink:href="#DejaVuSans-75" x="555.273438"/>
      <use xlink:href="#DejaVuSans-72" x="618.652344"/>
      <use xlink:href="#DejaVuSans-61" x="659.765625"/>
      <use xlink:href="#DejaVuSans-6c" x="721.044922"/>
     </g>
    </g>
    <g id="patch_46">
     <path d="M 311.459063 114.217672 
L 335.259063 114.217672 
L 335.259063 105.887672 
L 311.459063 105.887672 
z
" style="fill: #9467bd"/>
    </g>
    <g id="text_16">
     <!-- southwest rural -->
     <g transform="translate(344.779063 114.217672)scale(0.119 -0.119)">
      <use xlink:href="#DejaVuSans-73"/>
      <use xlink:href="#DejaVuSans-6f" x="52.099609"/>
      <use xlink:href="#DejaVuSans-75" x="113.28125"/>
      <use xlink:href="#DejaVuSans-74" x="176.660156"/>
      <use xlink:href="#DejaVuSans-68" x="215.869141"/>
      <use xlink:href="#DejaVuSans-77" x="279.248047"/>
      <use xlink:href="#DejaVuSans-65" x="361.035156"/>
      <use xlink:href="#DejaVuSans-73" x="422.558594"/>
      <use xlink:href="#DejaVuSans-74" x="474.658203"/>
      <use xlink:href="#DejaVuSans-20" x="513.867188"/>
      <use xlink:href="#DejaVuSans-72" x="545.654297"/>
      <use xlink:href="#DejaVuSans-75" x="586.767578"/>
      <use xlink:href="#DejaVuSans-72" x="650.146484"/>
      <use xlink:href="#DejaVuSans-61" x="691.259766"/>
      <use xlink:href="#DejaVuSans-6c" x="752.539062"/>
     </g>
    </g>
    <g id="patch_47">
     <path d="M 311.459063 131.684641 
L 335.259063 131.684641 
L 335.259063 123.354641 
L 311.459063 123.354641 
z
" style="fill: #8c564b"/>
    </g>
    <g id="text_17">
     <!-- southeast rural -->
     <g transform="translate(344.779063 131.684641)scale(0.119 -0.119)">
      <use xlink:href="#DejaVuSans-73"/>
      <use xlink:href="#DejaVuSans-6f" x="52.099609"/>
      <use xlink:href="#DejaVuSans-75" x="113.28125"/>
      <use xlink:href="#DejaVuSans-74" x="176.660156"/>
      <use xlink:href="#DejaVuSans-68" x="215.869141"/>
      <use xlink:href="#DejaVuSans-65" x="279.248047"/>
      <use xlink:href="#DejaVuSans-61" x="340.771484"/>
      <use xlink:href="#DejaVuSans-73" x="402.050781"/>
      <use xlink:href="#DejaVuSans-74" x="454.150391"/>
      <use xlink:href="#DejaVuSans-20" x="493.359375"/>
      <use xlink:href="#DejaVuSans-72" x="525.146484"/>
      <use xlink:href="#DejaVuSans-75" x="566.259766"/>
      <use xlink:href="#DejaVuSans-72" x="629.638672"/>
      <use xlink:href="#DejaVuSans-61" x="670.751953"/>
      <use xlink:href="#DejaVuSans-6c" x="732.03125"/>
     </g>
    </g>
   </g>
  </g>
 </g>
 <defs>
  <clipPath id="p58cccce536">
   <rect x="66.389062" y="24.597656" width="223.2" height="163.08"/>
  </clipPath>
 </defs>
</svg>
