<?xml version="1.0" encoding="utf-8" standalone="no"?>
<!DOCTYPE svg PUBLIC "-//W3C//DTD SVG 1.1//EN"
  "http://www.w3.org/Graphics/SVG/1.1/DTD/svg11.dtd">
<svg xmlns:xlink="http://www.w3.org/1999/xlink" width="462.958156pt" height="238.86375pt" viewBox="0 0 462.958156 238.86375" xmlns="http://www.w3.org/2000/svg" version="1.1">
 <metadata>
  <rdf:RDF xmlns:dc="http://purl.org/dc/elements/1.1/" xmlns:cc="http://creativecommons.org/ns#" xmlns:rdf="http://www.w3.org/1999/02/22-rdf-syntax-ns#">
   <cc:Work>
    <dc:type rdf:resource="http://purl.org/dc/dcmitype/StillImage"/>
    <dc:date>2022-01-20T23:17:26.210499</dc:date>
    <dc:format>image/svg+xml</dc:format>
    <dc:creator>
     <cc:Agent>
      <dc:title>Matplotlib v3.4.3, https://matplotlib.org/</dc:title>
     </cc:Agent>
    </dc:creator>
   </cc:Work>
  </rdf:RDF>
 </metadata>
 <defs>
  <style type="text/css">*{stroke-linejoin: round; stroke-linecap: butt}</style>
 </defs>
 <g id="figure_1">
  <g id="patch_1">
   <path d="M 0 238.86375 
L 462.958156 238.86375 
L 462.958156 0 
L 0 0 
z
" style="fill: none"/>
  </g>
  <g id="axes_1">
   <g id="patch_2">
    <path d="M 79.754688 187.677656 
L 302.954687 187.677656 
L 302.954687 24.597656 
L 79.754688 24.597656 
z
" style="fill: #ffffff"/>
   </g>
   <g id="matplotlib.axis_1">
    <g id="xtick_1">
     <g id="line2d_1">
      <path d="M 92.301433 187.677656 
L 92.301433 24.597656 
" clip-path="url(#pd59dc2f00e)" style="fill: none; stroke: #b0b0b0; stroke-width: 0.8; stroke-linecap: square"/>
     </g>
     <g id="line2d_2">
      <defs>
       <path id="m7ce9ff7693" d="M 0 0 
L 0 6 
" style="stroke: #000000; stroke-width: 2"/>
      </defs>
      <g>
       <use xlink:href="#m7ce9ff7693" x="92.301433" y="187.677656" style="stroke: #000000; stroke-width: 2"/>
      </g>
     </g>
     <g id="text_1">
      <!-- 0 -->
      <g transform="translate(87.847683 207.815469)scale(0.14 -0.14)">
       <defs>
        <path id="DejaVuSans-30" d="M 2034 4250 
Q 1547 4250 1301 3770 
Q 1056 3291 1056 2328 
Q 1056 1369 1301 889 
Q 1547 409 2034 409 
Q 2525 409 2770 889 
Q 3016 1369 3016 2328 
Q 3016 3291 2770 3770 
Q 2525 4250 2034 4250 
z
M 2034 4750 
Q 2819 4750 3233 4129 
Q 3647 3509 3647 2328 
Q 3647 1150 3233 529 
Q 2819 -91 2034 -91 
Q 1250 -91 836 529 
Q 422 1150 422 2328 
Q 422 3509 836 4129 
Q 1250 4750 2034 4750 
z
" transform="scale(0.015625)"/>
       </defs>
       <use xlink:href="#DejaVuSans-30"/>
      </g>
     </g>
    </g>
    <g id="xtick_2">
     <g id="line2d_3">
      <path d="M 152.333708 187.677656 
L 152.333708 24.597656 
" clip-path="url(#pd59dc2f00e)" style="fill: none; stroke: #b0b0b0; stroke-width: 0.8; stroke-linecap: square"/>
     </g>
     <g id="line2d_4">
      <g>
       <use xlink:href="#m7ce9ff7693" x="152.333708" y="187.677656" style="stroke: #000000; stroke-width: 2"/>
      </g>
     </g>
     <g id="text_2">
      <!-- 10 -->
      <g transform="translate(143.426208 207.815469)scale(0.14 -0.14)">
       <defs>
        <path id="DejaVuSans-31" d="M 794 531 
L 1825 531 
L 1825 4091 
L 703 3866 
L 703 4441 
L 1819 4666 
L 2450 4666 
L 2450 531 
L 3481 531 
L 3481 0 
L 794 0 
L 794 531 
z
" transform="scale(0.015625)"/>
       </defs>
       <use xlink:href="#DejaVuSans-31"/>
       <use xlink:href="#DejaVuSans-30" x="63.623047"/>
      </g>
     </g>
    </g>
    <g id="xtick_3">
     <g id="line2d_5">
      <path d="M 212.365984 187.677656 
L 212.365984 24.597656 
" clip-path="url(#pd59dc2f00e)" style="fill: none; stroke: #b0b0b0; stroke-width: 0.8; stroke-linecap: square"/>
     </g>
     <g id="line2d_6">
      <g>
       <use xlink:href="#m7ce9ff7693" x="212.365984" y="187.677656" style="stroke: #000000; stroke-width: 2"/>
      </g>
     </g>
     <g id="text_3">
      <!-- 20 -->
      <g transform="translate(203.458484 207.815469)scale(0.14 -0.14)">
       <defs>
        <path id="DejaVuSans-32" d="M 1228 531 
L 3431 531 
L 3431 0 
L 469 0 
L 469 531 
Q 828 903 1448 1529 
Q 2069 2156 2228 2338 
Q 2531 2678 2651 2914 
Q 2772 3150 2772 3378 
Q 2772 3750 2511 3984 
Q 2250 4219 1831 4219 
Q 1534 4219 1204 4116 
Q 875 4013 500 3803 
L 500 4441 
Q 881 4594 1212 4672 
Q 1544 4750 1819 4750 
Q 2544 4750 2975 4387 
Q 3406 4025 3406 3419 
Q 3406 3131 3298 2873 
Q 3191 2616 2906 2266 
Q 2828 2175 2409 1742 
Q 1991 1309 1228 531 
z
" transform="scale(0.015625)"/>
       </defs>
       <use xlink:href="#DejaVuSans-32"/>
       <use xlink:href="#DejaVuSans-30" x="63.623047"/>
      </g>
     </g>
    </g>
    <g id="xtick_4">
     <g id="line2d_7">
      <path d="M 272.398259 187.677656 
L 272.398259 24.597656 
" clip-path="url(#pd59dc2f00e)" style="fill: none; stroke: #b0b0b0; stroke-width: 0.8; stroke-linecap: square"/>
     </g>
     <g id="line2d_8">
      <g>
       <use xlink:href="#m7ce9ff7693" x="272.398259" y="187.677656" style="stroke: #000000; stroke-width: 2"/>
      </g>
     </g>
     <g id="text_4">
      <!-- 30 -->
      <g transform="translate(263.490759 207.815469)scale(0.14 -0.14)">
       <defs>
        <path id="DejaVuSans-33" d="M 2597 2516 
Q 3050 2419 3304 2112 
Q 3559 1806 3559 1356 
Q 3559 666 3084 287 
Q 2609 -91 1734 -91 
Q 1441 -91 1130 -33 
Q 819 25 488 141 
L 488 750 
Q 750 597 1062 519 
Q 1375 441 1716 441 
Q 2309 441 2620 675 
Q 2931 909 2931 1356 
Q 2931 1769 2642 2001 
Q 2353 2234 1838 2234 
L 1294 2234 
L 1294 2753 
L 1863 2753 
Q 2328 2753 2575 2939 
Q 2822 3125 2822 3475 
Q 2822 3834 2567 4026 
Q 2313 4219 1838 4219 
Q 1578 4219 1281 4162 
Q 984 4106 628 3988 
L 628 4550 
Q 988 4650 1302 4700 
Q 1616 4750 1894 4750 
Q 2613 4750 3031 4423 
Q 3450 4097 3450 3541 
Q 3450 3153 3228 2886 
Q 3006 2619 2597 2516 
z
" transform="scale(0.015625)"/>
       </defs>
       <use xlink:href="#DejaVuSans-33"/>
       <use xlink:href="#DejaVuSans-30" x="63.623047"/>
      </g>
     </g>
    </g>
    <g id="xtick_5">
     <g id="line2d_9">
      <defs>
       <path id="m0f38832dbd" d="M 0 0 
L 0 3 
" style="stroke: #000000; stroke-width: 2"/>
      </defs>
      <g>
       <use xlink:href="#m0f38832dbd" x="80.294978" y="187.677656" style="stroke: #000000; stroke-width: 2"/>
      </g>
     </g>
    </g>
    <g id="xtick_6">
     <g id="line2d_10">
      <g>
       <use xlink:href="#m0f38832dbd" x="104.307888" y="187.677656" style="stroke: #000000; stroke-width: 2"/>
      </g>
     </g>
    </g>
    <g id="xtick_7">
     <g id="line2d_11">
      <g>
       <use xlink:href="#m0f38832dbd" x="116.314343" y="187.677656" style="stroke: #000000; stroke-width: 2"/>
      </g>
     </g>
    </g>
    <g id="xtick_8">
     <g id="line2d_12">
      <g>
       <use xlink:href="#m0f38832dbd" x="128.320798" y="187.677656" style="stroke: #000000; stroke-width: 2"/>
      </g>
     </g>
    </g>
    <g id="xtick_9">
     <g id="line2d_13">
      <g>
       <use xlink:href="#m0f38832dbd" x="140.327253" y="187.677656" style="stroke: #000000; stroke-width: 2"/>
      </g>
     </g>
    </g>
    <g id="xtick_10">
     <g id="line2d_14">
      <g>
       <use xlink:href="#m0f38832dbd" x="164.340164" y="187.677656" style="stroke: #000000; stroke-width: 2"/>
      </g>
     </g>
    </g>
    <g id="xtick_11">
     <g id="line2d_15">
      <g>
       <use xlink:href="#m0f38832dbd" x="176.346619" y="187.677656" style="stroke: #000000; stroke-width: 2"/>
      </g>
     </g>
    </g>
    <g id="xtick_12">
     <g id="line2d_16">
      <g>
       <use xlink:href="#m0f38832dbd" x="188.353074" y="187.677656" style="stroke: #000000; stroke-width: 2"/>
      </g>
     </g>
    </g>
    <g id="xtick_13">
     <g id="line2d_17">
      <g>
       <use xlink:href="#m0f38832dbd" x="200.359529" y="187.677656" style="stroke: #000000; stroke-width: 2"/>
      </g>
     </g>
    </g>
    <g id="xtick_14">
     <g id="line2d_18">
      <g>
       <use xlink:href="#m0f38832dbd" x="224.372439" y="187.677656" style="stroke: #000000; stroke-width: 2"/>
      </g>
     </g>
    </g>
    <g id="xtick_15">
     <g id="line2d_19">
      <g>
       <use xlink:href="#m0f38832dbd" x="236.378894" y="187.677656" style="stroke: #000000; stroke-width: 2"/>
      </g>
     </g>
    </g>
    <g id="xtick_16">
     <g id="line2d_20">
      <g>
       <use xlink:href="#m0f38832dbd" x="248.385349" y="187.677656" style="stroke: #000000; stroke-width: 2"/>
      </g>
     </g>
    </g>
    <g id="xtick_17">
     <g id="line2d_21">
      <g>
       <use xlink:href="#m0f38832dbd" x="260.391804" y="187.677656" style="stroke: #000000; stroke-width: 2"/>
      </g>
     </g>
    </g>
    <g id="xtick_18">
     <g id="line2d_22">
      <g>
       <use xlink:href="#m0f38832dbd" x="284.404714" y="187.677656" style="stroke: #000000; stroke-width: 2"/>
      </g>
     </g>
    </g>
    <g id="xtick_19">
     <g id="line2d_23">
      <g>
       <use xlink:href="#m0f38832dbd" x="296.411169" y="187.677656" style="stroke: #000000; stroke-width: 2"/>
      </g>
     </g>
    </g>
    <g id="text_5">
     <!-- Sites -->
     <g transform="translate(169.996484 228.024297)scale(0.175 -0.175)">
      <defs>
       <path id="DejaVuSans-53" d="M 3425 4513 
L 3425 3897 
Q 3066 4069 2747 4153 
Q 2428 4238 2131 4238 
Q 1616 4238 1336 4038 
Q 1056 3838 1056 3469 
Q 1056 3159 1242 3001 
Q 1428 2844 1947 2747 
L 2328 2669 
Q 3034 2534 3370 2195 
Q 3706 1856 3706 1288 
Q 3706 609 3251 259 
Q 2797 -91 1919 -91 
Q 1588 -91 1214 -16 
Q 841 59 441 206 
L 441 856 
Q 825 641 1194 531 
Q 1563 422 1919 422 
Q 2459 422 2753 634 
Q 3047 847 3047 1241 
Q 3047 1584 2836 1778 
Q 2625 1972 2144 2069 
L 1759 2144 
Q 1053 2284 737 2584 
Q 422 2884 422 3419 
Q 422 4038 858 4394 
Q 1294 4750 2059 4750 
Q 2388 4750 2728 4690 
Q 3069 4631 3425 4513 
z
" transform="scale(0.015625)"/>
       <path id="DejaVuSans-69" d="M 603 3500 
L 1178 3500 
L 1178 0 
L 603 0 
L 603 3500 
z
M 603 4863 
L 1178 4863 
L 1178 4134 
L 603 4134 
L 603 4863 
z
" transform="scale(0.015625)"/>
       <path id="DejaVuSans-74" d="M 1172 4494 
L 1172 3500 
L 2356 3500 
L 2356 3053 
L 1172 3053 
L 1172 1153 
Q 1172 725 1289 603 
Q 1406 481 1766 481 
L 2356 481 
L 2356 0 
L 1766 0 
Q 1100 0 847 248 
Q 594 497 594 1153 
L 594 3053 
L 172 3053 
L 172 3500 
L 594 3500 
L 594 4494 
L 1172 4494 
z
" transform="scale(0.015625)"/>
       <path id="DejaVuSans-65" d="M 3597 1894 
L 3597 1613 
L 953 1613 
Q 991 1019 1311 708 
Q 1631 397 2203 397 
Q 2534 397 2845 478 
Q 3156 559 3463 722 
L 3463 178 
Q 3153 47 2828 -22 
Q 2503 -91 2169 -91 
Q 1331 -91 842 396 
Q 353 884 353 1716 
Q 353 2575 817 3079 
Q 1281 3584 2069 3584 
Q 2775 3584 3186 3129 
Q 3597 2675 3597 1894 
z
M 3022 2063 
Q 3016 2534 2758 2815 
Q 2500 3097 2075 3097 
Q 1594 3097 1305 2825 
Q 1016 2553 972 2059 
L 3022 2063 
z
" transform="scale(0.015625)"/>
       <path id="DejaVuSans-73" d="M 2834 3397 
L 2834 2853 
Q 2591 2978 2328 3040 
Q 2066 3103 1784 3103 
Q 1356 3103 1142 2972 
Q 928 2841 928 2578 
Q 928 2378 1081 2264 
Q 1234 2150 1697 2047 
L 1894 2003 
Q 2506 1872 2764 1633 
Q 3022 1394 3022 966 
Q 3022 478 2636 193 
Q 2250 -91 1575 -91 
Q 1294 -91 989 -36 
Q 684 19 347 128 
L 347 722 
Q 666 556 975 473 
Q 1284 391 1588 391 
Q 1994 391 2212 530 
Q 2431 669 2431 922 
Q 2431 1156 2273 1281 
Q 2116 1406 1581 1522 
L 1381 1569 
Q 847 1681 609 1914 
Q 372 2147 372 2553 
Q 372 3047 722 3315 
Q 1072 3584 1716 3584 
Q 2034 3584 2315 3537 
Q 2597 3491 2834 3397 
z
" transform="scale(0.015625)"/>
      </defs>
      <use xlink:href="#DejaVuSans-53"/>
      <use xlink:href="#DejaVuSans-69" x="63.476562"/>
      <use xlink:href="#DejaVuSans-74" x="91.259766"/>
      <use xlink:href="#DejaVuSans-65" x="130.46875"/>
      <use xlink:href="#DejaVuSans-73" x="191.992188"/>
     </g>
    </g>
   </g>
   <g id="matplotlib.axis_2">
    <g id="ytick_1">
     <g id="line2d_24">
      <path d="M 79.754688 187.677656 
L 302.954687 187.677656 
" clip-path="url(#pd59dc2f00e)" style="fill: none; stroke: #b0b0b0; stroke-width: 0.8; stroke-linecap: square"/>
     </g>
     <g id="line2d_25">
      <defs>
       <path id="meef6ca973a" d="M 0 0 
L -6 0 
" style="stroke: #000000; stroke-width: 2"/>
      </defs>
      <g>
       <use xlink:href="#meef6ca973a" x="79.754688" y="187.677656" style="stroke: #000000; stroke-width: 2"/>
      </g>
     </g>
     <g id="text_6">
      <!-- 0 -->
      <g transform="translate(61.347188 192.996563)scale(0.14 -0.14)">
       <use xlink:href="#DejaVuSans-30"/>
      </g>
     </g>
    </g>
    <g id="ytick_2">
     <g id="line2d_26">
      <path d="M 79.754688 143.801866 
L 302.954687 143.801866 
" clip-path="url(#pd59dc2f00e)" style="fill: none; stroke: #b0b0b0; stroke-width: 0.8; stroke-linecap: square"/>
     </g>
     <g id="line2d_27">
      <g>
       <use xlink:href="#meef6ca973a" x="79.754688" y="143.801866" style="stroke: #000000; stroke-width: 2"/>
      </g>
     </g>
     <g id="text_7">
      <!-- 5000 -->
      <g transform="translate(34.624688 149.120772)scale(0.14 -0.14)">
       <defs>
        <path id="DejaVuSans-35" d="M 691 4666 
L 3169 4666 
L 3169 4134 
L 1269 4134 
L 1269 2991 
Q 1406 3038 1543 3061 
Q 1681 3084 1819 3084 
Q 2600 3084 3056 2656 
Q 3513 2228 3513 1497 
Q 3513 744 3044 326 
Q 2575 -91 1722 -91 
Q 1428 -91 1123 -41 
Q 819 9 494 109 
L 494 744 
Q 775 591 1075 516 
Q 1375 441 1709 441 
Q 2250 441 2565 725 
Q 2881 1009 2881 1497 
Q 2881 1984 2565 2268 
Q 2250 2553 1709 2553 
Q 1456 2553 1204 2497 
Q 953 2441 691 2322 
L 691 4666 
z
" transform="scale(0.015625)"/>
       </defs>
       <use xlink:href="#DejaVuSans-35"/>
       <use xlink:href="#DejaVuSans-30" x="63.623047"/>
       <use xlink:href="#DejaVuSans-30" x="127.246094"/>
       <use xlink:href="#DejaVuSans-30" x="190.869141"/>
      </g>
     </g>
    </g>
    <g id="ytick_3">
     <g id="line2d_28">
      <path d="M 79.754688 99.926075 
L 302.954687 99.926075 
" clip-path="url(#pd59dc2f00e)" style="fill: none; stroke: #b0b0b0; stroke-width: 0.8; stroke-linecap: square"/>
     </g>
     <g id="line2d_29">
      <g>
       <use xlink:href="#meef6ca973a" x="79.754688" y="99.926075" style="stroke: #000000; stroke-width: 2"/>
      </g>
     </g>
     <g id="text_8">
      <!-- 10000 -->
      <g transform="translate(25.717188 105.244981)scale(0.14 -0.14)">
       <use xlink:href="#DejaVuSans-31"/>
       <use xlink:href="#DejaVuSans-30" x="63.623047"/>
       <use xlink:href="#DejaVuSans-30" x="127.246094"/>
       <use xlink:href="#DejaVuSans-30" x="190.869141"/>
       <use xlink:href="#DejaVuSans-30" x="254.492188"/>
      </g>
     </g>
    </g>
    <g id="ytick_4">
     <g id="line2d_30">
      <path d="M 79.754688 56.050285 
L 302.954687 56.050285 
" clip-path="url(#pd59dc2f00e)" style="fill: none; stroke: #b0b0b0; stroke-width: 0.8; stroke-linecap: square"/>
     </g>
     <g id="line2d_31">
      <g>
       <use xlink:href="#meef6ca973a" x="79.754688" y="56.050285" style="stroke: #000000; stroke-width: 2"/>
      </g>
     </g>
     <g id="text_9">
      <!-- 15000 -->
      <g transform="translate(25.717188 61.369191)scale(0.14 -0.14)">
       <use xlink:href="#DejaVuSans-31"/>
       <use xlink:href="#DejaVuSans-35" x="63.623047"/>
       <use xlink:href="#DejaVuSans-30" x="127.246094"/>
       <use xlink:href="#DejaVuSans-30" x="190.869141"/>
       <use xlink:href="#DejaVuSans-30" x="254.492188"/>
      </g>
     </g>
    </g>
    <g id="ytick_5">
     <g id="line2d_32">
      <defs>
       <path id="mdc33f32172" d="M 0 0 
L -3 0 
" style="stroke: #000000; stroke-width: 2"/>
      </defs>
      <g>
       <use xlink:href="#mdc33f32172" x="79.754688" y="178.902498" style="stroke: #000000; stroke-width: 2"/>
      </g>
     </g>
    </g>
    <g id="ytick_6">
     <g id="line2d_33">
      <g>
       <use xlink:href="#mdc33f32172" x="79.754688" y="170.12734" style="stroke: #000000; stroke-width: 2"/>
      </g>
     </g>
    </g>
    <g id="ytick_7">
     <g id="line2d_34">
      <g>
       <use xlink:href="#mdc33f32172" x="79.754688" y="161.352182" style="stroke: #000000; stroke-width: 2"/>
      </g>
     </g>
    </g>
    <g id="ytick_8">
     <g id="line2d_35">
      <g>
       <use xlink:href="#mdc33f32172" x="79.754688" y="152.577024" style="stroke: #000000; stroke-width: 2"/>
      </g>
     </g>
    </g>
    <g id="ytick_9">
     <g id="line2d_36">
      <g>
       <use xlink:href="#mdc33f32172" x="79.754688" y="135.026708" style="stroke: #000000; stroke-width: 2"/>
      </g>
     </g>
    </g>
    <g id="ytick_10">
     <g id="line2d_37">
      <g>
       <use xlink:href="#mdc33f32172" x="79.754688" y="126.251549" style="stroke: #000000; stroke-width: 2"/>
      </g>
     </g>
    </g>
    <g id="ytick_11">
     <g id="line2d_38">
      <g>
       <use xlink:href="#mdc33f32172" x="79.754688" y="117.476391" style="stroke: #000000; stroke-width: 2"/>
      </g>
     </g>
    </g>
    <g id="ytick_12">
     <g id="line2d_39">
      <g>
       <use xlink:href="#mdc33f32172" x="79.754688" y="108.701233" style="stroke: #000000; stroke-width: 2"/>
      </g>
     </g>
    </g>
    <g id="ytick_13">
     <g id="line2d_40">
      <g>
       <use xlink:href="#mdc33f32172" x="79.754688" y="91.150917" style="stroke: #000000; stroke-width: 2"/>
      </g>
     </g>
    </g>
    <g id="ytick_14">
     <g id="line2d_41">
      <g>
       <use xlink:href="#mdc33f32172" x="79.754688" y="82.375759" style="stroke: #000000; stroke-width: 2"/>
      </g>
     </g>
    </g>
    <g id="ytick_15">
     <g id="line2d_42">
      <g>
       <use xlink:href="#mdc33f32172" x="79.754688" y="73.600601" style="stroke: #000000; stroke-width: 2"/>
      </g>
     </g>
    </g>
    <g id="ytick_16">
     <g id="line2d_43">
      <g>
       <use xlink:href="#mdc33f32172" x="79.754688" y="64.825443" style="stroke: #000000; stroke-width: 2"/>
      </g>
     </g>
    </g>
    <g id="ytick_17">
     <g id="line2d_44">
      <g>
       <use xlink:href="#mdc33f32172" x="79.754688" y="47.275126" style="stroke: #000000; stroke-width: 2"/>
      </g>
     </g>
    </g>
    <g id="ytick_18">
     <g id="line2d_45">
      <g>
       <use xlink:href="#mdc33f32172" x="79.754688" y="38.499968" style="stroke: #000000; stroke-width: 2"/>
      </g>
     </g>
    </g>
    <g id="ytick_19">
     <g id="line2d_46">
      <g>
       <use xlink:href="#mdc33f32172" x="79.754688" y="29.72481" style="stroke: #000000; stroke-width: 2"/>
      </g>
     </g>
    </g>
    <g id="text_10">
     <!-- 1 Step Forcasting Error -->
     <g transform="translate(18.597656 192.126328)rotate(-90)scale(0.15 -0.15)">
      <defs>
       <path id="DejaVuSans-20" transform="scale(0.015625)"/>
       <path id="DejaVuSans-70" d="M 1159 525 
L 1159 -1331 
L 581 -1331 
L 581 3500 
L 1159 3500 
L 1159 2969 
Q 1341 3281 1617 3432 
Q 1894 3584 2278 3584 
Q 2916 3584 3314 3078 
Q 3713 2572 3713 1747 
Q 3713 922 3314 415 
Q 2916 -91 2278 -91 
Q 1894 -91 1617 61 
Q 1341 213 1159 525 
z
M 3116 1747 
Q 3116 2381 2855 2742 
Q 2594 3103 2138 3103 
Q 1681 3103 1420 2742 
Q 1159 2381 1159 1747 
Q 1159 1113 1420 752 
Q 1681 391 2138 391 
Q 2594 391 2855 752 
Q 3116 1113 3116 1747 
z
" transform="scale(0.015625)"/>
       <path id="DejaVuSans-46" d="M 628 4666 
L 3309 4666 
L 3309 4134 
L 1259 4134 
L 1259 2759 
L 3109 2759 
L 3109 2228 
L 1259 2228 
L 1259 0 
L 628 0 
L 628 4666 
z
" transform="scale(0.015625)"/>
       <path id="DejaVuSans-6f" d="M 1959 3097 
Q 1497 3097 1228 2736 
Q 959 2375 959 1747 
Q 959 1119 1226 758 
Q 1494 397 1959 397 
Q 2419 397 2687 759 
Q 2956 1122 2956 1747 
Q 2956 2369 2687 2733 
Q 2419 3097 1959 3097 
z
M 1959 3584 
Q 2709 3584 3137 3096 
Q 3566 2609 3566 1747 
Q 3566 888 3137 398 
Q 2709 -91 1959 -91 
Q 1206 -91 779 398 
Q 353 888 353 1747 
Q 353 2609 779 3096 
Q 1206 3584 1959 3584 
z
" transform="scale(0.015625)"/>
       <path id="DejaVuSans-72" d="M 2631 2963 
Q 2534 3019 2420 3045 
Q 2306 3072 2169 3072 
Q 1681 3072 1420 2755 
Q 1159 2438 1159 1844 
L 1159 0 
L 581 0 
L 581 3500 
L 1159 3500 
L 1159 2956 
Q 1341 3275 1631 3429 
Q 1922 3584 2338 3584 
Q 2397 3584 2469 3576 
Q 2541 3569 2628 3553 
L 2631 2963 
z
" transform="scale(0.015625)"/>
       <path id="DejaVuSans-63" d="M 3122 3366 
L 3122 2828 
Q 2878 2963 2633 3030 
Q 2388 3097 2138 3097 
Q 1578 3097 1268 2742 
Q 959 2388 959 1747 
Q 959 1106 1268 751 
Q 1578 397 2138 397 
Q 2388 397 2633 464 
Q 2878 531 3122 666 
L 3122 134 
Q 2881 22 2623 -34 
Q 2366 -91 2075 -91 
Q 1284 -91 818 406 
Q 353 903 353 1747 
Q 353 2603 823 3093 
Q 1294 3584 2113 3584 
Q 2378 3584 2631 3529 
Q 2884 3475 3122 3366 
z
" transform="scale(0.015625)"/>
       <path id="DejaVuSans-61" d="M 2194 1759 
Q 1497 1759 1228 1600 
Q 959 1441 959 1056 
Q 959 750 1161 570 
Q 1363 391 1709 391 
Q 2188 391 2477 730 
Q 2766 1069 2766 1631 
L 2766 1759 
L 2194 1759 
z
M 3341 1997 
L 3341 0 
L 2766 0 
L 2766 531 
Q 2569 213 2275 61 
Q 1981 -91 1556 -91 
Q 1019 -91 701 211 
Q 384 513 384 1019 
Q 384 1609 779 1909 
Q 1175 2209 1959 2209 
L 2766 2209 
L 2766 2266 
Q 2766 2663 2505 2880 
Q 2244 3097 1772 3097 
Q 1472 3097 1187 3025 
Q 903 2953 641 2809 
L 641 3341 
Q 956 3463 1253 3523 
Q 1550 3584 1831 3584 
Q 2591 3584 2966 3190 
Q 3341 2797 3341 1997 
z
" transform="scale(0.015625)"/>
       <path id="DejaVuSans-6e" d="M 3513 2113 
L 3513 0 
L 2938 0 
L 2938 2094 
Q 2938 2591 2744 2837 
Q 2550 3084 2163 3084 
Q 1697 3084 1428 2787 
Q 1159 2491 1159 1978 
L 1159 0 
L 581 0 
L 581 3500 
L 1159 3500 
L 1159 2956 
Q 1366 3272 1645 3428 
Q 1925 3584 2291 3584 
Q 2894 3584 3203 3211 
Q 3513 2838 3513 2113 
z
" transform="scale(0.015625)"/>
       <path id="DejaVuSans-67" d="M 2906 1791 
Q 2906 2416 2648 2759 
Q 2391 3103 1925 3103 
Q 1463 3103 1205 2759 
Q 947 2416 947 1791 
Q 947 1169 1205 825 
Q 1463 481 1925 481 
Q 2391 481 2648 825 
Q 2906 1169 2906 1791 
z
M 3481 434 
Q 3481 -459 3084 -895 
Q 2688 -1331 1869 -1331 
Q 1566 -1331 1297 -1286 
Q 1028 -1241 775 -1147 
L 775 -588 
Q 1028 -725 1275 -790 
Q 1522 -856 1778 -856 
Q 2344 -856 2625 -561 
Q 2906 -266 2906 331 
L 2906 616 
Q 2728 306 2450 153 
Q 2172 0 1784 0 
Q 1141 0 747 490 
Q 353 981 353 1791 
Q 353 2603 747 3093 
Q 1141 3584 1784 3584 
Q 2172 3584 2450 3431 
Q 2728 3278 2906 2969 
L 2906 3500 
L 3481 3500 
L 3481 434 
z
" transform="scale(0.015625)"/>
       <path id="DejaVuSans-45" d="M 628 4666 
L 3578 4666 
L 3578 4134 
L 1259 4134 
L 1259 2753 
L 3481 2753 
L 3481 2222 
L 1259 2222 
L 1259 531 
L 3634 531 
L 3634 0 
L 628 0 
L 628 4666 
z
" transform="scale(0.015625)"/>
      </defs>
      <use xlink:href="#DejaVuSans-31"/>
      <use xlink:href="#DejaVuSans-20" x="63.623047"/>
      <use xlink:href="#DejaVuSans-53" x="95.410156"/>
      <use xlink:href="#DejaVuSans-74" x="158.886719"/>
      <use xlink:href="#DejaVuSans-65" x="198.095703"/>
      <use xlink:href="#DejaVuSans-70" x="259.619141"/>
      <use xlink:href="#DejaVuSans-20" x="323.095703"/>
      <use xlink:href="#DejaVuSans-46" x="354.882812"/>
      <use xlink:href="#DejaVuSans-6f" x="408.777344"/>
      <use xlink:href="#DejaVuSans-72" x="469.958984"/>
      <use xlink:href="#DejaVuSans-63" x="508.822266"/>
      <use xlink:href="#DejaVuSans-61" x="563.802734"/>
      <use xlink:href="#DejaVuSans-73" x="625.082031"/>
      <use xlink:href="#DejaVuSans-74" x="677.181641"/>
      <use xlink:href="#DejaVuSans-69" x="716.390625"/>
      <use xlink:href="#DejaVuSans-6e" x="744.173828"/>
      <use xlink:href="#DejaVuSans-67" x="807.552734"/>
      <use xlink:href="#DejaVuSans-20" x="871.029297"/>
      <use xlink:href="#DejaVuSans-45" x="902.816406"/>
      <use xlink:href="#DejaVuSans-72" x="966"/>
      <use xlink:href="#DejaVuSans-72" x="1005.363281"/>
      <use xlink:href="#DejaVuSans-6f" x="1044.226562"/>
      <use xlink:href="#DejaVuSans-72" x="1105.408203"/>
     </g>
    </g>
   </g>
   <g id="patch_3">
    <path d="M 89.900142 187.677656 
L 94.702724 187.677656 
L 94.702724 145.659425 
L 89.900142 145.659425 
z
" clip-path="url(#pd59dc2f00e)" style="fill: #1f77b4"/>
   </g>
   <g id="patch_4">
    <path d="M 95.90337 187.677656 
L 100.705952 187.677656 
L 100.705952 129.601276 
L 95.90337 129.601276 
z
" clip-path="url(#pd59dc2f00e)" style="fill: #1f77b4"/>
   </g>
   <g id="patch_5">
    <path d="M 101.906597 187.677656 
L 106.709179 187.677656 
L 106.709179 126.223119 
L 101.906597 126.223119 
z
" clip-path="url(#pd59dc2f00e)" style="fill: #1f77b4"/>
   </g>
   <g id="patch_6">
    <path d="M 107.909825 187.677656 
L 112.712407 187.677656 
L 112.712407 109.473021 
L 107.909825 109.473021 
z
" clip-path="url(#pd59dc2f00e)" style="fill: #1f77b4"/>
   </g>
   <g id="patch_7">
    <path d="M 113.913052 187.677656 
L 118.715634 187.677656 
L 118.715634 128.839141 
L 113.913052 128.839141 
z
" clip-path="url(#pd59dc2f00e)" style="fill: #1f77b4"/>
   </g>
   <g id="patch_8">
    <path d="M 119.91628 187.677656 
L 124.718862 187.677656 
L 124.718862 126.924761 
L 119.91628 126.924761 
z
" clip-path="url(#pd59dc2f00e)" style="fill: #1f77b4"/>
   </g>
   <g id="patch_9">
    <path d="M 125.919507 187.677656 
L 130.722089 187.677656 
L 130.722089 136.396069 
L 125.919507 136.396069 
z
" clip-path="url(#pd59dc2f00e)" style="fill: #1f77b4"/>
   </g>
   <g id="patch_10">
    <path d="M 131.922735 187.677656 
L 136.725317 187.677656 
L 136.725317 141.446767 
L 131.922735 141.446767 
z
" clip-path="url(#pd59dc2f00e)" style="fill: #1f77b4"/>
   </g>
   <g id="patch_11">
    <path d="M 137.925962 187.677656 
L 142.728544 187.677656 
L 142.728544 131.20824 
L 137.925962 131.20824 
z
" clip-path="url(#pd59dc2f00e)" style="fill: #1f77b4"/>
   </g>
   <g id="patch_12">
    <path d="M 143.92919 187.677656 
L 148.731772 187.677656 
L 148.731772 144.230343 
L 143.92919 144.230343 
z
" clip-path="url(#pd59dc2f00e)" style="fill: #1f77b4"/>
   </g>
   <g id="patch_13">
    <path d="M 149.932417 187.677656 
L 154.734999 187.677656 
L 154.734999 147.039674 
L 149.932417 147.039674 
z
" clip-path="url(#pd59dc2f00e)" style="fill: #1f77b4"/>
   </g>
   <g id="patch_14">
    <path d="M 155.935645 187.677656 
L 160.738227 187.677656 
L 160.738227 121.249084 
L 155.935645 121.249084 
z
" clip-path="url(#pd59dc2f00e)" style="fill: #1f77b4"/>
   </g>
   <g id="patch_15">
    <path d="M 161.938873 187.677656 
L 166.741455 187.677656 
L 166.741455 131.565533 
L 161.938873 131.565533 
z
" clip-path="url(#pd59dc2f00e)" style="fill: #1f77b4"/>
   </g>
   <g id="patch_16">
    <path d="M 167.9421 187.677656 
L 172.744682 187.677656 
L 172.744682 129.347056 
L 167.9421 129.347056 
z
" clip-path="url(#pd59dc2f00e)" style="fill: #ff7f0e"/>
   </g>
   <g id="patch_17">
    <path d="M 173.945328 187.677656 
L 178.74791 187.677656 
L 178.74791 121.776223 
L 173.945328 121.776223 
z
" clip-path="url(#pd59dc2f00e)" style="fill: #ff7f0e"/>
   </g>
   <g id="patch_18">
    <path d="M 179.948555 187.677656 
L 184.751137 187.677656 
L 184.751137 143.992225 
L 179.948555 143.992225 
z
" clip-path="url(#pd59dc2f00e)" style="fill: #ff7f0e"/>
   </g>
   <g id="patch_19">
    <path d="M 185.951783 187.677656 
L 190.754365 187.677656 
L 190.754365 130.3706 
L 185.951783 130.3706 
z
" clip-path="url(#pd59dc2f00e)" style="fill: #ff7f0e"/>
   </g>
   <g id="patch_20">
    <path d="M 191.95501 187.677656 
L 196.757592 187.677656 
L 196.757592 131.650696 
L 191.95501 131.650696 
z
" clip-path="url(#pd59dc2f00e)" style="fill: #ff7f0e"/>
   </g>
   <g id="patch_21">
    <path d="M 197.958238 187.677656 
L 202.76082 187.677656 
L 202.76082 106.273255 
L 197.958238 106.273255 
z
" clip-path="url(#pd59dc2f00e)" style="fill: #ff7f0e"/>
   </g>
   <g id="patch_22">
    <path d="M 203.961465 187.677656 
L 208.764047 187.677656 
L 208.764047 90.944097 
L 203.961465 90.944097 
z
" clip-path="url(#pd59dc2f00e)" style="fill: #ff7f0e"/>
   </g>
   <g id="patch_23">
    <path d="M 209.964693 187.677656 
L 214.767275 187.677656 
L 214.767275 144.628313 
L 209.964693 144.628313 
z
" clip-path="url(#pd59dc2f00e)" style="fill: #ff7f0e"/>
   </g>
   <g id="patch_24">
    <path d="M 215.96792 187.677656 
L 220.770502 187.677656 
L 220.770502 129.407281 
L 215.96792 129.407281 
z
" clip-path="url(#pd59dc2f00e)" style="fill: #2ca02c"/>
   </g>
   <g id="patch_25">
    <path d="M 221.971148 187.677656 
L 226.77373 187.677656 
L 226.77373 32.363371 
L 221.971148 32.363371 
z
" clip-path="url(#pd59dc2f00e)" style="fill: #2ca02c"/>
   </g>
   <g id="patch_26">
    <path d="M 227.974376 187.677656 
L 232.776958 187.677656 
L 232.776958 101.597268 
L 227.974376 101.597268 
z
" clip-path="url(#pd59dc2f00e)" style="fill: #2ca02c"/>
   </g>
   <g id="patch_27">
    <path d="M 233.977603 187.677656 
L 238.780185 187.677656 
L 238.780185 121.736448 
L 233.977603 121.736448 
z
" clip-path="url(#pd59dc2f00e)" style="fill: #2ca02c"/>
   </g>
   <g id="patch_28">
    <path d="M 239.980831 187.677656 
L 244.783413 187.677656 
L 244.783413 159.557596 
L 239.980831 159.557596 
z
" clip-path="url(#pd59dc2f00e)" style="fill: #d62728"/>
   </g>
   <g id="patch_29">
    <path d="M 245.984058 187.677656 
L 250.78664 187.677656 
L 250.78664 138.278342 
L 245.984058 138.278342 
z
" clip-path="url(#pd59dc2f00e)" style="fill: #d62728"/>
   </g>
   <g id="patch_30">
    <path d="M 251.987286 187.677656 
L 256.789868 187.677656 
L 256.789868 128.675991 
L 251.987286 128.675991 
z
" clip-path="url(#pd59dc2f00e)" style="fill: #d62728"/>
   </g>
   <g id="patch_31">
    <path d="M 257.990513 187.677656 
L 262.793095 187.677656 
L 262.793095 116.343987 
L 257.990513 116.343987 
z
" clip-path="url(#pd59dc2f00e)" style="fill: #d62728"/>
   </g>
   <g id="patch_32">
    <path d="M 263.993741 187.677656 
L 268.796323 187.677656 
L 268.796323 134.8801 
L 263.993741 134.8801 
z
" clip-path="url(#pd59dc2f00e)" style="fill: #d62728"/>
   </g>
   <g id="patch_33">
    <path d="M 269.996968 187.677656 
L 274.79955 187.677656 
L 274.79955 131.487917 
L 269.996968 131.487917 
z
" clip-path="url(#pd59dc2f00e)" style="fill: #d62728"/>
   </g>
   <g id="patch_34">
    <path d="M 276.000196 187.677656 
L 280.802778 187.677656 
L 280.802778 143.980285 
L 276.000196 143.980285 
z
" clip-path="url(#pd59dc2f00e)" style="fill: #9467bd"/>
   </g>
   <g id="patch_35">
    <path d="M 282.003423 187.677656 
L 286.806005 187.677656 
L 286.806005 87.094233 
L 282.003423 87.094233 
z
" clip-path="url(#pd59dc2f00e)" style="fill: #8c564b"/>
   </g>
   <g id="patch_36">
    <path d="M 288.006651 187.677656 
L 292.809233 187.677656 
L 292.809233 152.980568 
L 288.006651 152.980568 
z
" clip-path="url(#pd59dc2f00e)" style="fill: #8c564b"/>
   </g>
   <g id="patch_37">
    <path d="M 79.754688 187.677656 
L 79.754688 24.597656 
" style="fill: none; stroke: #000000; stroke-width: 1.5; stroke-linejoin: miter; stroke-linecap: square"/>
   </g>
   <g id="patch_38">
    <path d="M 302.954687 187.677656 
L 302.954687 24.597656 
" style="fill: none; stroke: #000000; stroke-width: 1.5; stroke-linejoin: miter; stroke-linecap: square"/>
   </g>
   <g id="patch_39">
    <path d="M 79.754688 187.677656 
L 302.954688 187.677656 
" style="fill: none; stroke: #000000; stroke-width: 1.5; stroke-linejoin: miter; stroke-linecap: square"/>
   </g>
   <g id="patch_40">
    <path d="M 79.754688 24.597656 
L 302.954688 24.597656 
" style="fill: none; stroke: #000000; stroke-width: 1.5; stroke-linejoin: miter; stroke-linecap: square"/>
   </g>
   <g id="text_11">
    <!--  Aug (r = 70) -->
    <g transform="translate(142.411328 18.597656)scale(0.15 -0.15)">
     <defs>
      <path id="DejaVuSans-41" d="M 2188 4044 
L 1331 1722 
L 3047 1722 
L 2188 4044 
z
M 1831 4666 
L 2547 4666 
L 4325 0 
L 3669 0 
L 3244 1197 
L 1141 1197 
L 716 0 
L 50 0 
L 1831 4666 
z
" transform="scale(0.015625)"/>
      <path id="DejaVuSans-75" d="M 544 1381 
L 544 3500 
L 1119 3500 
L 1119 1403 
Q 1119 906 1312 657 
Q 1506 409 1894 409 
Q 2359 409 2629 706 
Q 2900 1003 2900 1516 
L 2900 3500 
L 3475 3500 
L 3475 0 
L 2900 0 
L 2900 538 
Q 2691 219 2414 64 
Q 2138 -91 1772 -91 
Q 1169 -91 856 284 
Q 544 659 544 1381 
z
M 1991 3584 
L 1991 3584 
z
" transform="scale(0.015625)"/>
      <path id="DejaVuSans-28" d="M 1984 4856 
Q 1566 4138 1362 3434 
Q 1159 2731 1159 2009 
Q 1159 1288 1364 580 
Q 1569 -128 1984 -844 
L 1484 -844 
Q 1016 -109 783 600 
Q 550 1309 550 2009 
Q 550 2706 781 3412 
Q 1013 4119 1484 4856 
L 1984 4856 
z
" transform="scale(0.015625)"/>
      <path id="DejaVuSans-3d" d="M 678 2906 
L 4684 2906 
L 4684 2381 
L 678 2381 
L 678 2906 
z
M 678 1631 
L 4684 1631 
L 4684 1100 
L 678 1100 
L 678 1631 
z
" transform="scale(0.015625)"/>
      <path id="DejaVuSans-37" d="M 525 4666 
L 3525 4666 
L 3525 4397 
L 1831 0 
L 1172 0 
L 2766 4134 
L 525 4134 
L 525 4666 
z
" transform="scale(0.015625)"/>
      <path id="DejaVuSans-29" d="M 513 4856 
L 1013 4856 
Q 1481 4119 1714 3412 
Q 1947 2706 1947 2009 
Q 1947 1309 1714 600 
Q 1481 -109 1013 -844 
L 513 -844 
Q 928 -128 1133 580 
Q 1338 1288 1338 2009 
Q 1338 2731 1133 3434 
Q 928 4138 513 4856 
z
" transform="scale(0.015625)"/>
     </defs>
     <use xlink:href="#DejaVuSans-20"/>
     <use xlink:href="#DejaVuSans-41" x="31.787109"/>
     <use xlink:href="#DejaVuSans-75" x="100.195312"/>
     <use xlink:href="#DejaVuSans-67" x="163.574219"/>
     <use xlink:href="#DejaVuSans-20" x="227.050781"/>
     <use xlink:href="#DejaVuSans-28" x="258.837891"/>
     <use xlink:href="#DejaVuSans-72" x="297.851562"/>
     <use xlink:href="#DejaVuSans-20" x="338.964844"/>
     <use xlink:href="#DejaVuSans-3d" x="370.751953"/>
     <use xlink:href="#DejaVuSans-20" x="454.541016"/>
     <use xlink:href="#DejaVuSans-37" x="486.328125"/>
     <use xlink:href="#DejaVuSans-30" x="549.951172"/>
     <use xlink:href="#DejaVuSans-29" x="613.574219"/>
    </g>
   </g>
   <g id="legend_1">
    <g id="patch_41">
     <path d="M 322.444687 138.919469 
L 453.378156 138.919469 
Q 455.758156 138.919469 455.758156 136.539469 
L 455.758156 32.927656 
Q 455.758156 30.547656 453.378156 30.547656 
L 322.444687 30.547656 
Q 320.064687 30.547656 320.064687 32.927656 
L 320.064687 136.539469 
Q 320.064687 138.919469 322.444687 138.919469 
z
" style="fill: #ffffff; opacity: 0.8; stroke: #cccccc; stroke-linejoin: miter"/>
    </g>
    <g id="patch_42">
     <path d="M 324.824687 44.349797 
L 348.624687 44.349797 
L 348.624687 36.019797 
L 324.824687 36.019797 
z
" style="fill: #1f77b4"/>
    </g>
    <g id="text_12">
     <!-- downtown -->
     <g transform="translate(358.144687 44.349797)scale(0.119 -0.119)">
      <defs>
       <path id="DejaVuSans-64" d="M 2906 2969 
L 2906 4863 
L 3481 4863 
L 3481 0 
L 2906 0 
L 2906 525 
Q 2725 213 2448 61 
Q 2172 -91 1784 -91 
Q 1150 -91 751 415 
Q 353 922 353 1747 
Q 353 2572 751 3078 
Q 1150 3584 1784 3584 
Q 2172 3584 2448 3432 
Q 2725 3281 2906 2969 
z
M 947 1747 
Q 947 1113 1208 752 
Q 1469 391 1925 391 
Q 2381 391 2643 752 
Q 2906 1113 2906 1747 
Q 2906 2381 2643 2742 
Q 2381 3103 1925 3103 
Q 1469 3103 1208 2742 
Q 947 2381 947 1747 
z
" transform="scale(0.015625)"/>
       <path id="DejaVuSans-77" d="M 269 3500 
L 844 3500 
L 1563 769 
L 2278 3500 
L 2956 3500 
L 3675 769 
L 4391 3500 
L 4966 3500 
L 4050 0 
L 3372 0 
L 2619 2869 
L 1863 0 
L 1184 0 
L 269 3500 
z
" transform="scale(0.015625)"/>
      </defs>
      <use xlink:href="#DejaVuSans-64"/>
      <use xlink:href="#DejaVuSans-6f" x="63.476562"/>
      <use xlink:href="#DejaVuSans-77" x="124.658203"/>
      <use xlink:href="#DejaVuSans-6e" x="206.445312"/>
      <use xlink:href="#DejaVuSans-74" x="269.824219"/>
      <use xlink:href="#DejaVuSans-6f" x="309.033203"/>
      <use xlink:href="#DejaVuSans-77" x="370.214844"/>
      <use xlink:href="#DejaVuSans-6e" x="452.001953"/>
     </g>
    </g>
    <g id="patch_43">
     <path d="M 324.824687 61.816766 
L 348.624687 61.816766 
L 348.624687 53.486766 
L 324.824687 53.486766 
z
" style="fill: #ff7f0e"/>
    </g>
    <g id="text_13">
     <!-- suburban -->
     <g transform="translate(358.144687 61.816766)scale(0.119 -0.119)">
      <defs>
       <path id="DejaVuSans-62" d="M 3116 1747 
Q 3116 2381 2855 2742 
Q 2594 3103 2138 3103 
Q 1681 3103 1420 2742 
Q 1159 2381 1159 1747 
Q 1159 1113 1420 752 
Q 1681 391 2138 391 
Q 2594 391 2855 752 
Q 3116 1113 3116 1747 
z
M 1159 2969 
Q 1341 3281 1617 3432 
Q 1894 3584 2278 3584 
Q 2916 3584 3314 3078 
Q 3713 2572 3713 1747 
Q 3713 922 3314 415 
Q 2916 -91 2278 -91 
Q 1894 -91 1617 61 
Q 1341 213 1159 525 
L 1159 0 
L 581 0 
L 581 4863 
L 1159 4863 
L 1159 2969 
z
" transform="scale(0.015625)"/>
      </defs>
      <use xlink:href="#DejaVuSans-73"/>
      <use xlink:href="#DejaVuSans-75" x="52.099609"/>
      <use xlink:href="#DejaVuSans-62" x="115.478516"/>
      <use xlink:href="#DejaVuSans-75" x="178.955078"/>
      <use xlink:href="#DejaVuSans-72" x="242.333984"/>
      <use xlink:href="#DejaVuSans-62" x="283.447266"/>
      <use xlink:href="#DejaVuSans-61" x="346.923828"/>
      <use xlink:href="#DejaVuSans-6e" x="408.203125"/>
     </g>
    </g>
    <g id="patch_44">
     <path d="M 324.824687 79.283734 
L 348.624687 79.283734 
L 348.624687 70.953734 
L 324.824687 70.953734 
z
" style="fill: #2ca02c"/>
    </g>
    <g id="text_14">
     <!-- northwest rural -->
     <g transform="translate(358.144687 79.283734)scale(0.119 -0.119)">
      <defs>
       <path id="DejaVuSans-68" d="M 3513 2113 
L 3513 0 
L 2938 0 
L 2938 2094 
Q 2938 2591 2744 2837 
Q 2550 3084 2163 3084 
Q 1697 3084 1428 2787 
Q 1159 2491 1159 1978 
L 1159 0 
L 581 0 
L 581 4863 
L 1159 4863 
L 1159 2956 
Q 1366 3272 1645 3428 
Q 1925 3584 2291 3584 
Q 2894 3584 3203 3211 
Q 3513 2838 3513 2113 
z
" transform="scale(0.015625)"/>
       <path id="DejaVuSans-6c" d="M 603 4863 
L 1178 4863 
L 1178 0 
L 603 0 
L 603 4863 
z
" transform="scale(0.015625)"/>
      </defs>
      <use xlink:href="#DejaVuSans-6e"/>
      <use xlink:href="#DejaVuSans-6f" x="63.378906"/>
      <use xlink:href="#DejaVuSans-72" x="124.560547"/>
      <use xlink:href="#DejaVuSans-74" x="165.673828"/>
      <use xlink:href="#DejaVuSans-68" x="204.882812"/>
      <use xlink:href="#DejaVuSans-77" x="268.261719"/>
      <use xlink:href="#DejaVuSans-65" x="350.048828"/>
      <use xlink:href="#DejaVuSans-73" x="411.572266"/>
      <use xlink:href="#DejaVuSans-74" x="463.671875"/>
      <use xlink:href="#DejaVuSans-20" x="502.880859"/>
      <use xlink:href="#DejaVuSans-72" x="534.667969"/>
      <use xlink:href="#DejaVuSans-75" x="575.78125"/>
      <use xlink:href="#DejaVuSans-72" x="639.160156"/>
      <use xlink:href="#DejaVuSans-61" x="680.273438"/>
      <use xlink:href="#DejaVuSans-6c" x="741.552734"/>
     </g>
    </g>
    <g id="patch_45">
     <path d="M 324.824687 96.750703 
L 348.624687 96.750703 
L 348.624687 88.420703 
L 324.824687 88.420703 
z
" style="fill: #d62728"/>
    </g>
    <g id="text_15">
     <!-- northeast rural -->
     <g transform="translate(358.144687 96.750703)scale(0.119 -0.119)">
      <use xlink:href="#DejaVuSans-6e"/>
      <use xlink:href="#DejaVuSans-6f" x="63.378906"/>
      <use xlink:href="#DejaVuSans-72" x="124.560547"/>
      <use xlink:href="#DejaVuSans-74" x="165.673828"/>
      <use xlink:href="#DejaVuSans-68" x="204.882812"/>
      <use xlink:href="#DejaVuSans-65" x="268.261719"/>
      <use xlink:href="#DejaVuSans-61" x="329.785156"/>
      <use xlink:href="#DejaVuSans-73" x="391.064453"/>
      <use xlink:href="#DejaVuSans-74" x="443.164062"/>
      <use xlink:href="#DejaVuSans-20" x="482.373047"/>
      <use xlink:href="#DejaVuSans-72" x="514.160156"/>
      <use xlink:href="#DejaVuSans-75" x="555.273438"/>
      <use xlink:href="#DejaVuSans-72" x="618.652344"/>
      <use xlink:href="#DejaVuSans-61" x="659.765625"/>
      <use xlink:href="#DejaVuSans-6c" x="721.044922"/>
     </g>
    </g>
    <g id="patch_46">
     <path d="M 324.824687 114.217672 
L 348.624687 114.217672 
L 348.624687 105.887672 
L 324.824687 105.887672 
z
" style="fill: #9467bd"/>
    </g>
    <g id="text_16">
     <!-- southwest rural -->
     <g transform="translate(358.144687 114.217672)scale(0.119 -0.119)">
      <use xlink:href="#DejaVuSans-73"/>
      <use xlink:href="#DejaVuSans-6f" x="52.099609"/>
      <use xlink:href="#DejaVuSans-75" x="113.28125"/>
      <use xlink:href="#DejaVuSans-74" x="176.660156"/>
      <use xlink:href="#DejaVuSans-68" x="215.869141"/>
      <use xlink:href="#DejaVuSans-77" x="279.248047"/>
      <use xlink:href="#DejaVuSans-65" x="361.035156"/>
      <use xlink:href="#DejaVuSans-73" x="422.558594"/>
      <use xlink:href="#DejaVuSans-74" x="474.658203"/>
      <use xlink:href="#DejaVuSans-20" x="513.867188"/>
      <use xlink:href="#DejaVuSans-72" x="545.654297"/>
      <use xlink:href="#DejaVuSans-75" x="586.767578"/>
      <use xlink:href="#DejaVuSans-72" x="650.146484"/>
      <use xlink:href="#DejaVuSans-61" x="691.259766"/>
      <use xlink:href="#DejaVuSans-6c" x="752.539062"/>
     </g>
    </g>
    <g id="patch_47">
     <path d="M 324.824687 131.684641 
L 348.624687 131.684641 
L 348.624687 123.354641 
L 324.824687 123.354641 
z
" style="fill: #8c564b"/>
    </g>
    <g id="text_17">
     <!-- southeast rural -->
     <g transform="translate(358.144687 131.684641)scale(0.119 -0.119)">
      <use xlink:href="#DejaVuSans-73"/>
      <use xlink:href="#DejaVuSans-6f" x="52.099609"/>
      <use xlink:href="#DejaVuSans-75" x="113.28125"/>
      <use xlink:href="#DejaVuSans-74" x="176.660156"/>
      <use xlink:href="#DejaVuSans-68" x="215.869141"/>
      <use xlink:href="#DejaVuSans-65" x="279.248047"/>
      <use xlink:href="#DejaVuSans-61" x="340.771484"/>
      <use xlink:href="#DejaVuSans-73" x="402.050781"/>
      <use xlink:href="#DejaVuSans-74" x="454.150391"/>
      <use xlink:href="#DejaVuSans-20" x="493.359375"/>
      <use xlink:href="#DejaVuSans-72" x="525.146484"/>
      <use xlink:href="#DejaVuSans-75" x="566.259766"/>
      <use xlink:href="#DejaVuSans-72" x="629.638672"/>
      <use xlink:href="#DejaVuSans-61" x="670.751953"/>
      <use xlink:href="#DejaVuSans-6c" x="732.03125"/>
     </g>
    </g>
   </g>
  </g>
 </g>
 <defs>
  <clipPath id="pd59dc2f00e">
   <rect x="79.754688" y="24.597656" width="223.2" height="163.08"/>
  </clipPath>
 </defs>
</svg>
