<?xml version="1.0" encoding="utf-8" standalone="no"?>
<!DOCTYPE svg PUBLIC "-//W3C//DTD SVG 1.1//EN"
  "http://www.w3.org/Graphics/SVG/1.1/DTD/svg11.dtd">
<svg xmlns:xlink="http://www.w3.org/1999/xlink" width="752.197592pt" height="217.927031pt" viewBox="0 0 752.197592 217.927031" xmlns="http://www.w3.org/2000/svg" version="1.1">
 <metadata>
  <rdf:RDF xmlns:dc="http://purl.org/dc/elements/1.1/" xmlns:cc="http://creativecommons.org/ns#" xmlns:rdf="http://www.w3.org/1999/02/22-rdf-syntax-ns#">
   <cc:Work>
    <dc:type rdf:resource="http://purl.org/dc/dcmitype/StillImage"/>
    <dc:date>2022-01-20T23:04:09.040864</dc:date>
    <dc:format>image/svg+xml</dc:format>
    <dc:creator>
     <cc:Agent>
      <dc:title>Matplotlib v3.4.3, https://matplotlib.org/</dc:title>
     </cc:Agent>
    </dc:creator>
   </cc:Work>
  </rdf:RDF>
 </metadata>
 <defs>
  <style type="text/css">*{stroke-linejoin: round; stroke-linecap: butt}</style>
 </defs>
 <g id="figure_1">
  <g id="patch_1">
   <path d="M 0 217.927031 
L 752.197592 217.927031 
L 752.197592 0 
L 0 0 
z
" style="fill: none"/>
  </g>
  <g id="axes_1">
   <g id="patch_2">
    <path d="M 71.632656 187.677656 
L 268.573833 187.677656 
L 268.573833 24.597656 
L 71.632656 24.597656 
z
" style="fill: #ffffff"/>
   </g>
   <g id="matplotlib.axis_1">
    <g id="xtick_1">
     <g id="line2d_1">
      <path d="M 80.584528 187.677656 
L 80.584528 24.597656 
" clip-path="url(#p4c63bb7b30)" style="fill: none; stroke: #b0b0b0; stroke-width: 0.8; stroke-linecap: square"/>
     </g>
     <g id="line2d_2">
      <defs>
       <path id="mea40cdb757" d="M 0 0 
L 0 6 
" style="stroke: #000000; stroke-width: 2"/>
      </defs>
      <g>
       <use xlink:href="#mea40cdb757" x="80.584528" y="187.677656" style="stroke: #000000; stroke-width: 2"/>
      </g>
     </g>
     <g id="text_1">
      <!-- 0 -->
      <g transform="translate(76.130778 207.815469)scale(0.14 -0.14)">
       <defs>
        <path id="DejaVuSans-30" d="M 2034 4250 
Q 1547 4250 1301 3770 
Q 1056 3291 1056 2328 
Q 1056 1369 1301 889 
Q 1547 409 2034 409 
Q 2525 409 2770 889 
Q 3016 1369 3016 2328 
Q 3016 3291 2770 3770 
Q 2525 4250 2034 4250 
z
M 2034 4750 
Q 2819 4750 3233 4129 
Q 3647 3509 3647 2328 
Q 3647 1150 3233 529 
Q 2819 -91 2034 -91 
Q 1250 -91 836 529 
Q 422 1150 422 2328 
Q 422 3509 836 4129 
Q 1250 4750 2034 4750 
z
" transform="scale(0.015625)"/>
       </defs>
       <use xlink:href="#DejaVuSans-30"/>
      </g>
     </g>
    </g>
    <g id="xtick_2">
     <g id="line2d_3">
      <path d="M 126.296213 187.677656 
L 126.296213 24.597656 
" clip-path="url(#p4c63bb7b30)" style="fill: none; stroke: #b0b0b0; stroke-width: 0.8; stroke-linecap: square"/>
     </g>
     <g id="line2d_4">
      <g>
       <use xlink:href="#mea40cdb757" x="126.296213" y="187.677656" style="stroke: #000000; stroke-width: 2"/>
      </g>
     </g>
     <g id="text_2">
      <!-- 24 -->
      <g transform="translate(117.388713 207.815469)scale(0.14 -0.14)">
       <defs>
        <path id="DejaVuSans-32" d="M 1228 531 
L 3431 531 
L 3431 0 
L 469 0 
L 469 531 
Q 828 903 1448 1529 
Q 2069 2156 2228 2338 
Q 2531 2678 2651 2914 
Q 2772 3150 2772 3378 
Q 2772 3750 2511 3984 
Q 2250 4219 1831 4219 
Q 1534 4219 1204 4116 
Q 875 4013 500 3803 
L 500 4441 
Q 881 4594 1212 4672 
Q 1544 4750 1819 4750 
Q 2544 4750 2975 4387 
Q 3406 4025 3406 3419 
Q 3406 3131 3298 2873 
Q 3191 2616 2906 2266 
Q 2828 2175 2409 1742 
Q 1991 1309 1228 531 
z
" transform="scale(0.015625)"/>
        <path id="DejaVuSans-34" d="M 2419 4116 
L 825 1625 
L 2419 1625 
L 2419 4116 
z
M 2253 4666 
L 3047 4666 
L 3047 1625 
L 3713 1625 
L 3713 1100 
L 3047 1100 
L 3047 0 
L 2419 0 
L 2419 1100 
L 313 1100 
L 313 1709 
L 2253 4666 
z
" transform="scale(0.015625)"/>
       </defs>
       <use xlink:href="#DejaVuSans-32"/>
       <use xlink:href="#DejaVuSans-34" x="63.623047"/>
      </g>
     </g>
    </g>
    <g id="xtick_3">
     <g id="line2d_5">
      <path d="M 172.007898 187.677656 
L 172.007898 24.597656 
" clip-path="url(#p4c63bb7b30)" style="fill: none; stroke: #b0b0b0; stroke-width: 0.8; stroke-linecap: square"/>
     </g>
     <g id="line2d_6">
      <g>
       <use xlink:href="#mea40cdb757" x="172.007898" y="187.677656" style="stroke: #000000; stroke-width: 2"/>
      </g>
     </g>
     <g id="text_3">
      <!-- 48 -->
      <g transform="translate(163.100398 207.815469)scale(0.14 -0.14)">
       <defs>
        <path id="DejaVuSans-38" d="M 2034 2216 
Q 1584 2216 1326 1975 
Q 1069 1734 1069 1313 
Q 1069 891 1326 650 
Q 1584 409 2034 409 
Q 2484 409 2743 651 
Q 3003 894 3003 1313 
Q 3003 1734 2745 1975 
Q 2488 2216 2034 2216 
z
M 1403 2484 
Q 997 2584 770 2862 
Q 544 3141 544 3541 
Q 544 4100 942 4425 
Q 1341 4750 2034 4750 
Q 2731 4750 3128 4425 
Q 3525 4100 3525 3541 
Q 3525 3141 3298 2862 
Q 3072 2584 2669 2484 
Q 3125 2378 3379 2068 
Q 3634 1759 3634 1313 
Q 3634 634 3220 271 
Q 2806 -91 2034 -91 
Q 1263 -91 848 271 
Q 434 634 434 1313 
Q 434 1759 690 2068 
Q 947 2378 1403 2484 
z
M 1172 3481 
Q 1172 3119 1398 2916 
Q 1625 2713 2034 2713 
Q 2441 2713 2670 2916 
Q 2900 3119 2900 3481 
Q 2900 3844 2670 4047 
Q 2441 4250 2034 4250 
Q 1625 4250 1398 4047 
Q 1172 3844 1172 3481 
z
" transform="scale(0.015625)"/>
       </defs>
       <use xlink:href="#DejaVuSans-34"/>
       <use xlink:href="#DejaVuSans-38" x="63.623047"/>
      </g>
     </g>
    </g>
    <g id="xtick_4">
     <g id="line2d_7">
      <path d="M 217.719583 187.677656 
L 217.719583 24.597656 
" clip-path="url(#p4c63bb7b30)" style="fill: none; stroke: #b0b0b0; stroke-width: 0.8; stroke-linecap: square"/>
     </g>
     <g id="line2d_8">
      <g>
       <use xlink:href="#mea40cdb757" x="217.719583" y="187.677656" style="stroke: #000000; stroke-width: 2"/>
      </g>
     </g>
     <g id="text_4">
      <!-- 72 -->
      <g transform="translate(208.812083 207.815469)scale(0.14 -0.14)">
       <defs>
        <path id="DejaVuSans-37" d="M 525 4666 
L 3525 4666 
L 3525 4397 
L 1831 0 
L 1172 0 
L 2766 4134 
L 525 4134 
L 525 4666 
z
" transform="scale(0.015625)"/>
       </defs>
       <use xlink:href="#DejaVuSans-37"/>
       <use xlink:href="#DejaVuSans-32" x="63.623047"/>
      </g>
     </g>
    </g>
    <g id="xtick_5">
     <g id="line2d_9">
      <path d="M 263.431268 187.677656 
L 263.431268 24.597656 
" clip-path="url(#p4c63bb7b30)" style="fill: none; stroke: #b0b0b0; stroke-width: 0.8; stroke-linecap: square"/>
     </g>
     <g id="line2d_10">
      <g>
       <use xlink:href="#mea40cdb757" x="263.431268" y="187.677656" style="stroke: #000000; stroke-width: 2"/>
      </g>
     </g>
     <g id="text_5">
      <!-- 96 -->
      <g transform="translate(254.523768 207.815469)scale(0.14 -0.14)">
       <defs>
        <path id="DejaVuSans-39" d="M 703 97 
L 703 672 
Q 941 559 1184 500 
Q 1428 441 1663 441 
Q 2288 441 2617 861 
Q 2947 1281 2994 2138 
Q 2813 1869 2534 1725 
Q 2256 1581 1919 1581 
Q 1219 1581 811 2004 
Q 403 2428 403 3163 
Q 403 3881 828 4315 
Q 1253 4750 1959 4750 
Q 2769 4750 3195 4129 
Q 3622 3509 3622 2328 
Q 3622 1225 3098 567 
Q 2575 -91 1691 -91 
Q 1453 -91 1209 -44 
Q 966 3 703 97 
z
M 1959 2075 
Q 2384 2075 2632 2365 
Q 2881 2656 2881 3163 
Q 2881 3666 2632 3958 
Q 2384 4250 1959 4250 
Q 1534 4250 1286 3958 
Q 1038 3666 1038 3163 
Q 1038 2656 1286 2365 
Q 1534 2075 1959 2075 
z
" transform="scale(0.015625)"/>
        <path id="DejaVuSans-36" d="M 2113 2584 
Q 1688 2584 1439 2293 
Q 1191 2003 1191 1497 
Q 1191 994 1439 701 
Q 1688 409 2113 409 
Q 2538 409 2786 701 
Q 3034 994 3034 1497 
Q 3034 2003 2786 2293 
Q 2538 2584 2113 2584 
z
M 3366 4563 
L 3366 3988 
Q 3128 4100 2886 4159 
Q 2644 4219 2406 4219 
Q 1781 4219 1451 3797 
Q 1122 3375 1075 2522 
Q 1259 2794 1537 2939 
Q 1816 3084 2150 3084 
Q 2853 3084 3261 2657 
Q 3669 2231 3669 1497 
Q 3669 778 3244 343 
Q 2819 -91 2113 -91 
Q 1303 -91 875 529 
Q 447 1150 447 2328 
Q 447 3434 972 4092 
Q 1497 4750 2381 4750 
Q 2619 4750 2861 4703 
Q 3103 4656 3366 4563 
z
" transform="scale(0.015625)"/>
       </defs>
       <use xlink:href="#DejaVuSans-39"/>
       <use xlink:href="#DejaVuSans-36" x="63.623047"/>
      </g>
     </g>
    </g>
    <g id="xtick_6">
     <g id="line2d_11">
      <defs>
       <path id="m07959998d2" d="M 0 0 
L 0 3 
" style="stroke: #000000; stroke-width: 2"/>
      </defs>
      <g>
       <use xlink:href="#m07959998d2" x="92.012449" y="187.677656" style="stroke: #000000; stroke-width: 2"/>
      </g>
     </g>
    </g>
    <g id="xtick_7">
     <g id="line2d_12">
      <g>
       <use xlink:href="#m07959998d2" x="103.44037" y="187.677656" style="stroke: #000000; stroke-width: 2"/>
      </g>
     </g>
    </g>
    <g id="xtick_8">
     <g id="line2d_13">
      <g>
       <use xlink:href="#m07959998d2" x="114.868292" y="187.677656" style="stroke: #000000; stroke-width: 2"/>
      </g>
     </g>
    </g>
    <g id="xtick_9">
     <g id="line2d_14">
      <g>
       <use xlink:href="#m07959998d2" x="137.724134" y="187.677656" style="stroke: #000000; stroke-width: 2"/>
      </g>
     </g>
    </g>
    <g id="xtick_10">
     <g id="line2d_15">
      <g>
       <use xlink:href="#m07959998d2" x="149.152055" y="187.677656" style="stroke: #000000; stroke-width: 2"/>
      </g>
     </g>
    </g>
    <g id="xtick_11">
     <g id="line2d_16">
      <g>
       <use xlink:href="#m07959998d2" x="160.579977" y="187.677656" style="stroke: #000000; stroke-width: 2"/>
      </g>
     </g>
    </g>
    <g id="xtick_12">
     <g id="line2d_17">
      <g>
       <use xlink:href="#m07959998d2" x="183.435819" y="187.677656" style="stroke: #000000; stroke-width: 2"/>
      </g>
     </g>
    </g>
    <g id="xtick_13">
     <g id="line2d_18">
      <g>
       <use xlink:href="#m07959998d2" x="194.863741" y="187.677656" style="stroke: #000000; stroke-width: 2"/>
      </g>
     </g>
    </g>
    <g id="xtick_14">
     <g id="line2d_19">
      <g>
       <use xlink:href="#m07959998d2" x="206.291662" y="187.677656" style="stroke: #000000; stroke-width: 2"/>
      </g>
     </g>
    </g>
    <g id="xtick_15">
     <g id="line2d_20">
      <g>
       <use xlink:href="#m07959998d2" x="229.147504" y="187.677656" style="stroke: #000000; stroke-width: 2"/>
      </g>
     </g>
    </g>
    <g id="xtick_16">
     <g id="line2d_21">
      <g>
       <use xlink:href="#m07959998d2" x="240.575426" y="187.677656" style="stroke: #000000; stroke-width: 2"/>
      </g>
     </g>
    </g>
    <g id="xtick_17">
     <g id="line2d_22">
      <g>
       <use xlink:href="#m07959998d2" x="252.003347" y="187.677656" style="stroke: #000000; stroke-width: 2"/>
      </g>
     </g>
    </g>
   </g>
   <g id="matplotlib.axis_2">
    <g id="ytick_1">
     <g id="line2d_23">
      <path d="M 71.632656 177.485156 
L 268.573833 177.485156 
" clip-path="url(#p4c63bb7b30)" style="fill: none; stroke: #b0b0b0; stroke-width: 0.8; stroke-linecap: square"/>
     </g>
     <g id="line2d_24">
      <defs>
       <path id="m067e9fcc94" d="M 0 0 
L -6 0 
" style="stroke: #000000; stroke-width: 2"/>
      </defs>
      <g>
       <use xlink:href="#m067e9fcc94" x="71.632656" y="177.485156" style="stroke: #000000; stroke-width: 2"/>
      </g>
     </g>
     <g id="text_6">
      <!-- −0.2 -->
      <g transform="translate(28.136719 182.804062)scale(0.14 -0.14)">
       <defs>
        <path id="DejaVuSans-2212" d="M 678 2272 
L 4684 2272 
L 4684 1741 
L 678 1741 
L 678 2272 
z
" transform="scale(0.015625)"/>
        <path id="DejaVuSans-2e" d="M 684 794 
L 1344 794 
L 1344 0 
L 684 0 
L 684 794 
z
" transform="scale(0.015625)"/>
       </defs>
       <use xlink:href="#DejaVuSans-2212"/>
       <use xlink:href="#DejaVuSans-30" x="83.789062"/>
       <use xlink:href="#DejaVuSans-2e" x="147.412109"/>
       <use xlink:href="#DejaVuSans-32" x="179.199219"/>
      </g>
     </g>
    </g>
    <g id="ytick_2">
     <g id="line2d_25">
      <path d="M 71.632656 136.715156 
L 268.573833 136.715156 
" clip-path="url(#p4c63bb7b30)" style="fill: none; stroke: #b0b0b0; stroke-width: 0.8; stroke-linecap: square"/>
     </g>
     <g id="line2d_26">
      <g>
       <use xlink:href="#m067e9fcc94" x="71.632656" y="136.715156" style="stroke: #000000; stroke-width: 2"/>
      </g>
     </g>
     <g id="text_7">
      <!-- 0.0 -->
      <g transform="translate(39.868281 142.034062)scale(0.14 -0.14)">
       <use xlink:href="#DejaVuSans-30"/>
       <use xlink:href="#DejaVuSans-2e" x="63.623047"/>
       <use xlink:href="#DejaVuSans-30" x="95.410156"/>
      </g>
     </g>
    </g>
    <g id="ytick_3">
     <g id="line2d_27">
      <path d="M 71.632656 95.945156 
L 268.573833 95.945156 
" clip-path="url(#p4c63bb7b30)" style="fill: none; stroke: #b0b0b0; stroke-width: 0.8; stroke-linecap: square"/>
     </g>
     <g id="line2d_28">
      <g>
       <use xlink:href="#m067e9fcc94" x="71.632656" y="95.945156" style="stroke: #000000; stroke-width: 2"/>
      </g>
     </g>
     <g id="text_8">
      <!-- 0.2 -->
      <g transform="translate(39.868281 101.264062)scale(0.14 -0.14)">
       <use xlink:href="#DejaVuSans-30"/>
       <use xlink:href="#DejaVuSans-2e" x="63.623047"/>
       <use xlink:href="#DejaVuSans-32" x="95.410156"/>
      </g>
     </g>
    </g>
    <g id="ytick_4">
     <g id="line2d_29">
      <path d="M 71.632656 55.175156 
L 268.573833 55.175156 
" clip-path="url(#p4c63bb7b30)" style="fill: none; stroke: #b0b0b0; stroke-width: 0.8; stroke-linecap: square"/>
     </g>
     <g id="line2d_30">
      <g>
       <use xlink:href="#m067e9fcc94" x="71.632656" y="55.175156" style="stroke: #000000; stroke-width: 2"/>
      </g>
     </g>
     <g id="text_9">
      <!-- 0.4 -->
      <g transform="translate(39.868281 60.494062)scale(0.14 -0.14)">
       <use xlink:href="#DejaVuSans-30"/>
       <use xlink:href="#DejaVuSans-2e" x="63.623047"/>
       <use xlink:href="#DejaVuSans-34" x="95.410156"/>
      </g>
     </g>
    </g>
    <g id="ytick_5">
     <g id="line2d_31">
      <defs>
       <path id="m98b21d42d8" d="M 0 0 
L -3 0 
" style="stroke: #000000; stroke-width: 2"/>
      </defs>
      <g>
       <use xlink:href="#m98b21d42d8" x="71.632656" y="167.292656" style="stroke: #000000; stroke-width: 2"/>
      </g>
     </g>
    </g>
    <g id="ytick_6">
     <g id="line2d_32">
      <g>
       <use xlink:href="#m98b21d42d8" x="71.632656" y="157.100156" style="stroke: #000000; stroke-width: 2"/>
      </g>
     </g>
    </g>
    <g id="ytick_7">
     <g id="line2d_33">
      <g>
       <use xlink:href="#m98b21d42d8" x="71.632656" y="146.907656" style="stroke: #000000; stroke-width: 2"/>
      </g>
     </g>
    </g>
    <g id="ytick_8">
     <g id="line2d_34">
      <g>
       <use xlink:href="#m98b21d42d8" x="71.632656" y="126.522656" style="stroke: #000000; stroke-width: 2"/>
      </g>
     </g>
    </g>
    <g id="ytick_9">
     <g id="line2d_35">
      <g>
       <use xlink:href="#m98b21d42d8" x="71.632656" y="116.330156" style="stroke: #000000; stroke-width: 2"/>
      </g>
     </g>
    </g>
    <g id="ytick_10">
     <g id="line2d_36">
      <g>
       <use xlink:href="#m98b21d42d8" x="71.632656" y="106.137656" style="stroke: #000000; stroke-width: 2"/>
      </g>
     </g>
    </g>
    <g id="ytick_11">
     <g id="line2d_37">
      <g>
       <use xlink:href="#m98b21d42d8" x="71.632656" y="85.752656" style="stroke: #000000; stroke-width: 2"/>
      </g>
     </g>
    </g>
    <g id="ytick_12">
     <g id="line2d_38">
      <g>
       <use xlink:href="#m98b21d42d8" x="71.632656" y="75.560156" style="stroke: #000000; stroke-width: 2"/>
      </g>
     </g>
    </g>
    <g id="ytick_13">
     <g id="line2d_39">
      <g>
       <use xlink:href="#m98b21d42d8" x="71.632656" y="65.367656" style="stroke: #000000; stroke-width: 2"/>
      </g>
     </g>
    </g>
    <g id="ytick_14">
     <g id="line2d_40">
      <g>
       <use xlink:href="#m98b21d42d8" x="71.632656" y="44.982656" style="stroke: #000000; stroke-width: 2"/>
      </g>
     </g>
    </g>
    <g id="ytick_15">
     <g id="line2d_41">
      <g>
       <use xlink:href="#m98b21d42d8" x="71.632656" y="34.790156" style="stroke: #000000; stroke-width: 2"/>
      </g>
     </g>
    </g>
    <g id="ytick_16">
     <g id="line2d_42">
      <g>
       <use xlink:href="#m98b21d42d8" x="71.632656" y="24.597656" style="stroke: #000000; stroke-width: 2"/>
      </g>
     </g>
    </g>
    <g id="text_10">
     <!-- SO2 ATZX -->
     <g transform="translate(20.497266 149.567734)rotate(-90)scale(0.175 -0.175)">
      <defs>
       <path id="DejaVuSans-53" d="M 3425 4513 
L 3425 3897 
Q 3066 4069 2747 4153 
Q 2428 4238 2131 4238 
Q 1616 4238 1336 4038 
Q 1056 3838 1056 3469 
Q 1056 3159 1242 3001 
Q 1428 2844 1947 2747 
L 2328 2669 
Q 3034 2534 3370 2195 
Q 3706 1856 3706 1288 
Q 3706 609 3251 259 
Q 2797 -91 1919 -91 
Q 1588 -91 1214 -16 
Q 841 59 441 206 
L 441 856 
Q 825 641 1194 531 
Q 1563 422 1919 422 
Q 2459 422 2753 634 
Q 3047 847 3047 1241 
Q 3047 1584 2836 1778 
Q 2625 1972 2144 2069 
L 1759 2144 
Q 1053 2284 737 2584 
Q 422 2884 422 3419 
Q 422 4038 858 4394 
Q 1294 4750 2059 4750 
Q 2388 4750 2728 4690 
Q 3069 4631 3425 4513 
z
" transform="scale(0.015625)"/>
       <path id="DejaVuSans-4f" d="M 2522 4238 
Q 1834 4238 1429 3725 
Q 1025 3213 1025 2328 
Q 1025 1447 1429 934 
Q 1834 422 2522 422 
Q 3209 422 3611 934 
Q 4013 1447 4013 2328 
Q 4013 3213 3611 3725 
Q 3209 4238 2522 4238 
z
M 2522 4750 
Q 3503 4750 4090 4092 
Q 4678 3434 4678 2328 
Q 4678 1225 4090 567 
Q 3503 -91 2522 -91 
Q 1538 -91 948 565 
Q 359 1222 359 2328 
Q 359 3434 948 4092 
Q 1538 4750 2522 4750 
z
" transform="scale(0.015625)"/>
       <path id="DejaVuSans-20" transform="scale(0.015625)"/>
       <path id="DejaVuSans-41" d="M 2188 4044 
L 1331 1722 
L 3047 1722 
L 2188 4044 
z
M 1831 4666 
L 2547 4666 
L 4325 0 
L 3669 0 
L 3244 1197 
L 1141 1197 
L 716 0 
L 50 0 
L 1831 4666 
z
" transform="scale(0.015625)"/>
       <path id="DejaVuSans-54" d="M -19 4666 
L 3928 4666 
L 3928 4134 
L 2272 4134 
L 2272 0 
L 1638 0 
L 1638 4134 
L -19 4134 
L -19 4666 
z
" transform="scale(0.015625)"/>
       <path id="DejaVuSans-5a" d="M 359 4666 
L 4025 4666 
L 4025 4184 
L 1075 531 
L 4097 531 
L 4097 0 
L 288 0 
L 288 481 
L 3238 4134 
L 359 4134 
L 359 4666 
z
" transform="scale(0.015625)"/>
       <path id="DejaVuSans-58" d="M 403 4666 
L 1081 4666 
L 2241 2931 
L 3406 4666 
L 4084 4666 
L 2584 2425 
L 4184 0 
L 3506 0 
L 2194 1984 
L 872 0 
L 191 0 
L 1856 2491 
L 403 4666 
z
" transform="scale(0.015625)"/>
      </defs>
      <use xlink:href="#DejaVuSans-53"/>
      <use xlink:href="#DejaVuSans-4f" x="63.476562"/>
      <use xlink:href="#DejaVuSans-32" x="142.1875"/>
      <use xlink:href="#DejaVuSans-20" x="205.810547"/>
      <use xlink:href="#DejaVuSans-41" x="237.597656"/>
      <use xlink:href="#DejaVuSans-54" x="298.255859"/>
      <use xlink:href="#DejaVuSans-5a" x="359.339844"/>
      <use xlink:href="#DejaVuSans-58" x="427.845703"/>
     </g>
    </g>
   </g>
   <g id="line2d_43">
    <path d="M 80.584528 133.760808 
L 82.489181 136.715156 
L 84.393835 136.715156 
L 86.298489 136.715156 
L 88.203142 133.760808 
L 90.107796 136.715156 
L 92.012449 133.760808 
L 93.917103 136.715156 
L 95.821756 136.715156 
L 97.72641 136.715156 
L 99.631063 136.715156 
L 101.535717 136.715156 
L 103.44037 136.715156 
L 105.345024 130.806461 
L 107.249678 136.715156 
L 109.154331 130.806461 
L 111.058985 130.806461 
L 112.963638 130.806461 
L 114.868292 130.806461 
L 116.772945 130.806461 
L 118.677599 130.806461 
L 120.582252 136.715156 
L 122.486906 127.852113 
L 124.391559 116.034721 
L 126.296213 118.989069 
L 128.200867 133.760808 
L 130.10552 136.715156 
L 132.010174 136.715156 
L 133.914827 130.806461 
L 135.819481 130.806461 
L 137.724134 136.715156 
L 139.628788 133.760808 
L 141.533441 133.760808 
L 143.438095 130.806461 
L 145.342748 130.806461 
L 147.247402 136.715156 
L 149.152055 136.715156 
L 151.056709 133.760808 
L 152.961363 130.806461 
L 154.866016 130.806461 
L 156.77067 130.806461 
L 158.675323 136.715156 
L 160.579977 136.715156 
L 162.48463 136.715156 
L 164.389284 136.715156 
L 166.293937 133.760808 
L 168.198591 136.715156 
L 170.103244 136.715156 
L 172.007898 130.806461 
L 173.912552 130.806461 
L 175.817205 130.806461 
L 177.721859 130.806461 
L 179.626512 130.806461 
L 181.531166 130.806461 
L 183.435819 130.806461 
L 185.340473 130.806461 
L 187.245126 136.715156 
L 189.14978 136.715156 
L 191.054433 136.715156 
L 192.959087 136.715156 
L 194.863741 130.806461 
L 196.768394 130.806461 
L 198.673048 130.806461 
L 200.577701 130.806461 
L 202.482355 134.351678 
L 204.387008 130.806461 
L 206.291662 130.806461 
L 208.196315 130.806461 
L 210.100969 127.852113 
L 212.005622 127.852113 
L 213.910276 127.852113 
L 215.81493 124.897765 
L 217.719583 124.897765 
L 219.624237 127.852113 
L 221.52889 124.897765 
L 223.433544 127.852113 
L 225.338197 127.852113 
L 227.242851 130.806461 
L 229.147504 124.897765 
L 231.052158 124.897765 
L 232.956811 126.113284 
L 234.861465 118.989069 
L 236.766119 118.989069 
L 238.670772 118.989069 
L 240.575426 118.989069 
L 242.480079 116.034721 
L 244.384733 124.897765 
L 246.289386 127.852113 
L 248.19404 130.806461 
L 250.098693 127.852113 
L 252.003347 124.897765 
L 253.908 124.897765 
L 255.812654 124.897765 
L 257.717308 124.897765 
L 259.621961 130.806461 
" clip-path="url(#p4c63bb7b30)" style="fill: none; stroke-dasharray: 5.55,2.4; stroke-dashoffset: 0; stroke: #000000; stroke-width: 1.5"/>
   </g>
   <g id="line2d_44">
    <path d="M 80.584528 133.760808 
L 82.489181 131.197664 
L 84.393835 131.03317 
L 86.298489 131.112014 
L 88.203142 131.123584 
L 90.107796 131.124381 
L 92.012449 131.068456 
L 93.917103 131.086873 
L 95.821756 131.138738 
L 97.72641 131.206377 
L 99.631063 131.202689 
L 101.535717 131.127095 
L 103.44037 131.0444 
L 105.345024 130.954342 
L 107.249678 130.873388 
L 109.154331 130.802446 
L 111.058985 130.767803 
L 112.963638 130.73548 
L 114.868292 130.817097 
L 116.772945 130.855106 
L 118.677599 130.840306 
L 120.582252 130.844872 
L 122.486906 130.888575 
L 124.391559 130.908116 
L 126.296213 130.880078 
L 128.200867 130.854254 
L 130.10552 130.831951 
L 132.010174 130.848916 
L 133.914827 130.880936 
L 135.819481 130.962367 
L 137.724134 131.002468 
L 139.628788 131.057202 
L 141.533441 131.075465 
L 143.438095 131.017696 
L 145.342748 130.939064 
L 147.247402 130.851055 
L 149.152055 130.770865 
L 151.056709 130.689167 
L 152.961363 130.660692 
L 154.866016 130.670626 
L 156.77067 130.709254 
L 158.675323 130.768971 
L 160.579977 130.820899 
L 162.48463 130.815912 
L 164.389284 130.808208 
L 166.293937 130.801146 
L 168.198591 130.789945 
L 170.103244 130.809867 
L 172.007898 130.834514 
L 173.912552 130.838472 
L 175.817205 130.844985 
L 177.721859 130.768244 
L 179.626512 130.759419 
L 181.531166 130.734491 
L 183.435819 130.674503 
L 185.340473 130.688581 
L 187.245126 130.706303 
L 189.14978 130.681799 
L 191.054433 130.630072 
L 192.959087 130.57609 
L 194.863741 130.539114 
L 196.768394 130.533355 
L 198.673048 130.518687 
L 200.577701 130.510181 
L 202.482355 130.508703 
L 204.387008 130.508668 
L 206.291662 130.583278 
L 208.196315 130.591558 
L 210.100969 130.581653 
L 212.005622 130.589808 
L 213.910276 130.616193 
L 215.81493 130.640712 
L 217.719583 130.672479 
L 219.624237 130.705164 
L 221.52889 130.737594 
L 223.433544 130.757294 
L 225.338197 130.776109 
L 227.242851 130.78728 
L 229.147504 130.777666 
L 231.052158 130.77559 
L 232.956811 130.720786 
L 234.861465 131.424266 
L 236.766119 130.465424 
L 238.670772 130.316765 
L 240.575426 130.263929 
L 242.480079 130.211739 
L 244.384733 130.14334 
L 246.289386 130.201116 
L 248.19404 130.233467 
L 250.098693 130.269681 
L 252.003347 130.319117 
L 253.908 130.437574 
L 255.812654 130.531376 
L 257.717308 130.590765 
L 259.621961 130.632847 
" clip-path="url(#p4c63bb7b30)" style="fill: none; stroke: #ff0000; stroke-width: 1.5; stroke-linecap: square"/>
   </g>
   <g id="patch_3">
    <path d="M 71.632656 187.677656 
L 71.632656 24.597656 
" style="fill: none; stroke: #000000; stroke-width: 1.5; stroke-linejoin: miter; stroke-linecap: square"/>
   </g>
   <g id="patch_4">
    <path d="M 268.573833 187.677656 
L 268.573833 24.597656 
" style="fill: none; stroke: #000000; stroke-width: 1.5; stroke-linejoin: miter; stroke-linecap: square"/>
   </g>
   <g id="patch_5">
    <path d="M 71.632656 187.677656 
L 268.573833 187.677656 
" style="fill: none; stroke: #000000; stroke-width: 1.5; stroke-linejoin: miter; stroke-linecap: square"/>
   </g>
   <g id="patch_6">
    <path d="M 71.632656 24.597656 
L 268.573833 24.597656 
" style="fill: none; stroke: #000000; stroke-width: 1.5; stroke-linejoin: miter; stroke-linecap: square"/>
   </g>
   <g id="text_11">
    <!-- r = 1 (1.1%) -->
    <g transform="translate(123.90676 18.597656)scale(0.15 -0.15)">
     <defs>
      <path id="DejaVuSans-72" d="M 2631 2963 
Q 2534 3019 2420 3045 
Q 2306 3072 2169 3072 
Q 1681 3072 1420 2755 
Q 1159 2438 1159 1844 
L 1159 0 
L 581 0 
L 581 3500 
L 1159 3500 
L 1159 2956 
Q 1341 3275 1631 3429 
Q 1922 3584 2338 3584 
Q 2397 3584 2469 3576 
Q 2541 3569 2628 3553 
L 2631 2963 
z
" transform="scale(0.015625)"/>
      <path id="DejaVuSans-3d" d="M 678 2906 
L 4684 2906 
L 4684 2381 
L 678 2381 
L 678 2906 
z
M 678 1631 
L 4684 1631 
L 4684 1100 
L 678 1100 
L 678 1631 
z
" transform="scale(0.015625)"/>
      <path id="DejaVuSans-31" d="M 794 531 
L 1825 531 
L 1825 4091 
L 703 3866 
L 703 4441 
L 1819 4666 
L 2450 4666 
L 2450 531 
L 3481 531 
L 3481 0 
L 794 0 
L 794 531 
z
" transform="scale(0.015625)"/>
      <path id="DejaVuSans-28" d="M 1984 4856 
Q 1566 4138 1362 3434 
Q 1159 2731 1159 2009 
Q 1159 1288 1364 580 
Q 1569 -128 1984 -844 
L 1484 -844 
Q 1016 -109 783 600 
Q 550 1309 550 2009 
Q 550 2706 781 3412 
Q 1013 4119 1484 4856 
L 1984 4856 
z
" transform="scale(0.015625)"/>
      <path id="DejaVuSans-25" d="M 4653 2053 
Q 4381 2053 4226 1822 
Q 4072 1591 4072 1178 
Q 4072 772 4226 539 
Q 4381 306 4653 306 
Q 4919 306 5073 539 
Q 5228 772 5228 1178 
Q 5228 1588 5073 1820 
Q 4919 2053 4653 2053 
z
M 4653 2450 
Q 5147 2450 5437 2106 
Q 5728 1763 5728 1178 
Q 5728 594 5436 251 
Q 5144 -91 4653 -91 
Q 4153 -91 3862 251 
Q 3572 594 3572 1178 
Q 3572 1766 3864 2108 
Q 4156 2450 4653 2450 
z
M 1428 4353 
Q 1159 4353 1004 4120 
Q 850 3888 850 3481 
Q 850 3069 1003 2837 
Q 1156 2606 1428 2606 
Q 1700 2606 1854 2837 
Q 2009 3069 2009 3481 
Q 2009 3884 1853 4118 
Q 1697 4353 1428 4353 
z
M 4250 4750 
L 4750 4750 
L 1831 -91 
L 1331 -91 
L 4250 4750 
z
M 1428 4750 
Q 1922 4750 2215 4408 
Q 2509 4066 2509 3481 
Q 2509 2891 2217 2550 
Q 1925 2209 1428 2209 
Q 931 2209 642 2551 
Q 353 2894 353 3481 
Q 353 4063 643 4406 
Q 934 4750 1428 4750 
z
" transform="scale(0.015625)"/>
      <path id="DejaVuSans-29" d="M 513 4856 
L 1013 4856 
Q 1481 4119 1714 3412 
Q 1947 2706 1947 2009 
Q 1947 1309 1714 600 
Q 1481 -109 1013 -844 
L 513 -844 
Q 928 -128 1133 580 
Q 1338 1288 1338 2009 
Q 1338 2731 1133 3434 
Q 928 4138 513 4856 
z
" transform="scale(0.015625)"/>
     </defs>
     <use xlink:href="#DejaVuSans-72"/>
     <use xlink:href="#DejaVuSans-20" x="41.113281"/>
     <use xlink:href="#DejaVuSans-3d" x="72.900391"/>
     <use xlink:href="#DejaVuSans-20" x="156.689453"/>
     <use xlink:href="#DejaVuSans-31" x="188.476562"/>
     <use xlink:href="#DejaVuSans-20" x="252.099609"/>
     <use xlink:href="#DejaVuSans-28" x="283.886719"/>
     <use xlink:href="#DejaVuSans-31" x="322.900391"/>
     <use xlink:href="#DejaVuSans-2e" x="386.523438"/>
     <use xlink:href="#DejaVuSans-31" x="418.310547"/>
     <use xlink:href="#DejaVuSans-25" x="481.933594"/>
     <use xlink:href="#DejaVuSans-29" x="576.953125"/>
    </g>
   </g>
   <g id="legend_1">
    <g id="patch_7">
     <path d="M 133.107208 69.051594 
L 260.243833 69.051594 
Q 262.623833 69.051594 262.623833 66.671594 
L 262.623833 32.927656 
Q 262.623833 30.547656 260.243833 30.547656 
L 133.107208 30.547656 
Q 130.727208 30.547656 130.727208 32.927656 
L 130.727208 66.671594 
Q 130.727208 69.051594 133.107208 69.051594 
z
" style="fill: #ffffff; opacity: 0.8; stroke: #cccccc; stroke-linejoin: miter"/>
    </g>
    <g id="line2d_45">
     <path d="M 135.487208 40.184797 
L 159.287208 40.184797 
" style="fill: none; stroke-dasharray: 5.55,2.4; stroke-dashoffset: 0; stroke: #000000; stroke-width: 1.5"/>
    </g>
    <g id="line2d_46"/>
    <g id="text_12">
     <!-- True -->
     <g transform="translate(168.807208 44.349797)scale(0.119 -0.119)">
      <defs>
       <path id="DejaVuSans-75" d="M 544 1381 
L 544 3500 
L 1119 3500 
L 1119 1403 
Q 1119 906 1312 657 
Q 1506 409 1894 409 
Q 2359 409 2629 706 
Q 2900 1003 2900 1516 
L 2900 3500 
L 3475 3500 
L 3475 0 
L 2900 0 
L 2900 538 
Q 2691 219 2414 64 
Q 2138 -91 1772 -91 
Q 1169 -91 856 284 
Q 544 659 544 1381 
z
M 1991 3584 
L 1991 3584 
z
" transform="scale(0.015625)"/>
       <path id="DejaVuSans-65" d="M 3597 1894 
L 3597 1613 
L 953 1613 
Q 991 1019 1311 708 
Q 1631 397 2203 397 
Q 2534 397 2845 478 
Q 3156 559 3463 722 
L 3463 178 
Q 3153 47 2828 -22 
Q 2503 -91 2169 -91 
Q 1331 -91 842 396 
Q 353 884 353 1716 
Q 353 2575 817 3079 
Q 1281 3584 2069 3584 
Q 2775 3584 3186 3129 
Q 3597 2675 3597 1894 
z
M 3022 2063 
Q 3016 2534 2758 2815 
Q 2500 3097 2075 3097 
Q 1594 3097 1305 2825 
Q 1016 2553 972 2059 
L 3022 2063 
z
" transform="scale(0.015625)"/>
      </defs>
      <use xlink:href="#DejaVuSans-54"/>
      <use xlink:href="#DejaVuSans-72" x="46.333984"/>
      <use xlink:href="#DejaVuSans-75" x="87.447266"/>
      <use xlink:href="#DejaVuSans-65" x="150.826172"/>
     </g>
    </g>
    <g id="line2d_47">
     <path d="M 135.487208 57.651766 
L 159.287208 57.651766 
" style="fill: none; stroke: #ff0000; stroke-width: 1.5; stroke-linecap: square"/>
    </g>
    <g id="line2d_48"/>
    <g id="text_13">
     <!-- Reconstruction -->
     <g transform="translate(168.807208 61.816766)scale(0.119 -0.119)">
      <defs>
       <path id="DejaVuSans-52" d="M 2841 2188 
Q 3044 2119 3236 1894 
Q 3428 1669 3622 1275 
L 4263 0 
L 3584 0 
L 2988 1197 
Q 2756 1666 2539 1819 
Q 2322 1972 1947 1972 
L 1259 1972 
L 1259 0 
L 628 0 
L 628 4666 
L 2053 4666 
Q 2853 4666 3247 4331 
Q 3641 3997 3641 3322 
Q 3641 2881 3436 2590 
Q 3231 2300 2841 2188 
z
M 1259 4147 
L 1259 2491 
L 2053 2491 
Q 2509 2491 2742 2702 
Q 2975 2913 2975 3322 
Q 2975 3731 2742 3939 
Q 2509 4147 2053 4147 
L 1259 4147 
z
" transform="scale(0.015625)"/>
       <path id="DejaVuSans-63" d="M 3122 3366 
L 3122 2828 
Q 2878 2963 2633 3030 
Q 2388 3097 2138 3097 
Q 1578 3097 1268 2742 
Q 959 2388 959 1747 
Q 959 1106 1268 751 
Q 1578 397 2138 397 
Q 2388 397 2633 464 
Q 2878 531 3122 666 
L 3122 134 
Q 2881 22 2623 -34 
Q 2366 -91 2075 -91 
Q 1284 -91 818 406 
Q 353 903 353 1747 
Q 353 2603 823 3093 
Q 1294 3584 2113 3584 
Q 2378 3584 2631 3529 
Q 2884 3475 3122 3366 
z
" transform="scale(0.015625)"/>
       <path id="DejaVuSans-6f" d="M 1959 3097 
Q 1497 3097 1228 2736 
Q 959 2375 959 1747 
Q 959 1119 1226 758 
Q 1494 397 1959 397 
Q 2419 397 2687 759 
Q 2956 1122 2956 1747 
Q 2956 2369 2687 2733 
Q 2419 3097 1959 3097 
z
M 1959 3584 
Q 2709 3584 3137 3096 
Q 3566 2609 3566 1747 
Q 3566 888 3137 398 
Q 2709 -91 1959 -91 
Q 1206 -91 779 398 
Q 353 888 353 1747 
Q 353 2609 779 3096 
Q 1206 3584 1959 3584 
z
" transform="scale(0.015625)"/>
       <path id="DejaVuSans-6e" d="M 3513 2113 
L 3513 0 
L 2938 0 
L 2938 2094 
Q 2938 2591 2744 2837 
Q 2550 3084 2163 3084 
Q 1697 3084 1428 2787 
Q 1159 2491 1159 1978 
L 1159 0 
L 581 0 
L 581 3500 
L 1159 3500 
L 1159 2956 
Q 1366 3272 1645 3428 
Q 1925 3584 2291 3584 
Q 2894 3584 3203 3211 
Q 3513 2838 3513 2113 
z
" transform="scale(0.015625)"/>
       <path id="DejaVuSans-73" d="M 2834 3397 
L 2834 2853 
Q 2591 2978 2328 3040 
Q 2066 3103 1784 3103 
Q 1356 3103 1142 2972 
Q 928 2841 928 2578 
Q 928 2378 1081 2264 
Q 1234 2150 1697 2047 
L 1894 2003 
Q 2506 1872 2764 1633 
Q 3022 1394 3022 966 
Q 3022 478 2636 193 
Q 2250 -91 1575 -91 
Q 1294 -91 989 -36 
Q 684 19 347 128 
L 347 722 
Q 666 556 975 473 
Q 1284 391 1588 391 
Q 1994 391 2212 530 
Q 2431 669 2431 922 
Q 2431 1156 2273 1281 
Q 2116 1406 1581 1522 
L 1381 1569 
Q 847 1681 609 1914 
Q 372 2147 372 2553 
Q 372 3047 722 3315 
Q 1072 3584 1716 3584 
Q 2034 3584 2315 3537 
Q 2597 3491 2834 3397 
z
" transform="scale(0.015625)"/>
       <path id="DejaVuSans-74" d="M 1172 4494 
L 1172 3500 
L 2356 3500 
L 2356 3053 
L 1172 3053 
L 1172 1153 
Q 1172 725 1289 603 
Q 1406 481 1766 481 
L 2356 481 
L 2356 0 
L 1766 0 
Q 1100 0 847 248 
Q 594 497 594 1153 
L 594 3053 
L 172 3053 
L 172 3500 
L 594 3500 
L 594 4494 
L 1172 4494 
z
" transform="scale(0.015625)"/>
       <path id="DejaVuSans-69" d="M 603 3500 
L 1178 3500 
L 1178 0 
L 603 0 
L 603 3500 
z
M 603 4863 
L 1178 4863 
L 1178 4134 
L 603 4134 
L 603 4863 
z
" transform="scale(0.015625)"/>
      </defs>
      <use xlink:href="#DejaVuSans-52"/>
      <use xlink:href="#DejaVuSans-65" x="64.982422"/>
      <use xlink:href="#DejaVuSans-63" x="126.505859"/>
      <use xlink:href="#DejaVuSans-6f" x="181.486328"/>
      <use xlink:href="#DejaVuSans-6e" x="242.667969"/>
      <use xlink:href="#DejaVuSans-73" x="306.046875"/>
      <use xlink:href="#DejaVuSans-74" x="358.146484"/>
      <use xlink:href="#DejaVuSans-72" x="397.355469"/>
      <use xlink:href="#DejaVuSans-75" x="438.46875"/>
      <use xlink:href="#DejaVuSans-63" x="501.847656"/>
      <use xlink:href="#DejaVuSans-74" x="556.828125"/>
      <use xlink:href="#DejaVuSans-69" x="596.037109"/>
      <use xlink:href="#DejaVuSans-6f" x="623.820312"/>
      <use xlink:href="#DejaVuSans-6e" x="685.001953"/>
     </g>
    </g>
   </g>
  </g>
  <g id="axes_2">
   <g id="patch_8">
    <path d="M 307.962068 187.677656 
L 504.903244 187.677656 
L 504.903244 24.597656 
L 307.962068 24.597656 
z
" style="fill: #ffffff"/>
   </g>
   <g id="matplotlib.axis_3">
    <g id="xtick_18">
     <g id="line2d_49">
      <path d="M 316.91394 187.677656 
L 316.91394 24.597656 
" clip-path="url(#p43599dd658)" style="fill: none; stroke: #b0b0b0; stroke-width: 0.8; stroke-linecap: square"/>
     </g>
     <g id="line2d_50">
      <g>
       <use xlink:href="#mea40cdb757" x="316.91394" y="187.677656" style="stroke: #000000; stroke-width: 2"/>
      </g>
     </g>
     <g id="text_14">
      <!-- 0 -->
      <g transform="translate(312.46019 207.815469)scale(0.14 -0.14)">
       <use xlink:href="#DejaVuSans-30"/>
      </g>
     </g>
    </g>
    <g id="xtick_19">
     <g id="line2d_51">
      <path d="M 362.625625 187.677656 
L 362.625625 24.597656 
" clip-path="url(#p43599dd658)" style="fill: none; stroke: #b0b0b0; stroke-width: 0.8; stroke-linecap: square"/>
     </g>
     <g id="line2d_52">
      <g>
       <use xlink:href="#mea40cdb757" x="362.625625" y="187.677656" style="stroke: #000000; stroke-width: 2"/>
      </g>
     </g>
     <g id="text_15">
      <!-- 24 -->
      <g transform="translate(353.718125 207.815469)scale(0.14 -0.14)">
       <use xlink:href="#DejaVuSans-32"/>
       <use xlink:href="#DejaVuSans-34" x="63.623047"/>
      </g>
     </g>
    </g>
    <g id="xtick_20">
     <g id="line2d_53">
      <path d="M 408.33731 187.677656 
L 408.33731 24.597656 
" clip-path="url(#p43599dd658)" style="fill: none; stroke: #b0b0b0; stroke-width: 0.8; stroke-linecap: square"/>
     </g>
     <g id="line2d_54">
      <g>
       <use xlink:href="#mea40cdb757" x="408.33731" y="187.677656" style="stroke: #000000; stroke-width: 2"/>
      </g>
     </g>
     <g id="text_16">
      <!-- 48 -->
      <g transform="translate(399.42981 207.815469)scale(0.14 -0.14)">
       <use xlink:href="#DejaVuSans-34"/>
       <use xlink:href="#DejaVuSans-38" x="63.623047"/>
      </g>
     </g>
    </g>
    <g id="xtick_21">
     <g id="line2d_55">
      <path d="M 454.048995 187.677656 
L 454.048995 24.597656 
" clip-path="url(#p43599dd658)" style="fill: none; stroke: #b0b0b0; stroke-width: 0.8; stroke-linecap: square"/>
     </g>
     <g id="line2d_56">
      <g>
       <use xlink:href="#mea40cdb757" x="454.048995" y="187.677656" style="stroke: #000000; stroke-width: 2"/>
      </g>
     </g>
     <g id="text_17">
      <!-- 72 -->
      <g transform="translate(445.141495 207.815469)scale(0.14 -0.14)">
       <use xlink:href="#DejaVuSans-37"/>
       <use xlink:href="#DejaVuSans-32" x="63.623047"/>
      </g>
     </g>
    </g>
    <g id="xtick_22">
     <g id="line2d_57">
      <path d="M 499.76068 187.677656 
L 499.76068 24.597656 
" clip-path="url(#p43599dd658)" style="fill: none; stroke: #b0b0b0; stroke-width: 0.8; stroke-linecap: square"/>
     </g>
     <g id="line2d_58">
      <g>
       <use xlink:href="#mea40cdb757" x="499.76068" y="187.677656" style="stroke: #000000; stroke-width: 2"/>
      </g>
     </g>
     <g id="text_18">
      <!-- 96 -->
      <g transform="translate(490.85318 207.815469)scale(0.14 -0.14)">
       <use xlink:href="#DejaVuSans-39"/>
       <use xlink:href="#DejaVuSans-36" x="63.623047"/>
      </g>
     </g>
    </g>
    <g id="xtick_23">
     <g id="line2d_59">
      <g>
       <use xlink:href="#m07959998d2" x="328.341861" y="187.677656" style="stroke: #000000; stroke-width: 2"/>
      </g>
     </g>
    </g>
    <g id="xtick_24">
     <g id="line2d_60">
      <g>
       <use xlink:href="#m07959998d2" x="339.769782" y="187.677656" style="stroke: #000000; stroke-width: 2"/>
      </g>
     </g>
    </g>
    <g id="xtick_25">
     <g id="line2d_61">
      <g>
       <use xlink:href="#m07959998d2" x="351.197703" y="187.677656" style="stroke: #000000; stroke-width: 2"/>
      </g>
     </g>
    </g>
    <g id="xtick_26">
     <g id="line2d_62">
      <g>
       <use xlink:href="#m07959998d2" x="374.053546" y="187.677656" style="stroke: #000000; stroke-width: 2"/>
      </g>
     </g>
    </g>
    <g id="xtick_27">
     <g id="line2d_63">
      <g>
       <use xlink:href="#m07959998d2" x="385.481467" y="187.677656" style="stroke: #000000; stroke-width: 2"/>
      </g>
     </g>
    </g>
    <g id="xtick_28">
     <g id="line2d_64">
      <g>
       <use xlink:href="#m07959998d2" x="396.909389" y="187.677656" style="stroke: #000000; stroke-width: 2"/>
      </g>
     </g>
    </g>
    <g id="xtick_29">
     <g id="line2d_65">
      <g>
       <use xlink:href="#m07959998d2" x="419.765231" y="187.677656" style="stroke: #000000; stroke-width: 2"/>
      </g>
     </g>
    </g>
    <g id="xtick_30">
     <g id="line2d_66">
      <g>
       <use xlink:href="#m07959998d2" x="431.193152" y="187.677656" style="stroke: #000000; stroke-width: 2"/>
      </g>
     </g>
    </g>
    <g id="xtick_31">
     <g id="line2d_67">
      <g>
       <use xlink:href="#m07959998d2" x="442.621074" y="187.677656" style="stroke: #000000; stroke-width: 2"/>
      </g>
     </g>
    </g>
    <g id="xtick_32">
     <g id="line2d_68">
      <g>
       <use xlink:href="#m07959998d2" x="465.476916" y="187.677656" style="stroke: #000000; stroke-width: 2"/>
      </g>
     </g>
    </g>
    <g id="xtick_33">
     <g id="line2d_69">
      <g>
       <use xlink:href="#m07959998d2" x="476.904837" y="187.677656" style="stroke: #000000; stroke-width: 2"/>
      </g>
     </g>
    </g>
    <g id="xtick_34">
     <g id="line2d_70">
      <g>
       <use xlink:href="#m07959998d2" x="488.332759" y="187.677656" style="stroke: #000000; stroke-width: 2"/>
      </g>
     </g>
    </g>
   </g>
   <g id="matplotlib.axis_4">
    <g id="ytick_17">
     <g id="line2d_71">
      <path d="M 307.962068 177.485156 
L 504.903244 177.485156 
" clip-path="url(#p43599dd658)" style="fill: none; stroke: #b0b0b0; stroke-width: 0.8; stroke-linecap: square"/>
     </g>
     <g id="line2d_72">
      <g>
       <use xlink:href="#m067e9fcc94" x="307.962068" y="177.485156" style="stroke: #000000; stroke-width: 2"/>
      </g>
     </g>
     <g id="text_19">
      <!-- −0.2 -->
      <g transform="translate(264.466131 182.804062)scale(0.14 -0.14)">
       <use xlink:href="#DejaVuSans-2212"/>
       <use xlink:href="#DejaVuSans-30" x="83.789062"/>
       <use xlink:href="#DejaVuSans-2e" x="147.412109"/>
       <use xlink:href="#DejaVuSans-32" x="179.199219"/>
      </g>
     </g>
    </g>
    <g id="ytick_18">
     <g id="line2d_73">
      <path d="M 307.962068 136.715156 
L 504.903244 136.715156 
" clip-path="url(#p43599dd658)" style="fill: none; stroke: #b0b0b0; stroke-width: 0.8; stroke-linecap: square"/>
     </g>
     <g id="line2d_74">
      <g>
       <use xlink:href="#m067e9fcc94" x="307.962068" y="136.715156" style="stroke: #000000; stroke-width: 2"/>
      </g>
     </g>
     <g id="text_20">
      <!-- 0.0 -->
      <g transform="translate(276.197693 142.034062)scale(0.14 -0.14)">
       <use xlink:href="#DejaVuSans-30"/>
       <use xlink:href="#DejaVuSans-2e" x="63.623047"/>
       <use xlink:href="#DejaVuSans-30" x="95.410156"/>
      </g>
     </g>
    </g>
    <g id="ytick_19">
     <g id="line2d_75">
      <path d="M 307.962068 95.945156 
L 504.903244 95.945156 
" clip-path="url(#p43599dd658)" style="fill: none; stroke: #b0b0b0; stroke-width: 0.8; stroke-linecap: square"/>
     </g>
     <g id="line2d_76">
      <g>
       <use xlink:href="#m067e9fcc94" x="307.962068" y="95.945156" style="stroke: #000000; stroke-width: 2"/>
      </g>
     </g>
     <g id="text_21">
      <!-- 0.2 -->
      <g transform="translate(276.197693 101.264062)scale(0.14 -0.14)">
       <use xlink:href="#DejaVuSans-30"/>
       <use xlink:href="#DejaVuSans-2e" x="63.623047"/>
       <use xlink:href="#DejaVuSans-32" x="95.410156"/>
      </g>
     </g>
    </g>
    <g id="ytick_20">
     <g id="line2d_77">
      <path d="M 307.962068 55.175156 
L 504.903244 55.175156 
" clip-path="url(#p43599dd658)" style="fill: none; stroke: #b0b0b0; stroke-width: 0.8; stroke-linecap: square"/>
     </g>
     <g id="line2d_78">
      <g>
       <use xlink:href="#m067e9fcc94" x="307.962068" y="55.175156" style="stroke: #000000; stroke-width: 2"/>
      </g>
     </g>
     <g id="text_22">
      <!-- 0.4 -->
      <g transform="translate(276.197693 60.494062)scale(0.14 -0.14)">
       <use xlink:href="#DejaVuSans-30"/>
       <use xlink:href="#DejaVuSans-2e" x="63.623047"/>
       <use xlink:href="#DejaVuSans-34" x="95.410156"/>
      </g>
     </g>
    </g>
    <g id="ytick_21">
     <g id="line2d_79">
      <g>
       <use xlink:href="#m98b21d42d8" x="307.962068" y="167.292656" style="stroke: #000000; stroke-width: 2"/>
      </g>
     </g>
    </g>
    <g id="ytick_22">
     <g id="line2d_80">
      <g>
       <use xlink:href="#m98b21d42d8" x="307.962068" y="157.100156" style="stroke: #000000; stroke-width: 2"/>
      </g>
     </g>
    </g>
    <g id="ytick_23">
     <g id="line2d_81">
      <g>
       <use xlink:href="#m98b21d42d8" x="307.962068" y="146.907656" style="stroke: #000000; stroke-width: 2"/>
      </g>
     </g>
    </g>
    <g id="ytick_24">
     <g id="line2d_82">
      <g>
       <use xlink:href="#m98b21d42d8" x="307.962068" y="126.522656" style="stroke: #000000; stroke-width: 2"/>
      </g>
     </g>
    </g>
    <g id="ytick_25">
     <g id="line2d_83">
      <g>
       <use xlink:href="#m98b21d42d8" x="307.962068" y="116.330156" style="stroke: #000000; stroke-width: 2"/>
      </g>
     </g>
    </g>
    <g id="ytick_26">
     <g id="line2d_84">
      <g>
       <use xlink:href="#m98b21d42d8" x="307.962068" y="106.137656" style="stroke: #000000; stroke-width: 2"/>
      </g>
     </g>
    </g>
    <g id="ytick_27">
     <g id="line2d_85">
      <g>
       <use xlink:href="#m98b21d42d8" x="307.962068" y="85.752656" style="stroke: #000000; stroke-width: 2"/>
      </g>
     </g>
    </g>
    <g id="ytick_28">
     <g id="line2d_86">
      <g>
       <use xlink:href="#m98b21d42d8" x="307.962068" y="75.560156" style="stroke: #000000; stroke-width: 2"/>
      </g>
     </g>
    </g>
    <g id="ytick_29">
     <g id="line2d_87">
      <g>
       <use xlink:href="#m98b21d42d8" x="307.962068" y="65.367656" style="stroke: #000000; stroke-width: 2"/>
      </g>
     </g>
    </g>
    <g id="ytick_30">
     <g id="line2d_88">
      <g>
       <use xlink:href="#m98b21d42d8" x="307.962068" y="44.982656" style="stroke: #000000; stroke-width: 2"/>
      </g>
     </g>
    </g>
    <g id="ytick_31">
     <g id="line2d_89">
      <g>
       <use xlink:href="#m98b21d42d8" x="307.962068" y="34.790156" style="stroke: #000000; stroke-width: 2"/>
      </g>
     </g>
    </g>
    <g id="ytick_32">
     <g id="line2d_90">
      <g>
       <use xlink:href="#m98b21d42d8" x="307.962068" y="24.597656" style="stroke: #000000; stroke-width: 2"/>
      </g>
     </g>
    </g>
   </g>
   <g id="line2d_91">
    <path d="M 316.91394 133.760808 
L 318.818593 136.715156 
L 320.723247 136.715156 
L 322.6279 136.715156 
L 324.532554 133.760808 
L 326.437207 136.715156 
L 328.341861 133.760808 
L 330.246514 136.715156 
L 332.151168 136.715156 
L 334.055822 136.715156 
L 335.960475 136.715156 
L 337.865129 136.715156 
L 339.769782 136.715156 
L 341.674436 130.806461 
L 343.579089 136.715156 
L 345.483743 130.806461 
L 347.388396 130.806461 
L 349.29305 130.806461 
L 351.197703 130.806461 
L 353.102357 130.806461 
L 355.007011 130.806461 
L 356.911664 136.715156 
L 358.816318 127.852113 
L 360.720971 116.034721 
L 362.625625 118.989069 
L 364.530278 133.760808 
L 366.434932 136.715156 
L 368.339585 136.715156 
L 370.244239 130.806461 
L 372.148892 130.806461 
L 374.053546 136.715156 
L 375.9582 133.760808 
L 377.862853 133.760808 
L 379.767507 130.806461 
L 381.67216 130.806461 
L 383.576814 136.715156 
L 385.481467 136.715156 
L 387.386121 133.760808 
L 389.290774 130.806461 
L 391.195428 130.806461 
L 393.100081 130.806461 
L 395.004735 136.715156 
L 396.909389 136.715156 
L 398.814042 136.715156 
L 400.718696 136.715156 
L 402.623349 133.760808 
L 404.528003 136.715156 
L 406.432656 136.715156 
L 408.33731 130.806461 
L 410.241963 130.806461 
L 412.146617 130.806461 
L 414.05127 130.806461 
L 415.955924 130.806461 
L 417.860578 130.806461 
L 419.765231 130.806461 
L 421.669885 130.806461 
L 423.574538 136.715156 
L 425.479192 136.715156 
L 427.383845 136.715156 
L 429.288499 136.715156 
L 431.193152 130.806461 
L 433.097806 130.806461 
L 435.002459 130.806461 
L 436.907113 130.806461 
L 438.811767 134.351678 
L 440.71642 130.806461 
L 442.621074 130.806461 
L 444.525727 130.806461 
L 446.430381 127.852113 
L 448.335034 127.852113 
L 450.239688 127.852113 
L 452.144341 124.897765 
L 454.048995 124.897765 
L 455.953648 127.852113 
L 457.858302 124.897765 
L 459.762955 127.852113 
L 461.667609 127.852113 
L 463.572263 130.806461 
L 465.476916 124.897765 
L 467.38157 124.897765 
L 469.286223 126.113284 
L 471.190877 118.989069 
L 473.09553 118.989069 
L 475.000184 118.989069 
L 476.904837 118.989069 
L 478.809491 116.034721 
L 480.714144 124.897765 
L 482.618798 127.852113 
L 484.523452 130.806461 
L 486.428105 127.852113 
L 488.332759 124.897765 
L 490.237412 124.897765 
L 492.142066 124.897765 
L 494.046719 124.897765 
L 495.951373 130.806461 
" clip-path="url(#p43599dd658)" style="fill: none; stroke-dasharray: 5.55,2.4; stroke-dashoffset: 0; stroke: #000000; stroke-width: 1.5"/>
   </g>
   <g id="line2d_92">
    <path d="M 316.91394 133.760808 
L 318.818593 135.247488 
L 320.723247 136.312816 
L 322.6279 135.689196 
L 324.532554 135.010607 
L 326.437207 134.140494 
L 328.341861 133.334393 
L 330.246514 135.293959 
L 332.151168 137.221819 
L 334.055822 137.773438 
L 335.960475 137.41581 
L 337.865129 136.414239 
L 339.769782 135.982829 
L 341.674436 134.99171 
L 343.579089 133.108308 
L 345.483743 130.201464 
L 347.388396 129.583698 
L 349.29305 128.571936 
L 351.197703 130.071573 
L 353.102357 131.950666 
L 355.007011 132.356122 
L 356.911664 132.350117 
L 358.816318 126.778189 
L 360.720971 121.198774 
L 362.625625 123.646627 
L 364.530278 130.989034 
L 366.434932 136.906314 
L 368.339585 135.36348 
L 370.244239 132.023538 
L 372.148892 132.212845 
L 374.053546 133.720632 
L 375.9582 133.685439 
L 377.862853 132.080844 
L 379.767507 131.663205 
L 381.67216 132.8056 
L 383.576814 134.251091 
L 385.481467 134.97188 
L 387.386121 133.702816 
L 389.290774 132.16432 
L 391.195428 132.801546 
L 393.100081 131.774056 
L 395.004735 134.601309 
L 396.909389 135.796079 
L 398.814042 134.738971 
L 400.718696 135.184755 
L 402.623349 135.915621 
L 404.528003 135.951078 
L 406.432656 134.386152 
L 408.33731 132.725624 
L 410.241963 131.540449 
L 412.146617 131.158373 
L 414.05127 131.494019 
L 415.955924 131.801065 
L 417.860578 131.486111 
L 419.765231 131.98641 
L 421.669885 135.470089 
L 423.574538 136.490008 
L 425.479192 136.336903 
L 427.383845 135.250338 
L 429.288499 133.413467 
L 431.193152 129.792803 
L 433.097806 130.51959 
L 435.002459 131.478766 
L 436.907113 132.057183 
L 438.811767 131.442559 
L 440.71642 131.210928 
L 442.621074 131.979139 
L 444.525727 130.189435 
L 446.430381 129.018073 
L 448.335034 129.387446 
L 450.239688 128.332541 
L 452.144341 124.715426 
L 454.048995 123.032466 
L 455.953648 124.814594 
L 457.858302 127.481549 
L 459.762955 129.322637 
L 461.667609 129.204237 
L 463.572263 128.086717 
L 465.476916 126.073992 
L 467.38157 126.57095 
L 469.286223 128.159946 
L 471.190877 124.392019 
L 473.09553 119.591233 
L 475.000184 115.502901 
L 476.904837 116.74612 
L 478.809491 121.491632 
L 480.714144 124.845631 
L 482.618798 126.498251 
L 484.523452 128.037709 
L 486.428105 127.002957 
L 488.332759 126.088362 
L 490.237412 125.006248 
L 492.142066 126.063189 
L 494.046719 128.347067 
L 495.951373 128.426826 
" clip-path="url(#p43599dd658)" style="fill: none; stroke: #ff0000; stroke-width: 1.5; stroke-linecap: square"/>
   </g>
   <g id="patch_9">
    <path d="M 307.962068 187.677656 
L 307.962068 24.597656 
" style="fill: none; stroke: #000000; stroke-width: 1.5; stroke-linejoin: miter; stroke-linecap: square"/>
   </g>
   <g id="patch_10">
    <path d="M 504.903244 187.677656 
L 504.903244 24.597656 
" style="fill: none; stroke: #000000; stroke-width: 1.5; stroke-linejoin: miter; stroke-linecap: square"/>
   </g>
   <g id="patch_11">
    <path d="M 307.962068 187.677656 
L 504.903244 187.677656 
" style="fill: none; stroke: #000000; stroke-width: 1.5; stroke-linejoin: miter; stroke-linecap: square"/>
   </g>
   <g id="patch_12">
    <path d="M 307.962068 24.597656 
L 504.903244 24.597656 
" style="fill: none; stroke: #000000; stroke-width: 1.5; stroke-linejoin: miter; stroke-linecap: square"/>
   </g>
   <g id="text_23">
    <!-- r = 60 (63.2%) -->
    <g transform="translate(350.692422 18.597656)scale(0.15 -0.15)">
     <defs>
      <path id="DejaVuSans-33" d="M 2597 2516 
Q 3050 2419 3304 2112 
Q 3559 1806 3559 1356 
Q 3559 666 3084 287 
Q 2609 -91 1734 -91 
Q 1441 -91 1130 -33 
Q 819 25 488 141 
L 488 750 
Q 750 597 1062 519 
Q 1375 441 1716 441 
Q 2309 441 2620 675 
Q 2931 909 2931 1356 
Q 2931 1769 2642 2001 
Q 2353 2234 1838 2234 
L 1294 2234 
L 1294 2753 
L 1863 2753 
Q 2328 2753 2575 2939 
Q 2822 3125 2822 3475 
Q 2822 3834 2567 4026 
Q 2313 4219 1838 4219 
Q 1578 4219 1281 4162 
Q 984 4106 628 3988 
L 628 4550 
Q 988 4650 1302 4700 
Q 1616 4750 1894 4750 
Q 2613 4750 3031 4423 
Q 3450 4097 3450 3541 
Q 3450 3153 3228 2886 
Q 3006 2619 2597 2516 
z
" transform="scale(0.015625)"/>
     </defs>
     <use xlink:href="#DejaVuSans-72"/>
     <use xlink:href="#DejaVuSans-20" x="41.113281"/>
     <use xlink:href="#DejaVuSans-3d" x="72.900391"/>
     <use xlink:href="#DejaVuSans-20" x="156.689453"/>
     <use xlink:href="#DejaVuSans-36" x="188.476562"/>
     <use xlink:href="#DejaVuSans-30" x="252.099609"/>
     <use xlink:href="#DejaVuSans-20" x="315.722656"/>
     <use xlink:href="#DejaVuSans-28" x="347.509766"/>
     <use xlink:href="#DejaVuSans-36" x="386.523438"/>
     <use xlink:href="#DejaVuSans-33" x="450.146484"/>
     <use xlink:href="#DejaVuSans-2e" x="513.769531"/>
     <use xlink:href="#DejaVuSans-32" x="545.556641"/>
     <use xlink:href="#DejaVuSans-25" x="609.179688"/>
     <use xlink:href="#DejaVuSans-29" x="704.199219"/>
    </g>
   </g>
   <g id="legend_2">
    <g id="patch_13">
     <path d="M 369.436619 69.051594 
L 496.573244 69.051594 
Q 498.953244 69.051594 498.953244 66.671594 
L 498.953244 32.927656 
Q 498.953244 30.547656 496.573244 30.547656 
L 369.436619 30.547656 
Q 367.056619 30.547656 367.056619 32.927656 
L 367.056619 66.671594 
Q 367.056619 69.051594 369.436619 69.051594 
z
" style="fill: #ffffff; opacity: 0.8; stroke: #cccccc; stroke-linejoin: miter"/>
    </g>
    <g id="line2d_93">
     <path d="M 371.816619 40.184797 
L 395.616619 40.184797 
" style="fill: none; stroke-dasharray: 5.55,2.4; stroke-dashoffset: 0; stroke: #000000; stroke-width: 1.5"/>
    </g>
    <g id="line2d_94"/>
    <g id="text_24">
     <!-- True -->
     <g transform="translate(405.136619 44.349797)scale(0.119 -0.119)">
      <use xlink:href="#DejaVuSans-54"/>
      <use xlink:href="#DejaVuSans-72" x="46.333984"/>
      <use xlink:href="#DejaVuSans-75" x="87.447266"/>
      <use xlink:href="#DejaVuSans-65" x="150.826172"/>
     </g>
    </g>
    <g id="line2d_95">
     <path d="M 371.816619 57.651766 
L 395.616619 57.651766 
" style="fill: none; stroke: #ff0000; stroke-width: 1.5; stroke-linecap: square"/>
    </g>
    <g id="line2d_96"/>
    <g id="text_25">
     <!-- Reconstruction -->
     <g transform="translate(405.136619 61.816766)scale(0.119 -0.119)">
      <use xlink:href="#DejaVuSans-52"/>
      <use xlink:href="#DejaVuSans-65" x="64.982422"/>
      <use xlink:href="#DejaVuSans-63" x="126.505859"/>
      <use xlink:href="#DejaVuSans-6f" x="181.486328"/>
      <use xlink:href="#DejaVuSans-6e" x="242.667969"/>
      <use xlink:href="#DejaVuSans-73" x="306.046875"/>
      <use xlink:href="#DejaVuSans-74" x="358.146484"/>
      <use xlink:href="#DejaVuSans-72" x="397.355469"/>
      <use xlink:href="#DejaVuSans-75" x="438.46875"/>
      <use xlink:href="#DejaVuSans-63" x="501.847656"/>
      <use xlink:href="#DejaVuSans-74" x="556.828125"/>
      <use xlink:href="#DejaVuSans-69" x="596.037109"/>
      <use xlink:href="#DejaVuSans-6f" x="623.820312"/>
      <use xlink:href="#DejaVuSans-6e" x="685.001953"/>
     </g>
    </g>
   </g>
  </g>
  <g id="axes_3">
   <g id="patch_14">
    <path d="M 544.29148 187.677656 
L 741.232656 187.677656 
L 741.232656 24.597656 
L 544.29148 24.597656 
z
" style="fill: #ffffff"/>
   </g>
   <g id="matplotlib.axis_5">
    <g id="xtick_35">
     <g id="line2d_97">
      <path d="M 553.243351 187.677656 
L 553.243351 24.597656 
" clip-path="url(#p9127c04c7c)" style="fill: none; stroke: #b0b0b0; stroke-width: 0.8; stroke-linecap: square"/>
     </g>
     <g id="line2d_98">
      <g>
       <use xlink:href="#mea40cdb757" x="553.243351" y="187.677656" style="stroke: #000000; stroke-width: 2"/>
      </g>
     </g>
     <g id="text_26">
      <!-- 0 -->
      <g transform="translate(548.789601 207.815469)scale(0.14 -0.14)">
       <use xlink:href="#DejaVuSans-30"/>
      </g>
     </g>
    </g>
    <g id="xtick_36">
     <g id="line2d_99">
      <path d="M 598.955036 187.677656 
L 598.955036 24.597656 
" clip-path="url(#p9127c04c7c)" style="fill: none; stroke: #b0b0b0; stroke-width: 0.8; stroke-linecap: square"/>
     </g>
     <g id="line2d_100">
      <g>
       <use xlink:href="#mea40cdb757" x="598.955036" y="187.677656" style="stroke: #000000; stroke-width: 2"/>
      </g>
     </g>
     <g id="text_27">
      <!-- 24 -->
      <g transform="translate(590.047536 207.815469)scale(0.14 -0.14)">
       <use xlink:href="#DejaVuSans-32"/>
       <use xlink:href="#DejaVuSans-34" x="63.623047"/>
      </g>
     </g>
    </g>
    <g id="xtick_37">
     <g id="line2d_101">
      <path d="M 644.666722 187.677656 
L 644.666722 24.597656 
" clip-path="url(#p9127c04c7c)" style="fill: none; stroke: #b0b0b0; stroke-width: 0.8; stroke-linecap: square"/>
     </g>
     <g id="line2d_102">
      <g>
       <use xlink:href="#mea40cdb757" x="644.666722" y="187.677656" style="stroke: #000000; stroke-width: 2"/>
      </g>
     </g>
     <g id="text_28">
      <!-- 48 -->
      <g transform="translate(635.759222 207.815469)scale(0.14 -0.14)">
       <use xlink:href="#DejaVuSans-34"/>
       <use xlink:href="#DejaVuSans-38" x="63.623047"/>
      </g>
     </g>
    </g>
    <g id="xtick_38">
     <g id="line2d_103">
      <path d="M 690.378407 187.677656 
L 690.378407 24.597656 
" clip-path="url(#p9127c04c7c)" style="fill: none; stroke: #b0b0b0; stroke-width: 0.8; stroke-linecap: square"/>
     </g>
     <g id="line2d_104">
      <g>
       <use xlink:href="#mea40cdb757" x="690.378407" y="187.677656" style="stroke: #000000; stroke-width: 2"/>
      </g>
     </g>
     <g id="text_29">
      <!-- 72 -->
      <g transform="translate(681.470907 207.815469)scale(0.14 -0.14)">
       <use xlink:href="#DejaVuSans-37"/>
       <use xlink:href="#DejaVuSans-32" x="63.623047"/>
      </g>
     </g>
    </g>
    <g id="xtick_39">
     <g id="line2d_105">
      <path d="M 736.090092 187.677656 
L 736.090092 24.597656 
" clip-path="url(#p9127c04c7c)" style="fill: none; stroke: #b0b0b0; stroke-width: 0.8; stroke-linecap: square"/>
     </g>
     <g id="line2d_106">
      <g>
       <use xlink:href="#mea40cdb757" x="736.090092" y="187.677656" style="stroke: #000000; stroke-width: 2"/>
      </g>
     </g>
     <g id="text_30">
      <!-- 96 -->
      <g transform="translate(727.182592 207.815469)scale(0.14 -0.14)">
       <use xlink:href="#DejaVuSans-39"/>
       <use xlink:href="#DejaVuSans-36" x="63.623047"/>
      </g>
     </g>
    </g>
    <g id="xtick_40">
     <g id="line2d_107">
      <g>
       <use xlink:href="#m07959998d2" x="564.671273" y="187.677656" style="stroke: #000000; stroke-width: 2"/>
      </g>
     </g>
    </g>
    <g id="xtick_41">
     <g id="line2d_108">
      <g>
       <use xlink:href="#m07959998d2" x="576.099194" y="187.677656" style="stroke: #000000; stroke-width: 2"/>
      </g>
     </g>
    </g>
    <g id="xtick_42">
     <g id="line2d_109">
      <g>
       <use xlink:href="#m07959998d2" x="587.527115" y="187.677656" style="stroke: #000000; stroke-width: 2"/>
      </g>
     </g>
    </g>
    <g id="xtick_43">
     <g id="line2d_110">
      <g>
       <use xlink:href="#m07959998d2" x="610.382958" y="187.677656" style="stroke: #000000; stroke-width: 2"/>
      </g>
     </g>
    </g>
    <g id="xtick_44">
     <g id="line2d_111">
      <g>
       <use xlink:href="#m07959998d2" x="621.810879" y="187.677656" style="stroke: #000000; stroke-width: 2"/>
      </g>
     </g>
    </g>
    <g id="xtick_45">
     <g id="line2d_112">
      <g>
       <use xlink:href="#m07959998d2" x="633.2388" y="187.677656" style="stroke: #000000; stroke-width: 2"/>
      </g>
     </g>
    </g>
    <g id="xtick_46">
     <g id="line2d_113">
      <g>
       <use xlink:href="#m07959998d2" x="656.094643" y="187.677656" style="stroke: #000000; stroke-width: 2"/>
      </g>
     </g>
    </g>
    <g id="xtick_47">
     <g id="line2d_114">
      <g>
       <use xlink:href="#m07959998d2" x="667.522564" y="187.677656" style="stroke: #000000; stroke-width: 2"/>
      </g>
     </g>
    </g>
    <g id="xtick_48">
     <g id="line2d_115">
      <g>
       <use xlink:href="#m07959998d2" x="678.950485" y="187.677656" style="stroke: #000000; stroke-width: 2"/>
      </g>
     </g>
    </g>
    <g id="xtick_49">
     <g id="line2d_116">
      <g>
       <use xlink:href="#m07959998d2" x="701.806328" y="187.677656" style="stroke: #000000; stroke-width: 2"/>
      </g>
     </g>
    </g>
    <g id="xtick_50">
     <g id="line2d_117">
      <g>
       <use xlink:href="#m07959998d2" x="713.234249" y="187.677656" style="stroke: #000000; stroke-width: 2"/>
      </g>
     </g>
    </g>
    <g id="xtick_51">
     <g id="line2d_118">
      <g>
       <use xlink:href="#m07959998d2" x="724.66217" y="187.677656" style="stroke: #000000; stroke-width: 2"/>
      </g>
     </g>
    </g>
   </g>
   <g id="matplotlib.axis_6">
    <g id="ytick_33">
     <g id="line2d_119">
      <path d="M 544.29148 177.485156 
L 741.232656 177.485156 
" clip-path="url(#p9127c04c7c)" style="fill: none; stroke: #b0b0b0; stroke-width: 0.8; stroke-linecap: square"/>
     </g>
     <g id="line2d_120">
      <g>
       <use xlink:href="#m067e9fcc94" x="544.29148" y="177.485156" style="stroke: #000000; stroke-width: 2"/>
      </g>
     </g>
     <g id="text_31">
      <!-- −0.2 -->
      <g transform="translate(500.795542 182.804062)scale(0.14 -0.14)">
       <use xlink:href="#DejaVuSans-2212"/>
       <use xlink:href="#DejaVuSans-30" x="83.789062"/>
       <use xlink:href="#DejaVuSans-2e" x="147.412109"/>
       <use xlink:href="#DejaVuSans-32" x="179.199219"/>
      </g>
     </g>
    </g>
    <g id="ytick_34">
     <g id="line2d_121">
      <path d="M 544.29148 136.715156 
L 741.232656 136.715156 
" clip-path="url(#p9127c04c7c)" style="fill: none; stroke: #b0b0b0; stroke-width: 0.8; stroke-linecap: square"/>
     </g>
     <g id="line2d_122">
      <g>
       <use xlink:href="#m067e9fcc94" x="544.29148" y="136.715156" style="stroke: #000000; stroke-width: 2"/>
      </g>
     </g>
     <g id="text_32">
      <!-- 0.0 -->
      <g transform="translate(512.527105 142.034062)scale(0.14 -0.14)">
       <use xlink:href="#DejaVuSans-30"/>
       <use xlink:href="#DejaVuSans-2e" x="63.623047"/>
       <use xlink:href="#DejaVuSans-30" x="95.410156"/>
      </g>
     </g>
    </g>
    <g id="ytick_35">
     <g id="line2d_123">
      <path d="M 544.29148 95.945156 
L 741.232656 95.945156 
" clip-path="url(#p9127c04c7c)" style="fill: none; stroke: #b0b0b0; stroke-width: 0.8; stroke-linecap: square"/>
     </g>
     <g id="line2d_124">
      <g>
       <use xlink:href="#m067e9fcc94" x="544.29148" y="95.945156" style="stroke: #000000; stroke-width: 2"/>
      </g>
     </g>
     <g id="text_33">
      <!-- 0.2 -->
      <g transform="translate(512.527105 101.264062)scale(0.14 -0.14)">
       <use xlink:href="#DejaVuSans-30"/>
       <use xlink:href="#DejaVuSans-2e" x="63.623047"/>
       <use xlink:href="#DejaVuSans-32" x="95.410156"/>
      </g>
     </g>
    </g>
    <g id="ytick_36">
     <g id="line2d_125">
      <path d="M 544.29148 55.175156 
L 741.232656 55.175156 
" clip-path="url(#p9127c04c7c)" style="fill: none; stroke: #b0b0b0; stroke-width: 0.8; stroke-linecap: square"/>
     </g>
     <g id="line2d_126">
      <g>
       <use xlink:href="#m067e9fcc94" x="544.29148" y="55.175156" style="stroke: #000000; stroke-width: 2"/>
      </g>
     </g>
     <g id="text_34">
      <!-- 0.4 -->
      <g transform="translate(512.527105 60.494062)scale(0.14 -0.14)">
       <use xlink:href="#DejaVuSans-30"/>
       <use xlink:href="#DejaVuSans-2e" x="63.623047"/>
       <use xlink:href="#DejaVuSans-34" x="95.410156"/>
      </g>
     </g>
    </g>
    <g id="ytick_37">
     <g id="line2d_127">
      <g>
       <use xlink:href="#m98b21d42d8" x="544.29148" y="167.292656" style="stroke: #000000; stroke-width: 2"/>
      </g>
     </g>
    </g>
    <g id="ytick_38">
     <g id="line2d_128">
      <g>
       <use xlink:href="#m98b21d42d8" x="544.29148" y="157.100156" style="stroke: #000000; stroke-width: 2"/>
      </g>
     </g>
    </g>
    <g id="ytick_39">
     <g id="line2d_129">
      <g>
       <use xlink:href="#m98b21d42d8" x="544.29148" y="146.907656" style="stroke: #000000; stroke-width: 2"/>
      </g>
     </g>
    </g>
    <g id="ytick_40">
     <g id="line2d_130">
      <g>
       <use xlink:href="#m98b21d42d8" x="544.29148" y="126.522656" style="stroke: #000000; stroke-width: 2"/>
      </g>
     </g>
    </g>
    <g id="ytick_41">
     <g id="line2d_131">
      <g>
       <use xlink:href="#m98b21d42d8" x="544.29148" y="116.330156" style="stroke: #000000; stroke-width: 2"/>
      </g>
     </g>
    </g>
    <g id="ytick_42">
     <g id="line2d_132">
      <g>
       <use xlink:href="#m98b21d42d8" x="544.29148" y="106.137656" style="stroke: #000000; stroke-width: 2"/>
      </g>
     </g>
    </g>
    <g id="ytick_43">
     <g id="line2d_133">
      <g>
       <use xlink:href="#m98b21d42d8" x="544.29148" y="85.752656" style="stroke: #000000; stroke-width: 2"/>
      </g>
     </g>
    </g>
    <g id="ytick_44">
     <g id="line2d_134">
      <g>
       <use xlink:href="#m98b21d42d8" x="544.29148" y="75.560156" style="stroke: #000000; stroke-width: 2"/>
      </g>
     </g>
    </g>
    <g id="ytick_45">
     <g id="line2d_135">
      <g>
       <use xlink:href="#m98b21d42d8" x="544.29148" y="65.367656" style="stroke: #000000; stroke-width: 2"/>
      </g>
     </g>
    </g>
    <g id="ytick_46">
     <g id="line2d_136">
      <g>
       <use xlink:href="#m98b21d42d8" x="544.29148" y="44.982656" style="stroke: #000000; stroke-width: 2"/>
      </g>
     </g>
    </g>
    <g id="ytick_47">
     <g id="line2d_137">
      <g>
       <use xlink:href="#m98b21d42d8" x="544.29148" y="34.790156" style="stroke: #000000; stroke-width: 2"/>
      </g>
     </g>
    </g>
    <g id="ytick_48">
     <g id="line2d_138">
      <g>
       <use xlink:href="#m98b21d42d8" x="544.29148" y="24.597656" style="stroke: #000000; stroke-width: 2"/>
      </g>
     </g>
    </g>
   </g>
   <g id="line2d_139">
    <path d="M 553.243351 133.760808 
L 555.148005 136.715156 
L 557.052659 136.715156 
L 558.957312 136.715156 
L 560.861966 133.760808 
L 562.766619 136.715156 
L 564.671273 133.760808 
L 566.575926 136.715156 
L 568.48058 136.715156 
L 570.385233 136.715156 
L 572.289887 136.715156 
L 574.19454 136.715156 
L 576.099194 136.715156 
L 578.003848 130.806461 
L 579.908501 136.715156 
L 581.813155 130.806461 
L 583.717808 130.806461 
L 585.622462 130.806461 
L 587.527115 130.806461 
L 589.431769 130.806461 
L 591.336422 130.806461 
L 593.241076 136.715156 
L 595.145729 127.852113 
L 597.050383 116.034721 
L 598.955036 118.989069 
L 600.85969 133.760808 
L 602.764344 136.715156 
L 604.668997 136.715156 
L 606.573651 130.806461 
L 608.478304 130.806461 
L 610.382958 136.715156 
L 612.287611 133.760808 
L 614.192265 133.760808 
L 616.096918 130.806461 
L 618.001572 130.806461 
L 619.906225 136.715156 
L 621.810879 136.715156 
L 623.715533 133.760808 
L 625.620186 130.806461 
L 627.52484 130.806461 
L 629.429493 130.806461 
L 631.334147 136.715156 
L 633.2388 136.715156 
L 635.143454 136.715156 
L 637.048107 136.715156 
L 638.952761 133.760808 
L 640.857414 136.715156 
L 642.762068 136.715156 
L 644.666722 130.806461 
L 646.571375 130.806461 
L 648.476029 130.806461 
L 650.380682 130.806461 
L 652.285336 130.806461 
L 654.189989 130.806461 
L 656.094643 130.806461 
L 657.999296 130.806461 
L 659.90395 136.715156 
L 661.808603 136.715156 
L 663.713257 136.715156 
L 665.617911 136.715156 
L 667.522564 130.806461 
L 669.427218 130.806461 
L 671.331871 130.806461 
L 673.236525 130.806461 
L 675.141178 134.351678 
L 677.045832 130.806461 
L 678.950485 130.806461 
L 680.855139 130.806461 
L 682.759792 127.852113 
L 684.664446 127.852113 
L 686.5691 127.852113 
L 688.473753 124.897765 
L 690.378407 124.897765 
L 692.28306 127.852113 
L 694.187714 124.897765 
L 696.092367 127.852113 
L 697.997021 127.852113 
L 699.901674 130.806461 
L 701.806328 124.897765 
L 703.710981 124.897765 
L 705.615635 126.113284 
L 707.520289 118.989069 
L 709.424942 118.989069 
L 711.329596 118.989069 
L 713.234249 118.989069 
L 715.138903 116.034721 
L 717.043556 124.897765 
L 718.94821 127.852113 
L 720.852863 130.806461 
L 722.757517 127.852113 
L 724.66217 124.897765 
L 726.566824 124.897765 
L 728.471478 124.897765 
L 730.376131 124.897765 
L 732.280785 130.806461 
" clip-path="url(#p9127c04c7c)" style="fill: none; stroke-dasharray: 5.55,2.4; stroke-dashoffset: 0; stroke: #000000; stroke-width: 1.5"/>
   </g>
   <g id="line2d_140">
    <path d="M 553.243351 133.760808 
L 555.148005 136.856656 
L 557.052659 136.860565 
L 558.957312 136.285266 
L 560.861966 134.608227 
L 562.766619 136.494028 
L 564.671273 135.328425 
L 566.575926 135.357138 
L 568.48058 136.383893 
L 570.385233 138.330027 
L 572.289887 136.464868 
L 574.19454 135.810912 
L 576.099194 134.549643 
L 578.003848 136.563756 
L 579.908501 134.007374 
L 581.813155 131.372841 
L 583.717808 130.674437 
L 585.622462 129.134288 
L 587.527115 132.847176 
L 589.431769 129.029271 
L 591.336422 132.004343 
L 593.241076 136.56237 
L 595.145729 127.249188 
L 597.050383 115.19178 
L 598.955036 120.836766 
L 600.85969 132.921906 
L 602.764344 136.599613 
L 604.668997 136.43414 
L 606.573651 130.44907 
L 608.478304 132.427547 
L 610.382958 136.094981 
L 612.287611 134.288773 
L 614.192265 132.124349 
L 616.096918 130.822644 
L 618.001572 131.608177 
L 619.906225 136.217259 
L 621.810879 136.824383 
L 623.715533 133.747221 
L 625.620186 130.242333 
L 627.52484 132.040997 
L 629.429493 131.123192 
L 631.334147 135.853581 
L 633.2388 136.073454 
L 635.143454 136.908257 
L 637.048107 137.0296 
L 638.952761 133.122853 
L 640.857414 136.769621 
L 642.762068 136.944567 
L 644.666722 130.702091 
L 646.571375 131.193734 
L 648.476029 130.52045 
L 650.380682 130.235287 
L 652.285336 131.511537 
L 654.189989 130.628881 
L 656.094643 130.589729 
L 657.999296 132.175458 
L 659.90395 136.575625 
L 661.808603 136.560953 
L 663.713257 136.165596 
L 665.617911 136.848415 
L 667.522564 130.829949 
L 669.427218 130.14651 
L 671.331871 131.161625 
L 673.236525 132.161351 
L 675.141178 132.47406 
L 677.045832 130.886654 
L 678.950485 131.392449 
L 680.855139 130.404839 
L 682.759792 128.205885 
L 684.664446 128.463937 
L 686.5691 126.683215 
L 688.473753 124.591088 
L 690.378407 126.172367 
L 692.28306 127.612129 
L 694.187714 124.807725 
L 696.092367 128.330198 
L 697.997021 128.118275 
L 699.901674 128.858098 
L 701.806328 126.667997 
L 703.710981 124.58575 
L 705.615635 125.827295 
L 707.520289 120.435867 
L 709.424942 118.765191 
L 711.329596 117.931337 
L 713.234249 118.331258 
L 715.138903 117.401664 
L 717.043556 125.118492 
L 718.94821 127.100554 
L 720.852863 130.936779 
L 722.757517 127.358061 
L 724.66217 124.932446 
L 726.566824 125.437855 
L 728.471478 125.143853 
L 730.376131 125.06534 
L 732.280785 130.231409 
" clip-path="url(#p9127c04c7c)" style="fill: none; stroke: #ff0000; stroke-width: 1.5; stroke-linecap: square"/>
   </g>
   <g id="patch_15">
    <path d="M 544.29148 187.677656 
L 544.29148 24.597656 
" style="fill: none; stroke: #000000; stroke-width: 1.5; stroke-linejoin: miter; stroke-linecap: square"/>
   </g>
   <g id="patch_16">
    <path d="M 741.232656 187.677656 
L 741.232656 24.597656 
" style="fill: none; stroke: #000000; stroke-width: 1.5; stroke-linejoin: miter; stroke-linecap: square"/>
   </g>
   <g id="patch_17">
    <path d="M 544.29148 187.677656 
L 741.232656 187.677656 
" style="fill: none; stroke: #000000; stroke-width: 1.5; stroke-linejoin: miter; stroke-linecap: square"/>
   </g>
   <g id="patch_18">
    <path d="M 544.29148 24.597656 
L 741.232656 24.597656 
" style="fill: none; stroke: #000000; stroke-width: 1.5; stroke-linejoin: miter; stroke-linecap: square"/>
   </g>
   <g id="text_35">
    <!-- r = 85 (89.5%) -->
    <g transform="translate(587.021834 18.597656)scale(0.15 -0.15)">
     <defs>
      <path id="DejaVuSans-35" d="M 691 4666 
L 3169 4666 
L 3169 4134 
L 1269 4134 
L 1269 2991 
Q 1406 3038 1543 3061 
Q 1681 3084 1819 3084 
Q 2600 3084 3056 2656 
Q 3513 2228 3513 1497 
Q 3513 744 3044 326 
Q 2575 -91 1722 -91 
Q 1428 -91 1123 -41 
Q 819 9 494 109 
L 494 744 
Q 775 591 1075 516 
Q 1375 441 1709 441 
Q 2250 441 2565 725 
Q 2881 1009 2881 1497 
Q 2881 1984 2565 2268 
Q 2250 2553 1709 2553 
Q 1456 2553 1204 2497 
Q 953 2441 691 2322 
L 691 4666 
z
" transform="scale(0.015625)"/>
     </defs>
     <use xlink:href="#DejaVuSans-72"/>
     <use xlink:href="#DejaVuSans-20" x="41.113281"/>
     <use xlink:href="#DejaVuSans-3d" x="72.900391"/>
     <use xlink:href="#DejaVuSans-20" x="156.689453"/>
     <use xlink:href="#DejaVuSans-38" x="188.476562"/>
     <use xlink:href="#DejaVuSans-35" x="252.099609"/>
     <use xlink:href="#DejaVuSans-20" x="315.722656"/>
     <use xlink:href="#DejaVuSans-28" x="347.509766"/>
     <use xlink:href="#DejaVuSans-38" x="386.523438"/>
     <use xlink:href="#DejaVuSans-39" x="450.146484"/>
     <use xlink:href="#DejaVuSans-2e" x="513.769531"/>
     <use xlink:href="#DejaVuSans-35" x="545.556641"/>
     <use xlink:href="#DejaVuSans-25" x="609.179688"/>
     <use xlink:href="#DejaVuSans-29" x="704.199219"/>
    </g>
   </g>
   <g id="legend_3">
    <g id="patch_19">
     <path d="M 605.766031 69.051594 
L 732.902656 69.051594 
Q 735.282656 69.051594 735.282656 66.671594 
L 735.282656 32.927656 
Q 735.282656 30.547656 732.902656 30.547656 
L 605.766031 30.547656 
Q 603.386031 30.547656 603.386031 32.927656 
L 603.386031 66.671594 
Q 603.386031 69.051594 605.766031 69.051594 
z
" style="fill: #ffffff; opacity: 0.8; stroke: #cccccc; stroke-linejoin: miter"/>
    </g>
    <g id="line2d_141">
     <path d="M 608.146031 40.184797 
L 631.946031 40.184797 
" style="fill: none; stroke-dasharray: 5.55,2.4; stroke-dashoffset: 0; stroke: #000000; stroke-width: 1.5"/>
    </g>
    <g id="line2d_142"/>
    <g id="text_36">
     <!-- True -->
     <g transform="translate(641.466031 44.349797)scale(0.119 -0.119)">
      <use xlink:href="#DejaVuSans-54"/>
      <use xlink:href="#DejaVuSans-72" x="46.333984"/>
      <use xlink:href="#DejaVuSans-75" x="87.447266"/>
      <use xlink:href="#DejaVuSans-65" x="150.826172"/>
     </g>
    </g>
    <g id="line2d_143">
     <path d="M 608.146031 57.651766 
L 631.946031 57.651766 
" style="fill: none; stroke: #ff0000; stroke-width: 1.5; stroke-linecap: square"/>
    </g>
    <g id="line2d_144"/>
    <g id="text_37">
     <!-- Reconstruction -->
     <g transform="translate(641.466031 61.816766)scale(0.119 -0.119)">
      <use xlink:href="#DejaVuSans-52"/>
      <use xlink:href="#DejaVuSans-65" x="64.982422"/>
      <use xlink:href="#DejaVuSans-63" x="126.505859"/>
      <use xlink:href="#DejaVuSans-6f" x="181.486328"/>
      <use xlink:href="#DejaVuSans-6e" x="242.667969"/>
      <use xlink:href="#DejaVuSans-73" x="306.046875"/>
      <use xlink:href="#DejaVuSans-74" x="358.146484"/>
      <use xlink:href="#DejaVuSans-72" x="397.355469"/>
      <use xlink:href="#DejaVuSans-75" x="438.46875"/>
      <use xlink:href="#DejaVuSans-63" x="501.847656"/>
      <use xlink:href="#DejaVuSans-74" x="556.828125"/>
      <use xlink:href="#DejaVuSans-69" x="596.037109"/>
      <use xlink:href="#DejaVuSans-6f" x="623.820312"/>
      <use xlink:href="#DejaVuSans-6e" x="685.001953"/>
     </g>
    </g>
   </g>
  </g>
 </g>
 <defs>
  <clipPath id="p4c63bb7b30">
   <rect x="71.632656" y="24.597656" width="196.941176" height="163.08"/>
  </clipPath>
  <clipPath id="p43599dd658">
   <rect x="307.962068" y="24.597656" width="196.941176" height="163.08"/>
  </clipPath>
  <clipPath id="p9127c04c7c">
   <rect x="544.29148" y="24.597656" width="196.941176" height="163.08"/>
  </clipPath>
 </defs>
</svg>
